<svg width="50" height="50" viewBox="0 0 50 50" fill="none" xmlns="http://www.w3.org/2000/svg">
<path d="M31.25 25L4.16666 25M4.16666 25L11.4583 18.75M4.16666 25L11.4583 31.25" stroke="#E6E6E6" stroke-width="2" stroke-linecap="round" stroke-linejoin="round"/>
<path d="M18.7542 14.5834C18.7794 10.0521 18.9803 7.59813 20.5811 5.99733C22.4117 4.16675 25.358 4.16675 31.2505 4.16675L33.3339 4.16675C39.2264 4.16675 42.1727 4.16675 44.0033 5.99733C45.8339 7.82791 45.8339 10.7742 45.8339 16.6667L45.8339 33.3334C45.8339 39.226 45.8339 42.1723 44.0033 44.0028C42.4024 45.6037 39.9483 45.8046 35.4167 45.8298M18.7542 35.4168C18.7794 39.9481 18.9803 42.402 20.5811 44.0028C21.9171 45.3388 23.8473 45.6998 27.0834 45.7973" stroke="#E6E6E6" stroke-width="2.5" stroke-linecap="round"/>
</svg>
