/* XPM */
static char *result[] = {
/* columns rows colors chars-per-pixel */
"50 50 5 1 ",
"  c #81BA44",
". c #4E8400",
"X c #C1F27A",
"o c #9FDF5B",
"O c white",
/* pixels */
"                                                  ",
"                                                  ",
"                                                  ",
"                                                  ",
"                                                  ",
"                                                  ",
"                                                  ",
"                                                  ",
"                 ..                              .",
"                 ..                              .",
"                   ..  ..                         ",
"                   ..  ..                         ",
"                   ..  ..                         ",
"                   ..  ..                         ",
"                                                  ",
"                                                  ",
"                                                  ",
"                                                  ",
"                                                  ",
"                                                  ",
"                                                  ",
"                                                  ",
"                                                  ",
"                                                  ",
"       ..                              ..         ",
"       ..                              ..         ",
" ..  ..                          ..  ..           ",
" ..  ..                          ..  ..           ",
" ..  ..                          ..  ..           ",
" ..  ..                          ..  ..           ",
"                                                  ",
"                                                  ",
"                                                  ",
"                                                  ",
"                                                  ",
"                                                  ",
"               XXXXoo                             ",
"               XXXXoo                             ",
"                 XXoooo    ooXXXX                 ",
"                 XXoooo    ooXXXX                 ",
"               ....oooo  ooooXX                   ",
"               ....oooo  ooooXX                   ",
"                 ....    oooo....                 ",
"                 ....    oooo....                 ",
"                           ....                   ",
"                           ....                   ",
"                                                  ",
"                                                  ",
"                                                  ",
"                                                  "
};
