/* XPM */
static char *result[] = {
/* columns rows colors chars-per-pixel */
"50 50 178 2 ",
"   c #1C0E06",
".  c #1C0E08",
"X  c #1D0F09",
"o  c #1E0F08",
"O  c #241309",
"+  c #2C190D",
"@  c #2D1B0F",
"#  c #2A1116",
"$  c #211419",
"%  c #2F1819",
"&  c #2D1D1B",
"*  c #2A1B1D",
"=  c #2B181E",
"-  c #2A191E",
";  c #291A1E",
":  c #2B1C1D",
">  c #311F1C",
",  c #351E1C",
"<  c #28230D",
"1  c #29261D",
"2  c #2F241F",
"3  c #302115",
"4  c #3E2613",
"5  c #3B2414",
"6  c #362817",
"7  c #271820",
"8  c #271920",
"9  c #281820",
"0  c #2A1A20",
"q  c #321E22",
"w  c #321F22",
"e  c #2C2021",
"r  c #2C2C26",
"t  c #372323",
"y  c #382223",
"u  c #3D2627",
"i  c #3C2727",
"p  c #372B23",
"a  c #352F21",
"s  c #322C24",
"d  c #332C24",
"f  c #35252C",
"g  c #3B2B2F",
"h  c #393723",
"j  c #3F3134",
"k  c #511B18",
"l  c #422714",
"z  c #442A16",
"x  c #492E19",
"c  c #5D331A",
"v  c #5A311C",
"b  c #5B311C",
"n  c #62351C",
"m  c #64371E",
"M  c #402524",
"N  c #442725",
"B  c #4B2B26",
"V  c #512F28",
"C  c #55332B",
"Z  c #58362F",
"A  c #42343B",
"S  c #663E27",
"D  c #683B21",
"F  c #2B4B29",
"G  c #497703",
"H  c #40532F",
"J  c #6D432A",
"K  c #6A452D",
"L  c #72442B",
"P  c #74452E",
"I  c #77472F",
"U  c #71482D",
"Y  c #744B30",
"T  c #784F33",
"R  c #7F4C31",
"E  c #7E247A",
"W  c #82502F",
"Q  c #844F32",
"!  c #855331",
"~  c #895336",
"^  c #8C5734",
"/  c #87573B",
"(  c #8B573A",
")  c #8D5C3A",
"_  c #8D5D3C",
"`  c #9D603B",
"'  c #9A653F",
"]  c #A0623B",
"[  c #A8673D",
"{  c #AE6B3F",
"}  c #8B6144",
"|  c #926444",
" . c #946746",
".. c #9E6842",
"X. c #966F48",
"o. c #996B4A",
"O. c #9A6D4A",
"+. c #927049",
"@. c #97704B",
"#. c #997349",
"$. c #9B754C",
"%. c #A46C44",
"&. c #B26F42",
"*. c #A87B41",
"=. c #A2764D",
"-. c #A0794F",
";. c #B47246",
":. c #BC7B4E",
">. c #A17C50",
",. c #A87D52",
"<. c #AD7E52",
"1. c #BD7C51",
"2. c #877373",
"3. c #877374",
"4. c #C17E52",
"5. c #4E8400",
"6. c #74A43B",
"7. c #75A63F",
"8. c #76A63E",
"9. c #76A63F",
"0. c #77A740",
"q. c #63AE52",
"w. c #78D14A",
"e. c #AB8257",
"r. c #B0895A",
"t. c #81BA44",
"y. c #B18C66",
"u. c #AB9771",
"i. c #B79F77",
"p. c #BDA57B",
"a. c #C88354",
"s. c #CE8755",
"d. c #CD8958",
"f. c #D38B59",
"g. c #D58E5D",
"h. c #D6986C",
"j. c #CC9270",
"k. c #D09471",
"l. c #D79972",
"z. c #E1A077",
"x. c #E4A47C",
"c. c #90C652",
"v. c #9FDF5B",
"b. c #84EC50",
"n. c #ADD76F",
"m. c #C1F27A",
"M. c #912E8E",
"N. c #943291",
"B. c #A35491",
"V. c #BA61A7",
"C. c #CE76B9",
"Z. c #9A8683",
"A. c #B0A18F",
"S. c #C0AB81",
"D. c #C5B183",
"F. c #C6B48F",
"G. c #C4B59F",
"H. c #C8BBA4",
"J. c #D2C483",
"K. c #E4D28C",
"L. c #E7D892",
"P. c #EDDF95",
"I. c #CDCCB2",
"U. c #DBD9BE",
"Y. c #EEE1A0",
"T. c #DAD9D5",
"R. c #D8DBDD",
"E. c #E0DFC2",
"W. c #D9E1DE",
"Q. c #E5E6C7",
"!. c #E8E9CE",
"~. c #E4E2E3",
"^. c #EFECE4",
"/. c #F4F3E7",
"(. c #F6F6F3",
"). c #F2F7F8",
"_. c #FBFBF8",
"`. c white",
/* pixels */
"t.t.t.t.t.t.t.t.t.t.6.p /.L.D.L.S.u.< t.t.t.t.t.t.t.t.t.t.t.t.t.t.t.t.t.t.t.t.t.t.t.t.t.t.t.t.t.t.t.",
"t.t.t.t.t.t.t.t.t.t.6.p ^.D.L.D.L.u.      < 6.          < t.t.t.t.t.t.t.t.t.t.t.t.t.t.t.t.t.t.t.t.t.",
"t.t.t.t.t.t.t.t.t.t.6.p ^.D.P.L.u.% V.C.B.  6 Y.(./.L.S.u.      < t.t.t.t.t.t.t.t.t.t.t.t.t.t.t.t.t.",
"t.t.t.t.t.t.t.t.t.t.6.6 P.P.K.X.# N.C.B.6 P.P.L.S.S.u.  3 S.S.D.J.  < t.t.t.t.t.t.t.t.t.t.t.t.t.t.t.",
"t.t.t.t.t.t.t.t.t.t.t.6.6 K.,.X.# M.B.6 P.L.S.S.u.  3 D.P.L.S.D.P.L.u.  < t.t.t.t.t.t.t.t.t.t.t.t.t.",
"t.t.t.t.t.t.t.t.t.t.t.6.6 K.,.X.# E p (./.P.P.J.3 S.S.D.P.P.L.F./.L.S.S.u.< t.t.t.t.t.t.t.t.t.t.t.t.",
"t.t.t.t.t.t.t.t.t.t.t.t.6.    < 6.6 P.P.Y./.J.3 D.L.S.D.Y.(./.Y.(./.L.D.Y.T.< t.t.t.t.t.t.t.t.t.t.t.",
"t.t.t.t.t.t.t.t.t.t.t.t.6.% B.  6 P.L.S.S.u.3 S.D.P.L.D.Y.(.(.(.(.(.(.(./.J.< t.t.t.t.t.t.t.t.t.t.t.",
"t.t.t.t.t.t.t.t.t.t.t.t.6.# E 6 P.P.P.L.S.u.6 P.Y.(.(.(.(.(.(./.Y.(./.L.S.D.J.< t.t.t.t.t.t.t.t.t.5.",
"t.t.t.t.t.t.t.t.t.t.t.6.      p /.L.D.P.J.@ y.(./.Y.(./.P.Y./.L.D.P.Y.^.S.D.J.< t.t.t.t.t.t.t.t.t.5.",
"t.t.t.t.t.t.t.t.t.t.6.p /.K.X.6 Y./.L.D.J.@ y.(.^.D.P.L.D.P.P.L.S.D.P.L.S.S.u.< t.t.t.t.t.t.t.t.t.t.",
"t.t.t.t.t.t.t.t.t.t.6.p ^.p.X.6 L.D.P.L.u.@ r.P.L.D.P.L.S.D.P.L.S.S.D.L.S.S.u.< t.t.t.t.t.t.t.t.t.t.",
"t.t.t.t.t.t.t.t.t.t.6.6 L.p.X.6 P.L.i.R L @ r.L.S.S.D.L.S.S.S.S.u.3 S.S.u.    < t.t.t.t.t.t.t.t.t.t.",
"t.t.t.t.t.t.t.t.t.t.t.6.      @ r.L.i.~ a./ S.S.u.3 S.S.u.3 S.u.+ )     < t.t.t.t.t.t.t.t.t.t.t.t.t.",
"t.t.t.t.t.t.t.t.t.t.t.t.6.# E @ e.S.p.=.~ d.<.:.+ )     + )     + ...._ 1 t.t.t.t.t.t.t.t.t.t.t.t.t.",
"t.t.t.t.t.t.t.t.t.t.t.6.      @ e.S.p.=.~ :.    + ......' ! ' ! ..%.f.1.s t.t.t.t.t.t.t.t.t.t.t.t.t.",
"t.t.t.t.t.t.t.t.t.t.6.p /.K.,.X.@ e.p.X.O S ..' W ^ s.[ I N B ~ f.f.s.` s t.t.t.t.t.t.t.t.t.t.t.t.t.",
"t.t.t.t.t.t.t.t.t.t.6.p ^.S.p.X.@ e.p.X.O S %.f.s.&.s.*.b.w.8 i f.s.] M s t.t.t.t.t.t.t.t.t.t.t.t.t.",
"t.t.t.t.t.t.t.t.t.t.6.p ^.p.,.X.@ ,.,.,.X.O J s.{ &.f.h.).R.r q.f.s.` s t.t.t.t.t.t.t.t.t.t.t.t.t.t.",
"t.t.t.t.t.t.t.t.t.t.t.6.      < 6.  @ ,.X.o , V { { &.f.h.W.F H f.g.l.P s t.t.t.t.t.t.t.t.t.t.t.t.t.",
"t.t.t.t.t.t.t.t.t.t.t.t.6.% B.< t.t.6.    . $ V { &.f.f.f.f.f.f.f.f.4.M s t.t.t.t.t.t.t.t.t.t.t.t.t.",
"t.t.t.t.t.t.t.t.t.t.t.t.6.# E < t.t.t.t.t.7.8 0 B Q &.f.f.f.f.f.a.P 8 s t.t.t.t.t.t.t.t.t.t.t.t.t.t.",
"t.t.t.t.t.t.t.t.t.t.t.6.        < t.t.t.t.7.0 N N N B Q &.f.s.[ P s t.t.t.t.t.t.t.t.t.t.t.t.t.t.t.t.",
"t.t.t.t.t.t.t.t.t.t.6.p /.P.K.,.X.< t.t.7.7 9 9 q R I N N N N N M 8 s t.t.t.t.t.t.t.t.t.t.t.t.t.t.t.",
"t.t.t.t.t.t.t.5.5.t.6.p (.^.S.p.X.< t.7.t ;.j.j I.y { { [ R R P 9 7 s t.t.t.t.5.5.t.t.t.t.t.t.t.t.t.",
"t.t.t.t.t.t.t.5.5.t.6.6 L.S.p.,.X.< 7.0 Z x.z.1.j I.y { { [ R P j I.9 d t.t.t.5.5.t.t.t.t.t.t.t.t.t.",
"t.5.5.t.t.5.5.t.t.t.t.6.        < t.7.w ~ f.f.s.` j I.u f.f.s.{ ` j U.3.d 5.5.t.t.t.t.t.t.t.t.t.t.t.",
"t.5.5.t.t.5.5.t.t.t.t.t.6.% B.< t.t.7.t { { { [ ~ 1.A ~.9 u f.f.1.A `.~.d 5.5.t.t.t.t.t.t.t.t.t.t.t.",
"t.5.5.t.t.5.5.t.t.t.t.t.6.# E < t.7.0 V { [ I B P j !.`._.I.9 9 A `._.I.d 5.5.t.t.t.t.t.t.t.t.t.t.t.",
"t.5.5.t.t.5.5.t.t.t.t.6.        < 7.w Q { ] M 9 g H.!.`.`._.Q.Q.Q.Q.E.A.d 5.5.t.t.t.t.t.t.t.t.t.t.t.",
"t.t.t.t.t.t.t.t.t.t.t.6.6 P.K.,.X.X t { [ P 7 g G.G.H.Q.Q.Q.E.G.G.G.A.d t.t.t.t.t.t.t.t.t.t.t.t.t.t.",
"t.t.t.t.t.t.t.t.t.t.6.p /.P.L.p.@.w Q ;.k.M 7 g A.g G.G.G.G.G.G.A.9 d t.t.t.t.t.t.t.t.t.t.t.t.t.t.t.",
"t.t.t.t.t.t.t.t.t.t.6.p (./.L.p.@.t ;.z.4.M 7 g G.A.9 9 g H.Q.Q.E.A.d t.t.t.t.t.t.t.t.t.t.t.t.t.t.t.",
"t.t.t.t.t.t.t.t.t.t.6.6 Y.^.S.p.@.i g.z.s.` 7 f Z.G.G.H.Q.Q.Q.Q.E.A.d t.t.t.t.t.t.t.t.t.t.t.t.t.t.t.",
"t.t.t.t.t.t.t.t.t.t.6.3 u.3 p.,.@.i f.f.s.[ P 7 9 9 g G.G.H.Q.Q.I.9 7 s t.t.t.t.t.t.t.t.t.t.t.t.t.t.",
"t.t.t.t.t.t.t.t.t.t.t.6.< 6.    X w ( z.4.N M ; l n v 9 9 9 9 9 - 5 * s t.t.t.t.t.t.t.t.t.t.t.t.t.t.",
"t.t.t.t.t.t.t.t.t.t.t.t.t.t.t.m.n.0 C f.f.4.M ; l n n n c 4 4 4 z K * s t.t.t.t.t.t.t.t.t.t.t.t.t.t.",
"t.t.t.t.t.t.t.t.t.t.t.t.t.t.t.m.m.n.w ~ f.f.1.= k Y Y U n m Y T o.| v s t.t.t.t.t.t.t.t.t.t.t.t.t.t.",
"t.t.t.t.t.t.t.t.t.t.t.t.t.t.t.t.t.m.n.8 8 8 = k Y T o.o.o.o.o.o.O.$.K a t.t.t.t.t.t.t.t.t.t.t.t.t.t.",
"t.t.t.t.t.t.t.t.t.t.t.t.t.t.t.t.t.m.m.v.c.& z Y T o.o.O.-.o.o.o.O.-.} a t.t.t.t.t.t.t.t.t.t.t.t.t.t.",
"t.t.t.t.t.t.t.t.t.t.t.t.t.t.t.5.5.5.5.v.c.> m T o.o.o.O.-.o.o.o.O.-.| b a t.t.t.t.t.t.t.t.t.t.t.t.t.",
"t.t.t.t.t.t.t.t.t.t.t.t.t.t.t.5.5.5.5.v.c.> D o.o.o.O.>.-.o.o.o.O.-. .K a t.t.t.t.t.t.t.t.t.t.t.t.t.",
"t.t.t.t.t.t.t.t.t.t.t.t.t.t.t.t.t.5.5.G & x o.o.o.o.O.-.o.o. .T o.O.-.} a t.t.t.t.t.t.t.t.t.t.t.t.t.",
"t.t.t.t.t.t.t.t.t.t.t.t.t.t.t.t.t.5.5.G > D o.o.o.o.O.-.o.o.o.o.o.O.>.#.b a t.t.t.t.t.t.t.t.t.t.t.t.",
"t.t.t.t.t.t.t.t.t.t.t.t.t.t.t.t.t.t.8.& z T o. .T o.o.o.o.o. .T o.o.O.$.K a t.t.t.t.t.t.t.t.t.t.t.t.",
"t.t.t.t.t.t.t.t.t.t.t.t.t.t.t.t.t.t.8.& z T  .T o.O.-.o.o.o. .Y T o.O.-.} a t.t.t.t.t.t.t.t.t.t.t.t.",
"t.t.t.t.t.t.t.t.t.t.t.t.t.t.t.t.t.t.8.> m T  .T O.>.-.o.o. .Y Y T o.O.>.+.a t.t.t.t.t.t.t.t.t.t.t.t.",
"t.t.t.t.t.t.t.t.t.t.t.t.t.t.t.t.t.t.t.8.: : > n D O.>.-.o. .Y Y T o.o.o.} a t.t.t.t.t.t.t.t.t.t.t.t.",
"t.t.t.t.t.t.t.t.t.t.t.t.t.t.t.t.t.t.t.t.9.f 2.: : > n D o. .Y T o.o.} : a t.t.t.t.t.t.t.t.t.t.t.t.t.",
"t.t.t.t.t.t.t.t.t.t.t.t.t.t.t.t.t.t.t.t.t.0.e e e e 2 2 2 2 2 2 2 2 h t.t.t.t.t.t.t.t.t.t.t.t.t.t.t."
};
