/* XPM */
static char *result[] = {
/* columns rows colors chars-per-pixel */
"50 50 143 2 ",
"   c #090A02",
".  c #0C0F02",
"X  c #140601",
"o  c #091904",
"O  c #121A01",
"+  c #220D04",
"@  c #3E0500",
"#  c #370A02",
"$  c #2A1206",
"%  c #2B1906",
"&  c #331405",
"*  c #321C07",
"=  c #3C1D0A",
"-  c #042200",
";  c #082000",
":  c #012F00",
">  c #1A250E",
",  c #1E2B0F",
"<  c #1C3201",
"1  c #1E2C10",
"2  c #242400",
"3  c #2A220C",
"4  c #38230A",
"5  c #3B3209",
"6  c #2E2515",
"7  c #273210",
"8  c #273814",
"9  c #2B3915",
"0  c #323E16",
"q  c #393D16",
"w  c #3A381E",
"e  c #430000",
"r  c #4E0000",
"t  c #531106",
"y  c #690400",
"u  c #6B0F05",
"i  c #730000",
"p  c #741708",
"a  c #7D1708",
"s  c #58260E",
"d  c #4B3807",
"f  c #4F3212",
"g  c #513914",
"h  c #61280E",
"j  c #6C340E",
"k  c #72390F",
"l  c #4B2F26",
"z  c #643026",
"x  c #0F5107",
"c  c #045801",
"v  c #2C5903",
"b  c #2A4216",
"n  c #31471A",
"m  c #324F18",
"M  c #0E6C00",
"N  c #3A6200",
"B  c #366B02",
"V  c #57490A",
"C  c #434D1C",
"Z  c #4A551A",
"A  c #54571F",
"S  c #7B450E",
"D  c #437100",
"F  c #497C00",
"G  c #456D1C",
"H  c #415D22",
"J  c #466424",
"K  c #4D6F28",
"L  c #526826",
"P  c #4F7129",
"I  c #507027",
"U  c #53732A",
"Y  c #5B772B",
"T  c #567C2D",
"R  c #5E7E2E",
"E  c #870700",
"W  c #8B0903",
"Q  c #910502",
"!  c #9F0301",
"~  c #930A03",
"^  c #A30301",
"/  c #B60100",
"(  c #B90000",
")  c #AE1D18",
"_  c #C40000",
"`  c #CF0000",
"'  c #D10201",
"]  c #DA0000",
"[  c #E50100",
"{  c #EA0100",
"}  c #F20000",
"|  c #FE0000",
" . c #FD0907",
".. c #F90C0A",
"X. c #F71914",
"o. c #F61E19",
"O. c #F5231C",
"+. c #C32E25",
"@. c #F2372D",
"#. c #F63C32",
"$. c #8A630A",
"%. c #F54538",
"&. c #F4473A",
"*. c #A56C55",
"=. c #EF5D4B",
"-. c #F25848",
";. c #D97761",
":. c #048200",
">. c #0E8900",
",. c #1D8700",
"<. c #1A9B00",
"1. c #278E00",
"2. c #24A600",
"3. c #33B500",
"4. c #4E8400",
"5. c #42B800",
"6. c #56B400",
"7. c #5F812F",
"8. c #5C8430",
"9. c #5E8831",
"0. c #628D33",
"q. c #659235",
"w. c #699937",
"e. c #6E9E3A",
"r. c #6FA13A",
"t. c #70A23B",
"y. c #76AB3E",
"u. c #56D500",
"i. c #6BD600",
"p. c #6BDF00",
"a. c #6CE700",
"s. c #74E600",
"d. c #76F100",
"f. c #79AF40",
"g. c #7CB441",
"h. c #7FB843",
"j. c #81BA44",
"k. c #D2866D",
"l. c #E48168",
"z. c #EC826A",
"x. c #E99579",
"c. c #9FDF5B",
"v. c #C1F27A",
/* pixels */
"j.j.j.j.j.j.j.j.j.j.j.j.j.j.j.j.j.j.j.j.j.j.j.j.j.j.j.j.j.j.j.j.j.j.j.j.j.j.j.j.j.j.j.j.j.j.j.j.j.j.",
"j.j.j.j.j.j.j.j.j.j.j.j.j.j.j.j.j.j.j.j.j.j.j.j.j.j.j.j.j.j.j.j.j.j.j.j.j.j.j.j.j.j.j.j.j.j.j.j.j.j.",
"j.j.j.j.j.j.j.j.j.j.j.j.j.j.j.j.j.j.j.j.j.j.j.j.j.j.j.j.j.j.j.j.j.j.j.j.j.j.j.j.j.j.j.j.j.j.j.j.j.j.",
"j.j.j.j.j.j.j.j.j.j.j.j.j.j.j.j.j.j.j.j.j.j.j.j.j.j.j.j.j.j.j.j.j.j.j.j.j.j.j.j.j.j.j.j.j.j.j.j.j.j.",
"j.j.j.j.j.j.j.j.j.j.j.j.j.j.j.j.j.j.j.j.j.j.j.j.j.j.j.j.j.j.j.j.j.j.j.j.j.j.j.j.j.j.j.j.j.j.j.j.j.j.",
"j.j.j.j.j.j.j.j.j.j.j.j.j.j.j.j.j.j.j.j.j.j.j.j.j.j.j.j.j.j.j.j.j.j.j.j.j.j.j.j.j.j.j.j.j.j.j.j.j.j.",
"j.j.j.j.j.j.j.j.j.j.j.j.j.j.j.j.j.j.j.j.j.j.j.j.j.j.j.j.j.j.j.j.j.j.j.j.j.j.j.j.j.j.j.j.j.j.j.j.j.j.",
"j.j.j.j.j.j.j.j.j.j.j.j.j.j.j.j.j.j.j.j.j.j.j.j.j.j.j.j.j.j.j.j.j.j.j.j.j.j.j.j.j.j.j.j.j.j.j.j.j.j.",
"j.j.j.j.j.j.j.j.j.j.j.j.j.j.j.j.j.4.4.j.j.j.j.j.j.j.j.j.j.j.j.j.j.j.j.j.j.j.j.j.j.j.j.j.j.j.j.j.j.4.",
"j.j.j.j.j.j.j.j.j.j.j.j.j.j.j.j.j.4.4.j.j.j.j.j.j.j.j.j.j.j.j.j.j.j.j.j.j.j.j.j.j.j.j.j.j.j.j.j.j.4.",
"j.j.j.j.j.j.j.j.j.j.j.j.j.j.j.j.j.j.j.4.4.j.j.4.4.j.j.j.j.j.j.j.j.j.j.j.j.j.j.j.j.j.j.j.j.j.j.j.j.j.",
"j.j.j.j.j.j.j.j.j.j.j.j.j.j.j.j.j.j.j.4.4.j.j.4.4.j.j.j.j.j.j.j.j.j.j.j.j.j.j.j.j.j.j.j.j.j.j.j.j.j.",
"j.j.j.j.j.j.j.j.j.j.j.j.j.j.j.j.j.j.j.4.4.h.j.4.4.j.j.j.j.j.j.j.j.j.j.j.j.j.j.j.j.j.j.j.j.j.j.j.j.j.",
"j.j.j.j.j.j.j.j.j.j.j.j.j.j.j.j.j.j.j.4.4.h.j.4.4.j.j.j.j.j.j.j.j.j.j.j.j.j.j.j.j.j.j.j.j.j.j.j.j.j.",
"j.j.j.j.j.j.j.j.j.j.j.j.j.j.j.j.j.j.j.j.j.g.e.y.j.j.j.j.j.j.j.j.j.j.j.j.j.j.j.j.j.j.j.j.j.j.j.j.j.j.",
"j.j.j.j.j.j.j.j.j.j.j.j.j.j.j.j.j.j.j.j.h.0.9 U g.j.j.j.j.j.j.j.j.j.j.j.j.j.j.j.j.j.j.j.j.j.j.j.j.j.",
"j.j.j.j.j.j.j.j.j.j.j.j.j.j.j.j.j.j.j.g.T Z V Z I y.j.j.j.j.j.j.j.j.j.j.j.j.j.j.j.j.j.j.j.j.j.j.j.j.",
"j.j.j.j.j.j.j.j.j.j.j.j.j.j.j.j.j.j.h.g.n 5 $.d 7 7.t.t.t.t.y.y.h.h.j.j.j.j.j.j.j.j.j.j.j.j.j.j.j.j.",
"j.j.j.j.j.j.j.j.j.j.j.j.j.j.j.j.j.j.h.g.n * S 4 . > , , , , 8 0.h.h.j.h.j.j.j.j.j.j.j.j.j.j.j.j.j.j.",
"j.j.j.j.j.j.j.j.j.j.j.j.j.j.j.j.j.h.e.P > % k = O v B B B B B G 9.g.j.h.j.j.j.j.j.j.j.j.j.j.j.j.j.j.",
"j.j.j.j.j.j.j.j.j.j.j.j.j.j.j.j.h.g.Y 3 X & j * < 6.p.a.s.d.i.v m w.h.h.j.j.j.j.j.j.j.j.j.j.j.j.j.j.",
"j.j.j.j.j.j.j.j.j.j.j.j.j.j.j.j.f.H s ^ / W #   ; ,.2.3.a.d.d.1.x b 9.g.j.j.j.j.j.j.j.j.j.j.j.j.j.j.",
"j.j.j.j.j.j.j.j.j.j.j.j.j.j.j.r.Y s ~ [ o.+.z l w x c M 5.u.u.<.c ; P g.j.j.j.j.j.j.j.j.j.j.j.j.j.j.",
"j.j.j.j.j.j.j.j.j.j.j.j.j.j.j.K 3 ^ { ..-.l.k.k.*.6 . ; M >.>.:.c o P g.j.j.j.j.j.j.j.j.j.j.j.j.j.j.",
"j.j.j.j.j.j.j.4.4.j.j.j.j.j.j.J $ ( O.-.z.x.x.x.;.) ! E 2 : : : -   P f.h.h.j.4.4.j.j.j.j.j.j.j.j.j.",
"j.j.j.j.j.j.j.4.4.j.j.j.j.j.j.J $ ( @.z.x.x.x.z.=.X.} ] y @ # X . 1 8.g.j.j.j.4.4.j.j.j.j.j.j.j.j.j.",
"j.4.4.j.j.4.4.j.j.j.j.j.j.j.j.J $ ( @.z.x.x.x.&.X.| | | ] ] _ e 9 N F j.j.4.4.j.j.j.j.j.j.j.j.j.j.j.",
"j.4.4.j.j.4.4.j.j.j.j.j.j.j.j.J $ / X.#.%.&.%.o.| | | | | | [ r 0 D 4.j.j.4.4.j.j.j.j.j.j.j.j.j.j.j.",
"j.4.4.j.j.4.4.j.j.j.j.j.j.j.h.J $ / |  . . . .| | | | | | | { r 0 D 4.j.j.4.4.j.j.j.j.j.j.j.j.j.j.j.",
"j.4.4.j.j.4.4.j.j.j.j.j.j.j.j.J $ ( } | | | | | | | | | | | [ r 0 D 4.j.j.4.4.j.j.j.j.j.j.j.j.j.j.j.",
"j.j.j.j.j.j.j.j.j.j.j.j.j.j.j.0.Z p / } | | | | | | | | | ` Q g U y.j.j.j.j.j.j.j.j.j.j.j.j.j.j.j.j.",
"j.j.j.j.j.j.j.j.j.j.j.j.j.j.j.g.e.q u ' } | | } { | | | { ~ = R y.h.j.j.j.j.j.j.j.j.j.j.j.j.j.j.j.j.",
"j.j.j.j.j.j.j.j.j.j.j.j.j.j.j.j.g.w.A t ( | | Q i ] | [ i g R y.j.j.j.j.j.j.j.j.j.j.j.j.j.j.j.j.j.j.",
"j.j.j.j.j.j.j.j.j.j.j.j.j.j.j.j.j.j.0.C a ! ^ h f W ^ ~ f U y.j.j.j.j.j.j.j.j.j.j.j.j.j.j.j.j.j.j.j.",
"j.j.j.j.j.j.j.j.j.j.j.j.j.j.j.j.j.j.g.e.q $ + L 8.6 + % R f.h.j.j.j.j.j.j.j.j.j.j.j.j.j.j.j.j.j.j.j.",
"j.j.j.j.j.j.j.j.j.j.j.j.j.j.j.j.j.j.j.g.q.T T r.y.9.T 8.y.j.j.j.j.j.j.j.j.j.j.j.j.j.j.j.j.j.j.j.j.j.",
"j.j.j.j.j.j.j.j.j.j.j.j.j.j.j.v.v.v.v.c.c.g.g.j.j.g.g.g.h.j.j.j.j.j.j.j.j.j.j.j.j.j.j.j.j.j.j.j.j.j.",
"j.j.j.j.j.j.j.j.j.j.j.j.j.j.j.v.v.v.v.c.c.j.j.j.j.j.j.j.j.j.j.j.j.j.j.j.j.j.j.j.j.j.j.j.j.j.j.j.j.j.",
"j.j.j.j.j.j.j.j.j.j.j.j.j.j.j.j.j.v.v.c.c.c.c.j.j.j.j.c.c.v.v.v.v.j.j.j.j.j.j.j.j.j.j.j.j.j.j.j.j.j.",
"j.j.j.j.j.j.j.j.j.j.j.j.j.j.j.j.j.v.v.c.c.c.c.j.j.j.j.c.c.v.v.v.v.j.j.j.j.j.j.j.j.j.j.j.j.j.j.j.j.j.",
"j.j.j.j.j.j.j.j.j.j.j.j.j.j.j.4.4.4.4.c.c.c.c.j.j.c.c.c.c.v.v.j.j.j.j.j.j.j.j.j.j.j.j.j.j.j.j.j.j.j.",
"j.j.j.j.j.j.j.j.j.j.j.j.j.j.j.4.4.4.4.c.c.c.c.j.j.c.c.c.c.v.v.j.j.j.j.j.j.j.j.j.j.j.j.j.j.j.j.j.j.j.",
"j.j.j.j.j.j.j.j.j.j.j.j.j.j.j.j.j.4.4.4.4.j.j.j.j.c.c.c.c.4.4.4.4.j.j.j.j.j.j.j.j.j.j.j.j.j.j.j.j.j.",
"j.j.j.j.j.j.j.j.j.j.j.j.j.j.j.j.j.4.4.4.4.j.j.j.j.c.c.c.c.4.4.4.4.j.j.j.j.j.j.j.j.j.j.j.j.j.j.j.j.j.",
"j.j.j.j.j.j.j.j.j.j.j.j.j.j.j.j.j.j.j.j.j.j.j.j.j.j.j.4.4.4.4.j.j.j.j.j.j.j.j.j.j.j.j.j.j.j.j.j.j.j.",
"j.j.j.j.j.j.j.j.j.j.j.j.j.j.j.j.j.j.j.j.j.j.j.j.j.j.j.4.4.4.4.j.j.j.j.j.j.j.j.j.j.j.j.j.j.j.j.j.j.j.",
"j.j.j.j.j.j.j.j.j.j.j.j.j.j.j.j.j.j.j.j.j.j.j.j.j.j.j.j.j.j.j.j.j.j.j.j.j.j.j.j.j.j.j.j.j.j.j.j.j.j.",
"j.j.j.j.j.j.j.j.j.j.j.j.j.j.j.j.j.j.j.j.j.j.j.j.j.j.j.j.j.j.j.j.j.j.j.j.j.j.j.j.j.j.j.j.j.j.j.j.j.j.",
"j.j.j.j.j.j.j.j.j.j.j.j.j.j.j.j.j.j.j.j.j.j.j.j.j.j.j.j.j.j.j.j.j.j.j.j.j.j.j.j.j.j.j.j.j.j.j.j.j.j.",
"j.j.j.j.j.j.j.j.j.j.j.j.j.j.j.j.j.j.j.j.j.j.j.j.j.j.j.j.j.j.j.j.j.j.j.j.j.j.j.j.j.j.j.j.j.j.j.j.j.j."
};
