<svg width="867" height="174" viewBox="0 0 867 174" fill="none" xmlns="http://www.w3.org/2000/svg">
<g filter="url(#filter0_d_78_57)">
<g filter="url(#filter1_i_78_57)">
<path d="M823.504 160H43.4965C23.3494 160 7 140.105 7 115.59V45.4104C7 20.8946 23.3494 1 43.4965 1H823.504C843.651 1 860 20.8946 860 45.4104V115.59C860 140.184 843.651 160 823.504 160Z" fill="white"/>
</g>
<path d="M266.607 95.155C266.607 94.3467 266.483 93.6212 266.234 92.9787C266.006 92.3155 265.571 91.7144 264.928 91.1755C264.286 90.6159 263.384 90.0667 262.224 89.5278C261.063 88.9889 259.56 88.4293 257.716 87.849C255.664 87.1857 253.716 86.4396 251.871 85.6106C250.047 84.7815 248.43 83.8177 247.021 82.7193C245.632 81.6 244.534 80.3046 243.726 78.8331C242.938 77.3615 242.544 75.6516 242.544 73.7034C242.544 71.8173 242.959 70.1074 243.788 68.5736C244.617 67.0192 245.777 65.6927 247.27 64.5942C248.762 63.475 250.524 62.6148 252.555 62.0138C254.607 61.4127 256.856 61.1122 259.301 61.1122C262.638 61.1122 265.55 61.7132 268.037 62.9154C270.525 64.1175 272.452 65.7652 273.82 67.8586C275.209 69.9519 275.903 72.3458 275.903 75.0402H266.638C266.638 73.7137 266.359 72.553 265.799 71.5582C265.26 70.5426 264.431 69.7446 263.312 69.1643C262.213 68.584 260.825 68.2938 259.146 68.2938C257.529 68.2938 256.182 68.5425 255.104 69.04C254.026 69.5167 253.218 70.1695 252.679 70.9986C252.14 71.8069 251.871 72.7189 251.871 73.7344C251.871 74.5013 252.058 75.1956 252.431 75.8174C252.824 76.4392 253.405 77.0195 254.172 77.5584C254.938 78.0973 255.881 78.6051 257.001 79.0818C258.12 79.5585 259.415 80.0248 260.887 80.4808C263.353 81.227 265.519 82.0664 267.385 82.9991C269.271 83.9317 270.846 84.9784 272.11 86.1391C273.374 87.2997 274.328 88.6159 274.97 90.0874C275.613 91.559 275.934 93.2274 275.934 95.0928C275.934 97.0618 275.551 98.8235 274.784 100.378C274.017 101.932 272.908 103.249 271.457 104.326C270.006 105.404 268.276 106.223 266.265 106.782C264.255 107.342 262.006 107.622 259.519 107.622C257.281 107.622 255.073 107.332 252.897 106.751C250.721 106.15 248.741 105.249 246.959 104.047C245.197 102.844 243.788 101.311 242.731 99.4453C241.674 97.5799 241.145 95.3726 241.145 92.8233H250.503C250.503 94.2327 250.721 95.4244 251.156 96.3985C251.591 97.3727 252.203 98.1603 252.99 98.7613C253.799 99.3624 254.752 99.7976 255.85 100.067C256.97 100.337 258.192 100.471 259.519 100.471C261.136 100.471 262.462 100.243 263.498 99.7873C264.555 99.3313 265.333 98.6992 265.83 97.8908C266.348 97.0825 266.607 96.1706 266.607 95.155ZM291.168 73.3614V107H282.183V73.3614H291.168ZM281.623 64.5942C281.623 63.2884 282.079 62.2107 282.991 61.3609C283.903 60.5111 285.126 60.0862 286.66 60.0862C288.173 60.0862 289.385 60.5111 290.297 61.3609C291.23 62.2107 291.696 63.2884 291.696 64.5942C291.696 65.8999 291.23 66.9777 290.297 67.8275C289.385 68.6772 288.173 69.1021 286.66 69.1021C285.126 69.1021 283.903 68.6772 282.991 67.8275C282.079 66.9777 281.623 65.8999 281.623 64.5942ZM319.863 73.3614H327.978V105.881C327.978 108.948 327.294 111.549 325.926 113.684C324.578 115.84 322.692 117.467 320.267 118.565C317.842 119.684 315.024 120.244 311.811 120.244C310.402 120.244 308.909 120.058 307.334 119.684C305.78 119.311 304.288 118.731 302.857 117.943C301.448 117.156 300.267 116.161 299.313 114.959L303.262 109.674C304.298 110.876 305.5 111.808 306.868 112.472C308.236 113.156 309.749 113.498 311.407 113.498C313.024 113.498 314.392 113.197 315.511 112.596C316.63 112.016 317.49 111.156 318.091 110.016C318.692 108.896 318.993 107.539 318.993 105.943V81.1337L319.863 73.3614ZM297.23 90.5848V89.932C297.23 87.3619 297.541 85.0302 298.163 82.9369C298.805 80.8228 299.707 79.0093 300.868 77.4962C302.049 75.9832 303.479 74.8122 305.158 73.9832C306.837 73.1541 308.733 72.7396 310.847 72.7396C313.086 72.7396 314.962 73.1541 316.475 73.9832C317.988 74.8122 319.231 75.9936 320.205 77.5273C321.179 79.0404 321.936 80.8332 322.475 82.9058C323.034 84.9577 323.47 87.2065 323.781 89.6522V91.0823C323.47 93.4243 323.003 95.6006 322.382 97.611C321.76 99.6215 320.941 101.383 319.925 102.896C318.91 104.388 317.646 105.549 316.133 106.378C314.64 107.207 312.858 107.622 310.785 107.622C308.713 107.622 306.837 107.197 305.158 106.347C303.5 105.497 302.08 104.306 300.899 102.772C299.717 101.238 298.805 99.4349 298.163 97.3623C297.541 95.2897 297.23 93.0305 297.23 90.5848ZM306.184 89.932V90.5848C306.184 91.9735 306.319 93.2689 306.588 94.471C306.858 95.6731 307.272 96.7405 307.832 97.6732C308.412 98.5852 309.127 99.3002 309.977 99.8184C310.847 100.316 311.873 100.565 313.055 100.565C314.692 100.565 316.029 100.223 317.065 99.5386C318.102 98.8339 318.879 97.8701 319.397 96.6473C319.915 95.4244 320.216 94.015 320.299 92.4191V88.3464C320.257 87.0407 320.081 85.8696 319.77 84.8333C319.459 83.7763 319.024 82.8747 318.464 82.1286C317.905 81.3824 317.179 80.8021 316.288 80.3876C315.397 79.973 314.34 79.7658 313.117 79.7658C311.936 79.7658 310.91 80.0352 310.039 80.5741C309.189 81.0922 308.474 81.8073 307.894 82.7193C307.334 83.6312 306.909 84.709 306.619 85.9525C306.329 87.1754 306.184 88.5019 306.184 89.932ZM343.709 80.543V107H334.755V73.3614H343.149L343.709 80.543ZM342.403 88.9993H339.978C339.978 86.5121 340.299 84.2737 340.942 82.284C341.584 80.2736 342.486 78.5636 343.647 77.1543C344.807 75.7242 346.186 74.636 347.781 73.8899C349.398 73.123 351.201 72.7396 353.191 72.7396C354.766 72.7396 356.207 72.9676 357.512 73.4235C358.818 73.8795 359.937 74.6049 360.87 75.5998C361.823 76.5947 362.549 77.9108 363.046 79.5481C363.564 81.1855 363.824 83.1856 363.824 85.5484V107H354.808V85.5173C354.808 84.025 354.6 82.8643 354.186 82.0353C353.771 81.2062 353.16 80.6259 352.352 80.2943C351.564 79.9419 350.59 79.7658 349.429 79.7658C348.227 79.7658 347.18 80.0041 346.289 80.4808C345.419 80.9575 344.693 81.6208 344.113 82.4705C343.553 83.2996 343.128 84.2737 342.838 85.3929C342.548 86.5121 342.403 87.7143 342.403 88.9993ZM395.939 73.3614V107H386.954V73.3614H395.939ZM386.394 64.5942C386.394 63.2884 386.85 62.2107 387.762 61.3609C388.674 60.5111 389.897 60.0862 391.431 60.0862C392.944 60.0862 394.156 60.5111 395.068 61.3609C396.001 62.2107 396.467 63.2884 396.467 64.5942C396.467 65.8999 396.001 66.9777 395.068 67.8275C394.156 68.6772 392.944 69.1021 391.431 69.1021C389.897 69.1021 388.674 68.6772 387.762 67.8275C386.85 66.9777 386.394 65.8999 386.394 64.5942ZM412.105 80.543V107H403.152V73.3614H411.546L412.105 80.543ZM410.799 88.9993H408.375C408.375 86.5121 408.696 84.2737 409.338 82.284C409.981 80.2736 410.882 78.5636 412.043 77.1543C413.204 75.7242 414.582 74.636 416.178 73.8899C417.795 73.123 419.598 72.7396 421.587 72.7396C423.163 72.7396 424.603 72.9676 425.909 73.4235C427.215 73.8795 428.334 74.6049 429.267 75.5998C430.22 76.5947 430.945 77.9108 431.443 79.5481C431.961 81.1855 432.22 83.1856 432.22 85.5484V107H423.204V85.5173C423.204 84.025 422.997 82.8643 422.582 82.0353C422.168 81.2062 421.556 80.6259 420.748 80.2943C419.96 79.9419 418.986 79.7658 417.826 79.7658C416.624 79.7658 415.577 80.0041 414.686 80.4808C413.815 80.9575 413.09 81.6208 412.509 82.4705C411.95 83.2996 411.525 84.2737 411.235 85.3929C410.945 86.5121 410.799 87.7143 410.799 88.9993ZM464.491 98.295L471.486 73.3614H477.175L475.341 83.1545L468.346 107H463.589L464.491 98.295ZM460.947 73.3614L465.952 98.2639L466.418 107H460.822L452.304 73.3614H460.947ZM483.58 97.8597L488.461 73.3614H497.134L488.616 107H483.051L483.58 97.8597ZM477.952 73.3614L484.916 98.1085L485.88 107H481.092L474.097 83.1856L472.325 73.3614H477.952ZM511.094 73.3614V107H502.109V73.3614H511.094ZM501.549 64.5942C501.549 63.2884 502.005 62.2107 502.917 61.3609C503.829 60.5111 505.052 60.0862 506.586 60.0862C508.099 60.0862 509.311 60.5111 510.223 61.3609C511.156 62.2107 511.622 63.2884 511.622 64.5942C511.622 65.8999 511.156 66.9777 510.223 67.8275C509.311 68.6772 508.099 69.1021 506.586 69.1021C505.052 69.1021 503.829 68.6772 502.917 67.8275C502.005 66.9777 501.549 65.8999 501.549 64.5942ZM534.97 73.3614V79.7036H515.384V73.3614H534.97ZM520.234 65.0605H529.188V96.8649C529.188 97.839 529.312 98.5852 529.561 99.1033C529.83 99.6215 530.224 99.9842 530.742 100.191C531.26 100.378 531.913 100.471 532.701 100.471C533.26 100.471 533.758 100.451 534.193 100.409C534.649 100.347 535.032 100.285 535.343 100.223L535.374 106.813C534.607 107.062 533.778 107.259 532.887 107.404C531.996 107.549 531.011 107.622 529.934 107.622C527.965 107.622 526.244 107.301 524.773 106.658C523.322 105.995 522.203 104.938 521.415 103.487C520.628 102.036 520.234 100.129 520.234 97.7665V65.0605ZM548.805 59.2468V107H539.851V59.2468H548.805ZM547.53 88.9993H545.074C545.095 86.6572 545.406 84.5017 546.007 82.5327C546.608 80.543 547.468 78.8227 548.587 77.3719C549.707 75.9003 551.043 74.7604 552.598 73.9521C554.173 73.1437 555.914 72.7396 557.821 72.7396C559.479 72.7396 560.982 72.9779 562.329 73.4546C563.697 73.9106 564.868 74.6568 565.842 75.6931C566.837 76.7087 567.604 78.0455 568.142 79.7036C568.681 81.3617 568.951 83.3721 568.951 85.7349V107H559.935V85.6727C559.935 84.1804 559.717 83.0094 559.282 82.1596C558.867 81.2891 558.256 80.6777 557.448 80.3254C556.66 79.9523 555.686 79.7658 554.525 79.7658C553.24 79.7658 552.142 80.0041 551.23 80.4808C550.339 80.9575 549.624 81.6208 549.085 82.4705C548.546 83.2996 548.152 84.2737 547.903 85.3929C547.655 86.5121 547.53 87.7143 547.53 88.9993ZM628.052 83.341V101.28C627.347 102.129 626.259 103.052 624.787 104.047C623.316 105.021 621.419 105.86 619.098 106.565C616.777 107.269 613.968 107.622 610.673 107.622C607.75 107.622 605.087 107.145 602.683 106.192C600.278 105.218 598.206 103.798 596.465 101.932C594.745 100.067 593.418 97.7872 592.485 95.0928C591.553 92.3777 591.086 89.2791 591.086 85.7971V82.968C591.086 79.486 591.532 76.3874 592.423 73.6723C593.335 70.9571 594.631 68.6669 596.309 66.8015C597.988 64.9362 599.988 63.5164 602.31 62.5423C604.631 61.5682 607.211 61.0811 610.051 61.0811C613.989 61.0811 617.222 61.7236 619.751 63.0086C622.279 64.2729 624.207 66.0347 625.533 68.2938C626.881 70.5322 627.71 73.1023 628.02 76.004H618.973C618.746 74.4702 618.31 73.1334 617.668 71.9934C617.025 70.8535 616.103 69.9623 614.901 69.3198C613.719 68.6772 612.186 68.356 610.3 68.356C608.745 68.356 607.356 68.6772 606.134 69.3198C604.931 69.9415 603.916 70.8639 603.087 72.0867C602.258 73.3096 601.626 74.8226 601.19 76.6257C600.755 78.4289 600.538 80.5223 600.538 82.9058V85.7971C600.538 88.1599 600.766 90.2532 601.222 92.0771C601.677 93.8803 602.351 95.4037 603.242 96.6473C604.154 97.8701 605.273 98.7924 606.6 99.4142C607.926 100.036 609.471 100.347 611.232 100.347C612.704 100.347 613.927 100.223 614.901 99.9738C615.896 99.7251 616.694 99.4246 617.295 99.0722C617.916 98.6992 618.393 98.3468 618.725 98.0152V89.9941H610.206V83.341H628.052ZM644.467 73.3614V107H635.482V73.3614H644.467ZM634.922 64.5942C634.922 63.2884 635.378 62.2107 636.29 61.3609C637.202 60.5111 638.425 60.0862 639.959 60.0862C641.472 60.0862 642.684 60.5111 643.596 61.3609C644.529 62.2107 644.995 63.2884 644.995 64.5942C644.995 65.8999 644.529 66.9777 643.596 67.8275C642.684 68.6772 641.472 69.1021 639.959 69.1021C638.425 69.1021 637.202 68.6772 636.29 67.8275C635.378 66.9777 634.922 65.8999 634.922 64.5942ZM668.343 73.3614V79.7036H648.757V73.3614H668.343ZM653.607 65.0605H662.561V96.8649C662.561 97.839 662.685 98.5852 662.934 99.1033C663.203 99.6215 663.597 99.9842 664.115 100.191C664.633 100.378 665.286 100.471 666.074 100.471C666.633 100.471 667.131 100.451 667.566 100.409C668.022 100.347 668.405 100.285 668.716 100.223L668.747 106.813C667.981 107.062 667.152 107.259 666.26 107.404C665.369 107.549 664.385 107.622 663.307 107.622C661.338 107.622 659.618 107.301 658.146 106.658C656.695 105.995 655.576 104.938 654.788 103.487C654.001 102.036 653.607 100.129 653.607 97.7665V65.0605ZM682.178 59.2468V107H673.224V59.2468H682.178ZM680.903 88.9993H678.447C678.468 86.6572 678.779 84.5017 679.38 82.5327C679.981 80.543 680.841 78.8227 681.96 77.3719C683.08 75.9003 684.416 74.7604 685.971 73.9521C687.546 73.1437 689.287 72.7396 691.194 72.7396C692.852 72.7396 694.355 72.9779 695.702 73.4546C697.07 73.9106 698.241 74.6568 699.215 75.6931C700.21 76.7087 700.977 78.0455 701.516 79.7036C702.054 81.3617 702.324 83.3721 702.324 85.7349V107H693.308V85.6727C693.308 84.1804 693.09 83.0094 692.655 82.1596C692.241 81.2891 691.629 80.6777 690.821 80.3254C690.033 79.9523 689.059 79.7658 687.898 79.7658C686.613 79.7658 685.515 80.0041 684.603 80.4808C683.712 80.9575 682.997 81.6208 682.458 82.4705C681.919 83.2996 681.525 84.2737 681.276 85.3929C681.028 86.5121 680.903 87.7143 680.903 88.9993ZM729.03 98.9479V73.3614H737.983V107H729.558L729.03 98.9479ZM730.024 92.046L732.667 91.9839C732.667 94.2223 732.408 96.3053 731.89 98.2328C731.372 100.14 730.594 101.798 729.558 103.207C728.522 104.596 727.216 105.684 725.641 106.471C724.066 107.238 722.211 107.622 720.076 107.622C718.439 107.622 716.926 107.394 715.537 106.938C714.169 106.461 712.988 105.725 711.993 104.73C711.019 103.715 710.252 102.42 709.692 100.844C709.153 99.2484 708.884 97.3312 708.884 95.0928V73.3614H717.837V95.155C717.837 96.1498 717.951 96.9892 718.179 97.6732C718.428 98.3572 718.77 98.9168 719.205 99.352C719.641 99.7873 720.148 100.098 720.729 100.285C721.33 100.471 721.993 100.565 722.719 100.565C724.563 100.565 726.014 100.191 727.071 99.4453C728.149 98.6992 728.905 97.6836 729.341 96.3985C729.797 95.0928 730.024 93.642 730.024 92.046ZM744.823 59.2468H753.777V99.2899L752.875 107H744.823V59.2468ZM775.073 89.8387V90.4916C775.073 92.9994 774.803 95.3001 774.265 97.3934C773.746 99.4868 772.938 101.3 771.84 102.834C770.741 104.347 769.373 105.528 767.736 106.378C766.119 107.207 764.212 107.622 762.015 107.622C759.963 107.622 758.181 107.207 756.668 106.378C755.176 105.549 753.922 104.378 752.906 102.865C751.891 101.352 751.072 99.58 750.45 97.5489C749.828 95.5177 749.362 93.3 749.051 90.8957V89.4656C749.362 87.0614 749.828 84.8437 750.45 82.8125C751.072 80.7814 751.891 79.0093 752.906 77.4962C753.922 75.9832 755.176 74.8122 756.668 73.9832C758.16 73.1541 759.922 72.7396 761.953 72.7396C764.171 72.7396 766.098 73.1645 767.736 74.0142C769.394 74.8433 770.762 76.0247 771.84 77.5584C772.938 79.0714 773.746 80.8746 774.265 82.968C774.803 85.0406 775.073 87.3308 775.073 89.8387ZM766.119 90.4916V89.8387C766.119 88.4708 766.016 87.1857 765.808 85.9836C765.622 84.7608 765.29 83.6934 764.813 82.7814C764.337 81.8488 763.684 81.113 762.855 80.5741C762.046 80.0352 761 79.7658 759.715 79.7658C758.492 79.7658 757.456 79.973 756.606 80.3876C755.756 80.8021 755.051 81.3824 754.492 82.1286C753.953 82.8747 753.549 83.7659 753.279 84.8022C753.01 85.8178 752.844 86.937 752.782 88.1599V92.2326C752.844 93.8699 753.113 95.3208 753.59 96.5851C754.088 97.8287 754.834 98.8131 755.829 99.5386C756.844 100.243 758.16 100.596 759.777 100.596C761.041 100.596 762.088 100.347 762.917 99.8495C763.746 99.352 764.389 98.6473 764.845 97.7354C765.321 96.8234 765.653 95.756 765.839 94.5332C766.026 93.2896 766.119 91.9424 766.119 90.4916Z" fill="#403636"/>
<path fill-rule="evenodd" clip-rule="evenodd" d="M121.343 24C87.4987 24 60 49.8261 60 81.8055C60 107.372 77.5661 128.951 101.938 136.664C104.973 137.184 106.168 135.451 106.168 133.891C106.168 132.505 106.076 127.998 106.076 123.145C89.0622 126.611 85.3834 116.298 85.3834 116.298C82.6243 109.625 78.5777 107.805 78.5777 107.805C73.0596 104.252 79.0376 104.252 79.0376 104.252C85.1995 104.685 88.4184 110.232 88.4184 110.232C93.8445 119.071 102.766 116.471 106.26 114.998C106.812 111.272 108.376 108.758 110.123 107.285C96.5116 105.812 82.1645 100.872 82.1645 78.7722C82.1645 72.4457 84.5557 67.3325 88.5103 63.2592C87.8666 61.7859 85.7513 55.8927 89.0622 48.0061C89.0622 48.0061 94.2124 46.4462 105.892 53.8994C110.767 52.5994 116.009 51.9928 121.251 51.9928C126.493 51.9928 131.736 52.6861 136.61 53.8994C148.29 46.4462 153.44 48.0061 153.44 48.0061C156.751 55.9793 154.636 61.8726 154.084 63.2592C158.039 67.3325 160.43 72.4457 160.43 78.7722C160.43 100.958 146.083 105.812 132.471 107.285C134.679 109.105 136.61 112.572 136.61 117.945C136.61 125.658 136.518 131.898 136.518 133.804C136.518 135.364 137.622 137.184 140.749 136.578C165.12 128.951 182.595 107.285 182.595 81.8055C182.686 49.9128 155.188 24 121.343 24Z" fill="#403636"/>
<path d="M83.2681 107.025C83.1761 107.285 82.6243 107.372 82.2564 107.198C81.7966 107.025 81.5206 106.592 81.7046 106.332C81.7966 106.072 82.3484 105.985 82.7163 106.158C83.1761 106.332 83.36 106.678 83.2681 107.025Z" fill="#403636"/>
<path d="M85.7516 109.625C85.4757 109.885 84.9238 109.798 84.464 109.365C84.0961 108.932 84.0041 108.412 84.28 108.152C84.556 107.892 85.1078 107.978 85.5676 108.412C85.9355 108.758 86.0275 109.365 85.7516 109.625Z" fill="#403636"/>
<path d="M88.1425 112.918C87.7746 113.178 87.1308 112.918 86.763 112.398C86.3951 111.878 86.3951 111.272 86.763 111.012C87.1308 110.752 87.7746 111.012 88.1425 111.532C88.5104 112.052 88.5104 112.658 88.1425 112.918Z" fill="#403636"/>
<path d="M91.4534 116.125C91.0855 116.472 90.4417 116.385 89.8899 115.865C89.3381 115.432 89.2461 114.738 89.522 114.392C89.8899 114.045 90.6256 114.132 91.0855 114.652C91.6373 115.085 91.8212 115.778 91.4534 116.125Z" fill="#403636"/>
<path d="M96.0519 118.032C95.868 118.465 95.2242 118.725 94.4884 118.465C93.7527 118.292 93.3848 117.772 93.4768 117.252C93.6607 116.818 94.3045 116.558 95.0403 116.818C95.684 116.992 96.1439 117.512 96.0519 118.032Z" fill="#403636"/>
<path d="M101.018 118.378C101.018 118.811 100.466 119.245 99.7306 119.245C98.9949 119.245 98.443 118.898 98.3511 118.378C98.3511 117.858 98.9029 117.511 99.6386 117.511C100.466 117.511 101.018 117.858 101.018 118.378Z" fill="#403636"/>
<path d="M105.709 117.598C105.801 118.031 105.249 118.551 104.605 118.638C103.869 118.725 103.226 118.465 103.134 118.031C103.042 117.598 103.593 117.078 104.237 116.992C104.973 116.818 105.617 117.165 105.709 117.598Z" fill="#403636"/>
</g>
<defs>
<filter id="filter0_d_78_57" x="0" y="0.5" width="867" height="173" filterUnits="userSpaceOnUse" color-interpolation-filters="sRGB">
<feFlood flood-opacity="0" result="BackgroundImageFix"/>
<feColorMatrix in="SourceAlpha" type="matrix" values="0 0 0 0 0 0 0 0 0 0 0 0 0 0 0 0 0 0 127 0" result="hardAlpha"/>
<feOffset dy="6.5"/>
<feGaussianBlur stdDeviation="3.5"/>
<feComposite in2="hardAlpha" operator="out"/>
<feColorMatrix type="matrix" values="0 0 0 0 0.858824 0 0 0 0 0.858824 0 0 0 0 0.858824 0 0 0 1 0"/>
<feBlend mode="normal" in2="BackgroundImageFix" result="effect1_dropShadow_78_57"/>
<feBlend mode="normal" in="SourceGraphic" in2="effect1_dropShadow_78_57" result="shape"/>
</filter>
<filter id="filter1_i_78_57" x="7" y="1" width="853" height="160" filterUnits="userSpaceOnUse" color-interpolation-filters="sRGB">
<feFlood flood-opacity="0" result="BackgroundImageFix"/>
<feBlend mode="normal" in="SourceGraphic" in2="BackgroundImageFix" result="shape"/>
<feColorMatrix in="SourceAlpha" type="matrix" values="0 0 0 0 0 0 0 0 0 0 0 0 0 0 0 0 0 0 127 0" result="hardAlpha"/>
<feOffset dy="1"/>
<feGaussianBlur stdDeviation="2"/>
<feComposite in2="hardAlpha" operator="arithmetic" k2="-1" k3="1"/>
<feColorMatrix type="matrix" values="0 0 0 0 0.92549 0 0 0 0 0.92549 0 0 0 0 0.92549 0 0 0 0.87 0"/>
<feBlend mode="normal" in2="shape" result="effect1_innerShadow_78_57"/>
</filter>
</defs>
</svg>
