<svg width="867" height="174" viewBox="0 0 867 174" fill="none" xmlns="http://www.w3.org/2000/svg">
<g filter="url(#filter0_d_78_57)">
<g filter="url(#filter1_i_78_57)">
<path d="M823.504 160H43.4965C23.3494 160 7 140.105 7 115.59V45.4104C7 20.8946 23.3494 1 43.4965 1H823.504C843.651 1 860 20.8946 860 45.4104V115.59C860 140.184 843.651 160 823.504 160Z" fill="white"/>
</g>
<path d="M266.607 87.155C266.607 86.3467 266.483 85.6212 266.234 84.9787C266.006 84.3155 265.571 83.7144 264.928 83.1755C264.286 82.6159 263.384 82.0667 262.224 81.5278C261.063 80.9889 259.56 80.4293 257.716 79.849C255.664 79.1857 253.716 78.4396 251.871 77.6106C250.047 76.7815 248.43 75.8177 247.021 74.7193C245.632 73.6 244.534 72.3046 243.726 70.8331C242.938 69.3615 242.544 67.6516 242.544 65.7034C242.544 63.8173 242.959 62.1074 243.788 60.5736C244.617 59.0192 245.777 57.6927 247.27 56.5942C248.762 55.475 250.524 54.6148 252.555 54.0138C254.607 53.4127 256.856 53.1122 259.301 53.1122C262.638 53.1122 265.55 53.7132 268.037 54.9154C270.525 56.1175 272.452 57.7652 273.82 59.8586C275.209 61.9519 275.903 64.3458 275.903 67.0402H266.638C266.638 65.7137 266.359 64.553 265.799 63.5582C265.26 62.5426 264.431 61.7446 263.312 61.1643C262.213 60.584 260.825 60.2938 259.146 60.2938C257.529 60.2938 256.182 60.5425 255.104 61.04C254.026 61.5167 253.218 62.1695 252.679 62.9986C252.14 63.8069 251.871 64.7189 251.871 65.7344C251.871 66.5013 252.058 67.1956 252.431 67.8174C252.824 68.4392 253.405 69.0195 254.172 69.5584C254.938 70.0973 255.881 70.6051 257.001 71.0818C258.12 71.5585 259.415 72.0248 260.887 72.4808C263.353 73.227 265.519 74.0664 267.385 74.9991C269.271 75.9317 270.846 76.9784 272.11 78.1391C273.374 79.2997 274.328 80.6159 274.97 82.0874C275.613 83.559 275.934 85.2274 275.934 87.0928C275.934 89.0618 275.551 90.8235 274.784 92.378C274.017 93.9324 272.908 95.2486 271.457 96.3263C270.006 97.4041 268.276 98.2228 266.265 98.7824C264.255 99.342 262.006 99.6218 259.519 99.6218C257.281 99.6218 255.073 99.3316 252.897 98.7513C250.721 98.1502 248.741 97.2486 246.959 96.0465C245.197 94.8444 243.788 93.3107 242.731 91.4453C241.674 89.5799 241.145 87.3726 241.145 84.8233H250.503C250.503 86.2327 250.721 87.4244 251.156 88.3985C251.591 89.3727 252.203 90.1603 252.99 90.7613C253.799 91.3624 254.752 91.7976 255.85 92.0671C256.97 92.3365 258.192 92.4712 259.519 92.4712C261.136 92.4712 262.462 92.2433 263.498 91.7873C264.555 91.3313 265.333 90.6992 265.83 89.8908C266.348 89.0825 266.607 88.1706 266.607 87.155ZM291.168 65.3614V99H282.183V65.3614H291.168ZM281.623 56.5942C281.623 55.2884 282.079 54.2107 282.991 53.3609C283.903 52.5111 285.126 52.0862 286.66 52.0862C288.173 52.0862 289.385 52.5111 290.297 53.3609C291.23 54.2107 291.696 55.2884 291.696 56.5942C291.696 57.8999 291.23 58.9777 290.297 59.8275C289.385 60.6772 288.173 61.1021 286.66 61.1021C285.126 61.1021 283.903 60.6772 282.991 59.8275C282.079 58.9777 281.623 57.8999 281.623 56.5942ZM319.863 65.3614H327.978V97.8808C327.978 100.948 327.294 103.549 325.926 105.684C324.578 107.84 322.692 109.467 320.267 110.565C317.842 111.684 315.024 112.244 311.811 112.244C310.402 112.244 308.909 112.058 307.334 111.684C305.78 111.311 304.288 110.731 302.857 109.943C301.448 109.156 300.267 108.161 299.313 106.959L303.262 101.674C304.298 102.876 305.5 103.808 306.868 104.472C308.236 105.156 309.749 105.498 311.407 105.498C313.024 105.498 314.392 105.197 315.511 104.596C316.63 104.016 317.49 103.156 318.091 102.016C318.692 100.896 318.993 99.5389 318.993 97.943V73.1337L319.863 65.3614ZM297.23 82.5848V81.932C297.23 79.3619 297.541 77.0302 298.163 74.9369C298.805 72.8228 299.707 71.0093 300.868 69.4962C302.049 67.9832 303.479 66.8122 305.158 65.9832C306.837 65.1541 308.733 64.7396 310.847 64.7396C313.086 64.7396 314.962 65.1541 316.475 65.9832C317.988 66.8122 319.231 67.9936 320.205 69.5273C321.179 71.0404 321.936 72.8332 322.475 74.9058C323.034 76.9577 323.47 79.2065 323.781 81.6522V83.0823C323.47 85.4243 323.003 87.6006 322.382 89.611C321.76 91.6215 320.941 93.3832 319.925 94.8962C318.91 96.3885 317.646 97.5492 316.133 98.3782C314.64 99.2073 312.858 99.6218 310.785 99.6218C308.713 99.6218 306.837 99.1969 305.158 98.3471C303.5 97.4974 302.08 96.3056 300.899 94.7719C299.717 93.2381 298.805 91.4349 298.163 89.3623C297.541 87.2897 297.23 85.0305 297.23 82.5848ZM306.184 81.932V82.5848C306.184 83.9735 306.319 85.2689 306.588 86.471C306.858 87.6731 307.272 88.7405 307.832 89.6732C308.412 90.5852 309.127 91.3002 309.977 91.8184C310.847 92.3158 311.873 92.5645 313.055 92.5645C314.692 92.5645 316.029 92.2225 317.065 91.5386C318.102 90.8339 318.879 89.8701 319.397 88.6473C319.915 87.4244 320.216 86.015 320.299 84.4191V80.3464C320.257 79.0407 320.081 77.8696 319.77 76.8333C319.459 75.7763 319.024 74.8747 318.464 74.1286C317.905 73.3824 317.179 72.8021 316.288 72.3876C315.397 71.973 314.34 71.7658 313.117 71.7658C311.936 71.7658 310.91 72.0352 310.039 72.5741C309.189 73.0922 308.474 73.8073 307.894 74.7193C307.334 75.6312 306.909 76.709 306.619 77.9525C306.329 79.1754 306.184 80.5019 306.184 81.932ZM343.709 72.543V99H334.755V65.3614H343.149L343.709 72.543ZM342.403 80.9993H339.978C339.978 78.5121 340.299 76.2737 340.942 74.284C341.584 72.2736 342.486 70.5636 343.647 69.1543C344.807 67.7242 346.186 66.636 347.781 65.8899C349.398 65.123 351.201 64.7396 353.191 64.7396C354.766 64.7396 356.207 64.9676 357.512 65.4235C358.818 65.8795 359.937 66.6049 360.87 67.5998C361.823 68.5947 362.549 69.9108 363.046 71.5481C363.564 73.1855 363.824 75.1856 363.824 77.5484V99H354.808V77.5173C354.808 76.025 354.6 74.8643 354.186 74.0353C353.771 73.2062 353.16 72.6259 352.352 72.2943C351.564 71.9419 350.59 71.7658 349.429 71.7658C348.227 71.7658 347.18 72.0041 346.289 72.4808C345.419 72.9575 344.693 73.6208 344.113 74.4705C343.553 75.2996 343.128 76.2737 342.838 77.3929C342.548 78.5121 342.403 79.7143 342.403 80.9993ZM406.385 90.9479V65.3614H415.339V99H406.913L406.385 90.9479ZM407.38 84.046L410.022 83.9839C410.022 86.2223 409.763 88.3053 409.245 90.2328C408.727 92.1396 407.95 93.7977 406.913 95.2071C405.877 96.5958 404.571 97.6839 402.996 98.4715C401.421 99.2384 399.566 99.6218 397.431 99.6218C395.794 99.6218 394.281 99.3938 392.892 98.9378C391.524 98.4611 390.343 97.7253 389.348 96.7305C388.374 95.7149 387.607 94.4195 387.047 92.8443C386.508 91.2484 386.239 89.3312 386.239 87.0928V65.3614H395.193V87.155C395.193 88.1498 395.307 88.9892 395.535 89.6732C395.783 90.3572 396.125 90.9168 396.561 91.352C396.996 91.7873 397.504 92.0982 398.084 92.2847C398.685 92.4712 399.348 92.5645 400.074 92.5645C401.918 92.5645 403.369 92.1914 404.426 91.4453C405.504 90.6992 406.26 89.6836 406.696 88.3985C407.152 87.0928 407.38 85.642 407.38 84.046ZM431.132 71.8279V111.933H422.178V65.3614H430.479L431.132 71.8279ZM452.428 81.8076V82.4605C452.428 84.9062 452.138 87.1757 451.558 89.269C450.998 91.3624 450.169 93.1863 449.07 94.7408C447.972 96.2745 446.604 97.4766 444.967 98.3471C443.35 99.1969 441.485 99.6218 439.371 99.6218C437.319 99.6218 435.536 99.2073 434.023 98.3782C432.51 97.5492 431.236 96.3885 430.199 94.8962C429.184 93.3832 428.365 91.6318 427.743 89.6421C427.121 87.6524 426.645 85.5176 426.313 83.2377V81.5278C426.645 79.0821 427.121 76.8437 427.743 74.8125C428.365 72.7606 429.184 70.9885 430.199 69.4962C431.236 67.9832 432.5 66.8122 433.992 65.9832C435.505 65.1541 437.277 64.7396 439.308 64.7396C441.443 64.7396 443.319 65.1437 444.936 65.9521C446.573 66.7604 447.941 67.9211 449.039 69.4341C450.159 70.9471 450.998 72.7503 451.558 74.8436C452.138 76.937 452.428 79.2583 452.428 81.8076ZM443.443 82.4605V81.8076C443.443 80.3775 443.319 79.0614 443.07 77.8593C442.842 76.6364 442.469 75.569 441.951 74.6571C441.454 73.7451 440.79 73.0404 439.961 72.543C439.153 72.0248 438.168 71.7658 437.008 71.7658C435.785 71.7658 434.738 71.9627 433.868 72.3565C433.018 72.7503 432.324 73.3202 431.785 74.0664C431.246 74.8125 430.842 75.7037 430.572 76.7401C430.303 77.7764 430.137 78.9474 430.075 80.2531V84.5746C430.178 86.1083 430.469 87.4866 430.945 88.7094C431.422 89.9116 432.158 90.865 433.153 91.5697C434.148 92.2743 435.453 92.6267 437.07 92.6267C438.251 92.6267 439.246 92.3676 440.055 91.8495C440.863 91.3106 441.516 90.5748 442.013 89.6421C442.531 88.7094 442.894 87.6317 443.101 86.4088C443.329 85.186 443.443 83.8699 443.443 82.4605ZM483.455 90.295L490.45 65.3614H496.14L494.305 75.1545L487.31 99H482.554L483.455 90.295ZM479.911 65.3614L484.916 90.2639L485.383 99H479.787L471.268 65.3614H479.911ZM502.544 89.8597L507.425 65.3614H516.099L507.581 99H502.016L502.544 89.8597ZM496.917 65.3614L503.881 90.1085L504.845 99H500.057L493.062 75.1856L491.29 65.3614H496.917ZM530.058 65.3614V99H521.073V65.3614H530.058ZM520.514 56.5942C520.514 55.2884 520.97 54.2107 521.882 53.3609C522.794 52.5111 524.016 52.0862 525.55 52.0862C527.063 52.0862 528.276 52.5111 529.188 53.3609C530.12 54.2107 530.587 55.2884 530.587 56.5942C530.587 57.8999 530.12 58.9777 529.188 59.8275C528.276 60.6772 527.063 61.1021 525.55 61.1021C524.016 61.1021 522.794 60.6772 521.882 59.8275C520.97 58.9777 520.514 57.8999 520.514 56.5942ZM553.935 65.3614V71.7036H534.348V65.3614H553.935ZM539.198 57.0605H548.152V88.8649C548.152 89.839 548.276 90.5852 548.525 91.1033C548.795 91.6215 549.188 91.9842 549.707 92.1914C550.225 92.378 550.878 92.4712 551.665 92.4712C552.225 92.4712 552.722 92.4505 553.157 92.4091C553.613 92.3469 553.997 92.2847 554.308 92.2225L554.339 98.8135C553.572 99.0622 552.743 99.2591 551.852 99.4042C550.96 99.5492 549.976 99.6218 548.898 99.6218C546.929 99.6218 545.209 99.3005 543.737 98.658C542.287 97.9948 541.167 96.9377 540.38 95.4869C539.592 94.0361 539.198 92.1293 539.198 89.7665V57.0605ZM567.769 51.2468V99H558.816V51.2468H567.769ZM566.495 80.9993H564.039C564.059 78.6572 564.37 76.5017 564.971 74.5327C565.572 72.543 566.433 70.8227 567.552 69.3719C568.671 67.9003 570.008 66.7604 571.562 65.9521C573.137 65.1437 574.878 64.7396 576.785 64.7396C578.443 64.7396 579.946 64.9779 581.293 65.4546C582.661 65.9106 583.832 66.6568 584.806 67.6931C585.801 68.7087 586.568 70.0455 587.107 71.7036C587.646 73.3617 587.915 75.3721 587.915 77.7349V99H578.899V77.6727C578.899 76.1804 578.682 75.0094 578.246 74.1596C577.832 73.2891 577.221 72.6777 576.412 72.3254C575.625 71.9523 574.65 71.7658 573.49 71.7658C572.205 71.7658 571.106 72.0041 570.194 72.4808C569.303 72.9575 568.588 73.6208 568.049 74.4705C567.51 75.2996 567.117 76.2737 566.868 77.3929C566.619 78.5121 566.495 79.7143 566.495 80.9993ZM647.016 75.341V93.2796C646.311 94.1293 645.223 95.0517 643.752 96.0465C642.28 97.0206 640.384 97.8601 638.062 98.5647C635.741 99.2694 632.933 99.6218 629.637 99.6218C626.715 99.6218 624.051 99.1451 621.647 98.1917C619.243 97.2175 617.17 95.7978 615.429 93.9324C613.709 92.0671 612.383 89.7872 611.45 87.0928C610.517 84.3777 610.051 81.2791 610.051 77.7971V74.968C610.051 71.486 610.496 68.3874 611.388 65.6723C612.3 62.9571 613.595 60.6669 615.274 58.8015C616.953 56.9362 618.953 55.5164 621.274 54.5423C623.595 53.5682 626.176 53.0811 629.015 53.0811C632.953 53.0811 636.187 53.7236 638.715 55.0086C641.244 56.2729 643.171 58.0347 644.498 60.2938C645.845 62.5322 646.674 65.1023 646.985 68.004H637.938C637.71 66.4702 637.275 65.1334 636.632 63.9934C635.99 62.8535 635.067 61.9623 633.865 61.3198C632.684 60.6772 631.15 60.356 629.264 60.356C627.71 60.356 626.321 60.6772 625.098 61.3198C623.896 61.9415 622.88 62.8639 622.051 64.0867C621.222 65.3096 620.59 66.8226 620.155 68.6257C619.72 70.4289 619.502 72.5223 619.502 74.9058V77.7971C619.502 80.1599 619.73 82.2532 620.186 84.0771C620.642 85.8803 621.316 87.4037 622.207 88.6473C623.119 89.8701 624.238 90.7924 625.564 91.4142C626.891 92.036 628.435 92.3469 630.197 92.3469C631.668 92.3469 632.891 92.2225 633.865 91.9738C634.86 91.7251 635.658 91.4246 636.259 91.0722C636.881 90.6992 637.358 90.3468 637.689 90.0152V81.9941H629.171V75.341H647.016ZM663.431 65.3614V99H654.446V65.3614H663.431ZM653.887 56.5942C653.887 55.2884 654.343 54.2107 655.255 53.3609C656.167 52.5111 657.39 52.0862 658.923 52.0862C660.436 52.0862 661.649 52.5111 662.561 53.3609C663.493 54.2107 663.96 55.2884 663.96 56.5942C663.96 57.8999 663.493 58.9777 662.561 59.8275C661.649 60.6772 660.436 61.1021 658.923 61.1021C657.39 61.1021 656.167 60.6772 655.255 59.8275C654.343 58.9777 653.887 57.8999 653.887 56.5942ZM687.308 65.3614V71.7036H667.722V65.3614H687.308ZM672.571 57.0605H681.525V88.8649C681.525 89.839 681.65 90.5852 681.898 91.1033C682.168 91.6215 682.561 91.9842 683.08 92.1914C683.598 92.378 684.251 92.4712 685.038 92.4712C685.598 92.4712 686.095 92.4505 686.531 92.4091C686.987 92.3469 687.37 92.2847 687.681 92.2225L687.712 98.8135C686.945 99.0622 686.116 99.2591 685.225 99.4042C684.334 99.5492 683.349 99.6218 682.271 99.6218C680.302 99.6218 678.582 99.3005 677.11 98.658C675.66 97.9948 674.54 96.9377 673.753 95.4869C672.965 94.0361 672.571 92.1293 672.571 89.7665V57.0605ZM701.143 51.2468V99H692.189V51.2468H701.143ZM699.868 80.9993H697.412C697.433 78.6572 697.743 76.5017 698.344 74.5327C698.946 72.543 699.806 70.8227 700.925 69.3719C702.044 67.9003 703.381 66.7604 704.935 65.9521C706.511 65.1437 708.252 64.7396 710.158 64.7396C711.817 64.7396 713.319 64.9779 714.666 65.4546C716.034 65.9106 717.205 66.6568 718.179 67.6931C719.174 68.7087 719.941 70.0455 720.48 71.7036C721.019 73.3617 721.288 75.3721 721.288 77.7349V99H712.273V77.6727C712.273 76.1804 712.055 75.0094 711.62 74.1596C711.205 73.2891 710.594 72.6777 709.785 72.3254C708.998 71.9523 708.024 71.7658 706.863 71.7658C705.578 71.7658 704.479 72.0041 703.568 72.4808C702.676 72.9575 701.961 73.6208 701.422 74.4705C700.883 75.2996 700.49 76.2737 700.241 77.3929C699.992 78.5121 699.868 79.7143 699.868 80.9993ZM747.994 90.9479V65.3614H756.948V99H748.523L747.994 90.9479ZM748.989 84.046L751.632 83.9839C751.632 86.2223 751.372 88.3053 750.854 90.2328C750.336 92.1396 749.559 93.7977 748.523 95.2071C747.486 96.5958 746.181 97.6839 744.605 98.4715C743.03 99.2384 741.175 99.6218 739.04 99.6218C737.403 99.6218 735.89 99.3938 734.501 98.9378C733.133 98.4611 731.952 97.7253 730.957 96.7305C729.983 95.7149 729.216 94.4195 728.657 92.8443C728.118 91.2484 727.848 89.3312 727.848 87.0928V65.3614H736.802V87.155C736.802 88.1498 736.916 88.9892 737.144 89.6732C737.393 90.3572 737.735 90.9168 738.17 91.352C738.605 91.7873 739.113 92.0982 739.693 92.2847C740.294 92.4712 740.958 92.5645 741.683 92.5645C743.528 92.5645 744.978 92.1914 746.035 91.4453C747.113 90.6992 747.87 89.6836 748.305 88.3985C748.761 87.0928 748.989 85.642 748.989 84.046ZM763.787 51.2468H772.741V91.2899L771.84 99H763.787V51.2468ZM794.037 81.8387V82.4916C794.037 84.9994 793.768 87.3001 793.229 89.3934C792.711 91.4868 791.903 93.3003 790.804 94.834C789.706 96.347 788.338 97.5284 786.7 98.3782C785.084 99.2073 783.177 99.6218 780.98 99.6218C778.928 99.6218 777.146 99.2073 775.633 98.3782C774.14 97.5492 772.886 96.3781 771.871 94.8651C770.855 93.3521 770.036 91.58 769.415 89.5489C768.793 87.5177 768.327 85.3 768.016 82.8957V81.4656C768.327 79.0614 768.793 76.8437 769.415 74.8125C770.036 72.7814 770.855 71.0093 771.871 69.4962C772.886 67.9832 774.14 66.8122 775.633 65.9832C777.125 65.1541 778.887 64.7396 780.918 64.7396C783.135 64.7396 785.063 65.1645 786.7 66.0142C788.358 66.8433 789.726 68.0247 790.804 69.5584C791.903 71.0714 792.711 72.8746 793.229 74.968C793.768 77.0406 794.037 79.3308 794.037 81.8387ZM785.084 82.4916V81.8387C785.084 80.4708 784.98 79.1857 784.773 77.9836C784.586 76.7608 784.255 75.6934 783.778 74.7814C783.301 73.8488 782.648 73.113 781.819 72.5741C781.011 72.0352 779.964 71.7658 778.679 71.7658C777.456 71.7658 776.42 71.973 775.57 72.3876C774.721 72.8021 774.016 73.3824 773.456 74.1286C772.917 74.8747 772.513 75.7659 772.244 76.8022C771.974 77.8178 771.809 78.937 771.746 80.1599V84.2326C771.809 85.8699 772.078 87.3208 772.555 88.5851C773.052 89.8287 773.798 90.8131 774.793 91.5386C775.809 92.2433 777.125 92.5956 778.741 92.5956C780.006 92.5956 781.052 92.3469 781.881 91.8495C782.711 91.352 783.353 90.6473 783.809 89.7354C784.286 88.8234 784.617 87.756 784.804 86.5332C784.99 85.2896 785.084 83.9424 785.084 82.4916Z" fill="#403636"/>
<path fill-rule="evenodd" clip-rule="evenodd" d="M121.343 24C87.4987 24 60 49.8261 60 81.8055C60 107.372 77.5661 128.951 101.938 136.664C104.973 137.184 106.168 135.451 106.168 133.891C106.168 132.505 106.076 127.998 106.076 123.145C89.0622 126.611 85.3834 116.298 85.3834 116.298C82.6243 109.625 78.5777 107.805 78.5777 107.805C73.0596 104.252 79.0376 104.252 79.0376 104.252C85.1995 104.685 88.4184 110.232 88.4184 110.232C93.8445 119.071 102.766 116.471 106.26 114.998C106.812 111.272 108.376 108.758 110.123 107.285C96.5116 105.812 82.1645 100.872 82.1645 78.7722C82.1645 72.4457 84.5557 67.3325 88.5103 63.2592C87.8666 61.7859 85.7513 55.8927 89.0622 48.0061C89.0622 48.0061 94.2124 46.4462 105.892 53.8994C110.767 52.5994 116.009 51.9928 121.251 51.9928C126.493 51.9928 131.736 52.6861 136.61 53.8994C148.29 46.4462 153.44 48.0061 153.44 48.0061C156.751 55.9793 154.636 61.8726 154.084 63.2592C158.039 67.3325 160.43 72.4457 160.43 78.7722C160.43 100.958 146.083 105.812 132.471 107.285C134.679 109.105 136.61 112.572 136.61 117.945C136.61 125.658 136.518 131.898 136.518 133.804C136.518 135.364 137.622 137.184 140.749 136.578C165.12 128.951 182.595 107.285 182.595 81.8055C182.686 49.9128 155.188 24 121.343 24Z" fill="#403636"/>
<path d="M83.2681 107.025C83.1761 107.285 82.6243 107.372 82.2564 107.198C81.7966 107.025 81.5206 106.592 81.7046 106.332C81.7966 106.072 82.3484 105.985 82.7163 106.158C83.1761 106.332 83.36 106.678 83.2681 107.025Z" fill="#403636"/>
<path d="M85.7516 109.625C85.4757 109.885 84.9238 109.798 84.464 109.365C84.0961 108.932 84.0041 108.412 84.28 108.152C84.556 107.892 85.1078 107.978 85.5676 108.412C85.9355 108.758 86.0275 109.365 85.7516 109.625Z" fill="#403636"/>
<path d="M88.1425 112.918C87.7746 113.178 87.1308 112.918 86.763 112.398C86.3951 111.878 86.3951 111.272 86.763 111.012C87.1308 110.752 87.7746 111.012 88.1425 111.532C88.5104 112.052 88.5104 112.658 88.1425 112.918Z" fill="#403636"/>
<path d="M91.4534 116.125C91.0855 116.472 90.4417 116.385 89.8899 115.865C89.3381 115.432 89.2461 114.738 89.522 114.392C89.8899 114.045 90.6256 114.132 91.0855 114.652C91.6373 115.085 91.8212 115.778 91.4534 116.125Z" fill="#403636"/>
<path d="M96.0519 118.032C95.868 118.465 95.2242 118.725 94.4884 118.465C93.7527 118.292 93.3848 117.772 93.4768 117.252C93.6607 116.818 94.3045 116.558 95.0403 116.818C95.684 116.992 96.1439 117.512 96.0519 118.032Z" fill="#403636"/>
<path d="M101.018 118.378C101.018 118.811 100.466 119.245 99.7306 119.245C98.9949 119.245 98.443 118.898 98.3511 118.378C98.3511 117.858 98.9029 117.511 99.6386 117.511C100.466 117.511 101.018 117.858 101.018 118.378Z" fill="#403636"/>
<path d="M105.709 117.598C105.801 118.031 105.249 118.551 104.605 118.638C103.869 118.725 103.226 118.465 103.134 118.031C103.042 117.598 103.593 117.078 104.237 116.992C104.973 116.818 105.617 117.165 105.709 117.598Z" fill="#403636"/>
</g>
<defs>
<filter id="filter0_d_78_57" x="0" y="0.5" width="867" height="173" filterUnits="userSpaceOnUse" color-interpolation-filters="sRGB">
<feFlood flood-opacity="0" result="BackgroundImageFix"/>
<feColorMatrix in="SourceAlpha" type="matrix" values="0 0 0 0 0 0 0 0 0 0 0 0 0 0 0 0 0 0 127 0" result="hardAlpha"/>
<feOffset dy="6.5"/>
<feGaussianBlur stdDeviation="3.5"/>
<feComposite in2="hardAlpha" operator="out"/>
<feColorMatrix type="matrix" values="0 0 0 0 0.858824 0 0 0 0 0.858824 0 0 0 0 0.858824 0 0 0 1 0"/>
<feBlend mode="normal" in2="BackgroundImageFix" result="effect1_dropShadow_78_57"/>
<feBlend mode="normal" in="SourceGraphic" in2="effect1_dropShadow_78_57" result="shape"/>
</filter>
<filter id="filter1_i_78_57" x="7" y="1" width="853" height="160" filterUnits="userSpaceOnUse" color-interpolation-filters="sRGB">
<feFlood flood-opacity="0" result="BackgroundImageFix"/>
<feBlend mode="normal" in="SourceGraphic" in2="BackgroundImageFix" result="shape"/>
<feColorMatrix in="SourceAlpha" type="matrix" values="0 0 0 0 0 0 0 0 0 0 0 0 0 0 0 0 0 0 127 0" result="hardAlpha"/>
<feOffset dy="1"/>
<feGaussianBlur stdDeviation="2"/>
<feComposite in2="hardAlpha" operator="arithmetic" k2="-1" k3="1"/>
<feColorMatrix type="matrix" values="0 0 0 0 0.92549 0 0 0 0 0.92549 0 0 0 0 0.92549 0 0 0 0.87 0"/>
<feBlend mode="normal" in2="shape" result="effect1_innerShadow_78_57"/>
</filter>
</defs>
</svg>
