/* XPM */
static char *_cf105a3c81441b7c02625047ed7e6dejzMnkjXpxs1iJ0Sh[] = {
/* columns rows colors chars-per-pixel */
"50 50 132 2 ",
"   c #020101",
".  c #090604",
"X  c #0E0805",
"o  c #090908",
"O  c #130B07",
"+  c #1A0F0A",
"@  c #1D110C",
"#  c #1E1411",
"$  c #1D1D1D",
"%  c #24150E",
"&  c #29180F",
"*  c #2C1B13",
"=  c #231D19",
"-  c #331E14",
";  c #371F1F",
":  c #3B2217",
">  c #342119",
",  c #3F2519",
"<  c #2B2523",
"1  c #2F2826",
"2  c #2E2E2E",
"3  c #322621",
"4  c #3A2B24",
"5  c #363434",
"6  c #3C3533",
"7  c #3D3A39",
"8  c #412619",
"9  c #462A1C",
"0  c #4B2C1D",
"q  c #512F1F",
"w  c #52301F",
"e  c #432E24",
"r  c #4E2B24",
"t  c #452A2A",
"y  c #502F20",
"u  c #552E2C",
"i  c #41332C",
"p  c #4C3428",
"a  c #543222",
"s  c #5B3523",
"d  c #5B322D",
"f  c #4A3D37",
"g  c #443D3B",
"h  c #553C30",
"j  c #633926",
"k  c #663C28",
"l  c #6A3E29",
"z  c #623435",
"x  c #713D3D",
"c  c #4B423E",
"v  c #51453F",
"b  c #5B463C",
"n  c #75442D",
"m  c #7A472F",
"M  c #7C482F",
"N  c #7E4930",
"B  c #454342",
"V  c #4F4D4C",
"C  c #554642",
"Z  c #544A46",
"A  c #5B4941",
"S  c #524D4B",
"D  c #5E524D",
"F  c #555554",
"G  c #5C5A59",
"H  c #60534D",
"J  c #625551",
"K  c #645954",
"L  c #6B5C57",
"P  c #655D58",
"I  c #73625C",
"U  c #646160",
"Y  c #686664",
"T  c #696969",
"R  c #786762",
"E  c #776B65",
"W  c #7C6B65",
"Q  c #716C6A",
"!  c #74706D",
"~  c #747474",
"^  c #7B7572",
"/  c #7D7C7C",
"(  c #844C32",
")  c #884F34",
"_  c #8C5136",
"`  c #905337",
"'  c #945639",
"]  c #99593B",
"[  c #844748",
"{  c #8F7B75",
"}  c #807F7F",
"|  c #937E78",
" . c #D07071",
".. c #9A857E",
"X. c #858484",
"o. c #898584",
"O. c #8D8C8C",
"+. c #939393",
"@. c #9B9B9B",
"#. c #A68F87",
"$. c #AA928B",
"%. c #AF9790",
"&. c #B49B93",
"*. c #A4A4A4",
"=. c #ACACAC",
"-. c #B3B3B3",
";. c #BABABA",
":. c #C2A79E",
">. c #C6ABA2",
",. c #C9ADA5",
"<. c #CEB1A8",
"1. c #D1B4AB",
"2. c #D5B8AE",
"3. c #DDBFB5",
"4. c #E4C5BB",
"5. c #E9C8BE",
"6. c #C6C6C6",
"7. c #CACACA",
"8. c LightGray",
"9. c #DADADA",
"0. c #EDCCC2",
"q. c #F1D0C5",
"w. c #F5D3C8",
"e. c #FDDACF",
"r. c gray88",
"t. c #E2E2E2",
"y. c gray91",
"u. c #ECECEC",
"i. c #F3F3F3",
"p. c #FBFBFB",
"a. c #FDFDFD",
"s. c white",
/* pixels */
"s.s.s.s.s.s.s.s.s.s.s.s.s.s.s.s.s.s.s.s.s.s.s.s.s.s.s.s.s.s.s.s.s.s.s.s.s.s.s.s.s.s.s.s.s.s.s.s.s.s.",
"s.s.s.s.s.s.s.s.s.s.s.s.s.s.s.s.s.s.s.s.s.s.s.s.s.s.s.s.s.s.s.s.s.s.s.s.s.s.s.s.s.s.s.s.s.s.s.s.s.s.",
"s.s.s.s.s.s.s.s.s.s.s.s.s.s.s.s.s.s.s.s.s.s.s.s.s.s.s.s.s.s.s.s.s.s.s.s.s.s.s.s.s.s.s.s.s.s.s.s.s.s.",
"s.s.s.s.s.s.s.s.s.s.s.s.s.s.s.s.s.s.s.s.s.s.s.s.s.s.s.s.s.s.s.s.s.s.s.s.s.s.s.s.s.s.s.s.s.s.s.s.s.s.",
"s.s.s.s.s.s.s.s.s.s.s.s.s.s.s.s.s.s.s.s.s.s.s.=.2 o o o B p.s.s.s.s.s.s.s.s.s.s.s.s.s.s.s.s.s.s.s.s.",
"s.s.s.s.s.s.s.s.s.s.s.s.s.s.s.s.s.s.s.9.o.v a w         O , V =.s.s.s.s.s.s.s.s.s.s.s.s.s.s.s.s.s.s.",
"s.s.s.s.s.s.s.s.s.s.s.s.s.s.s.s.s.i.U s ' ] ' _ ( 0 + - _ _ _ j P s.s.s.s.s.s.s.s.s.s.s.s.s.s.s.s.s.",
"s.s.s.s.s.s.s.s.s.s.s.s.;.Z 4 D ;.f _ ] ' _ ] _ ` ] l n ` _ ] ] n 5 9.s.s.s.s.s.s.s.s.s.s.s.s.s.s.s.",
"s.s.s.s.s.s.s.s.s.s.s.=.s ] ] ] & _ ] ] ' ' _ ] ' ' n n ] ] _ ] ] : v s.s.s.s.s.s.s.s.s.s.s.s.s.s.s.",
"s.s.s.s.s.s.s.s.s.s.s.e ] ] k k j ] ] ] ] ] ] ] ] _ ) N _ ] ] ] ] q j 7.s.s.s.s.s.s.s.s.s.s.s.s.s.s.",
"s.s.s.s.s.s.s.s.s.s.r.s ] -   X ] ] ] ] ] ] l b o.@.@.@.O.! p M ] w _ +.s.s.s.s.s.s.s.s.s.s.s.s.s.s.",
"s.s.s.s.s.s.s.s.s.s.9.s ] @   9 ] ] ] ] m u / @./ F / Y 5 Y @.o l q ' O.s.s.s.s.s.s.s.s.s.s.s.s.s.s.",
"s.s.s.s.s.s.s.s.s.s.p.4 ] k   s ] ] ] l x  .7 J &.:.%.1.4.P 2 @ k 9 j 6.s.s.s.s.s.s.s.s.s.s.s.s.s.s.",
"s.s.s.s.s.s.s.s.s.s.s.@.j ] 0 n ] ] ] z  . .. 4.$.e.e.e...>.  9 s _ D s.s.s.s.s.s.s.s.s.s.s.s.s.s.s.",
"s.s.s.s.s.s.s.s.s.s.s.s.@.9 a n ] ] ] x d [ | 0.3.q.4.2.Z $.  p p ~ i.s.s.s.s.s.s.s.s.s.s.s.s.s.s.s.",
"s.s.s.s.s.s.s.s.s.s.s.s.s.r.F n ] ] ] = J C e.2.L R :.#.2.4.6 s.s.s.s.9.s.s.s.s.s.s.s.s.s.s.s.s.s.s.",
"s.s.s.s.s.s.s.s.s.s.s.s.s.s.+.n ] ] ] R | ,.5.q.e.e.e.:.e.1.{ 8.s.s.~ g B ! s.s.s.s.s.s.s.s.s.s.s.s.",
"s.s.s.s.s.s.s.s.s.s.s.s.s.s.=.k ] ] ] # <.w.3.5.,.Z H H L e.| 8.s.7.8 * 8 w 7.s.s.s.s.s.s.s.s.s.s.s.",
"s.s.s.s.s.s.s.s.s.s.s.s.s.s.r.s ] ] ] y z t e.e.e.W t ; #.w.< -.s.o.n s n 0 o.s.s.s.s.s.s.s.s.s.s.s.",
"s.s.s.s.s.s.s.s.s.s.s.s.s.s.s.0 ] ] ] y .   c 5.e.e.0.5.>.1   7 } 6 0   X ( E s.s.s.s.s.s.s.s.s.s.s.",
"s.s.s.s.s.s.s.s.s.s.s.s.s.s.s.B ] ] ] j   j r - 5 { I > %     T . 8 j n 8 j I s.s.s.s.s.s.s.s.s.s.s.",
"s.s.s.s.s.s.s.s.s.s.s.s.s.s.s.X.( ] ] _ 9 ` = ) n a r ( n   o X.= ' q ] ] ] W s.s.s.s.s.s.s.s.s.s.s.",
"s.s.s.s.s.s.s.s.s.s.s.s.s.s.s.y.e ] ] ] 9 , *.2 * Z 7 i 7 $ 5 , _ ' w ] ] ] ^ s.s.s.s.s.s.s.s.s.s.s.",
"s.s.s.s.s.s.s.s.s.s.s.s.s.s.s.s.^ N ] ] ] j f X.X./ S 4 9 k ' ] ] w ) ] ] ( O.s.s.s.s.s.s.s.s.s.s.s.",
"s.s.s.s.s.s.s.s.s.s.s.s.s.s.s.s.p.c ( ] ] ] ] ] ' ' ] ] ] ] ] ] n w ] _ k 0 9.s.s.s.s.s.s.s.s.s.s.s.",
"s.s.s.s.s.s.s.s.s.s.s.s.s.s.s.s.s.y.@ 0 _ ] ] ] ] ] ] ] ] ] ) 0 s ] ] _ ` H s.s.s.s.s.s.s.s.s.s.s.s.",
"s.s.s.s.s.s.s.s.s.s.s.s.s.s.s.s.s.U ) ` w @ : : 8 n ] ] ] s % ' ] ] ] ` q ;.s.s.s.s.s.s.s.s.s.s.s.s.",
"s.s.s.s.s.s.s.s.s.s.s.s.s.s.s.s.6.s ] ] ] 0 ] ] ] ] ] ] ] ] a M ] ] M _ Q s.s.s.s.s.s.s.s.s.s.s.s.s.",
"s.s.s.s.s.s.s.s.s.s.s.s.s.s.s.s.S ' ] ] ] q ] ] ] ] ] ] ] ] ) : ' M % K p.s.s.s.s.s.s.s.s.s.s.s.s.s.",
"s.s.s.s.s.s.s.s.s.s.s.s.s.s.s.9.a ] ] ] ] q ] ] ] ] ] ] ] ] l s G = ;.s.s.s.s.s.s.s.s.s.s.s.s.s.s.s.",
"s.s.s.s.s.s.s.s.s.s.s.s.s.s.s.X.) _ ] ] ] : ] ] ] ] ] ] ' n ` j } s.s.s.s.s.s.s.s.s.s.s.s.s.s.s.s.s.",
"s.s.s.s.s.s.s.s.s.s.s.s.s.s.s.V s _ ' ] ] , ] ] ] ] ] ] ] n j s 5 s.s.s.s.s.s.s.s.s.s.s.s.s.s.s.s.s.",
"s.s.s.s.s.s.s.s.s.s.s.s.s.s.s./ n ) ( ] ] 9 m ] ] ] ] ] ] _ ) l @.s.s.s.s.s.s.s.s.s.s.s.s.s.s.s.s.s.",
"s.s.s.s.s.s.s.s.s.s.s.s.s.s.s.O.q _ ` ] ] n 8 ] ] ] ] ] ] l ) - O.s.s.s.s.s.s.s.s.s.s.s.s.s.s.s.s.s.",
"s.s.s.s.s.s.s.s.s.s.s.s.s.s.s.8.7 n ] ] ] 9 - ] ] ] ] ] ] ) k } 6.s.s.s.s.s.s.s.s.s.s.s.s.s.s.s.s.s.",
"s.s.s.s.s.s.s.s.s.s.s.s.s.s.s.s.-.: _ ] ) 9 ] ] ] ] ] ] ( ( E s.s.s.s.s.s.s.s.s.s.s.s.s.s.s.s.s.s.s.",
"s.s.s.s.s.s.s.s.s.s.s.s.s.s.s.s.s.-.= a s ' ] ] ] ] ] ] l - p.s.s.s.s.s.s.s.s.s.s.s.s.s.s.s.s.s.s.s.",
"s.s.s.s.s.s.s.s.s.s.s.s.s.s.s.s.s.s.9 ] ] ] ] 9 q s w q n h s.s.s.s.s.s.s.s.s.s.s.s.s.s.s.s.s.s.s.s.",
"s.s.s.s.s.s.s.s.s.s.s.s.s.s.s.s.s.y.a ] ] ] ] ] % ) ] ] ] A s.s.s.s.s.s.s.s.s.s.s.s.s.s.s.s.s.s.s.s.",
"s.s.s.s.s.s.s.s.s.s.s.s.s.s.s.s.s.6.+ ' ] ] ] ] X ] ] ] ] K s.s.s.s.s.s.s.s.s.s.s.s.s.s.s.s.s.s.s.s.",
"s.s.s.s.s.s.s.s.s.s.s.s.s.s.s.s.s.p.3 ] ] ] ] _ o l ] ] ] ^ s.s.s.s.s.s.s.s.s.s.s.s.s.s.s.s.s.s.s.s.",
"s.s.s.s.s.s.s.s.s.s.s.s.s.s.s.s.s.s.* ] ] ] ] j G ' ] ' a > =.s.s.s.s.s.s.s.s.s.s.s.s.s.s.s.s.s.s.s.",
"s.s.s.s.s.s.s.s.s.s.s.s.s.s.s.s.s.u.* ] ] ] j 0 % N ] M n ] a 9.s.s.s.s.s.s.s.s.s.s.s.s.s.s.s.s.s.s.",
"s.s.s.s.s.s.s.s.s.s.s.s.s.s.s.s.s.u.q ] ] ] ' ] ] 8 ] ] ] ] ] O.s.s.s.s.s.s.s.s.s.s.s.s.s.s.s.s.s.s.",
"s.s.s.s.s.s.s.s.s.s.s.s.s.s.s.s.s.9.> ( ] ] ] ] ] 0 ' ] ' ] ) o.s.s.s.s.s.s.s.s.s.s.s.s.s.s.s.s.s.s.",
"s.s.s.s.s.s.s.s.s.s.s.s.s.s.s.s.s.s.i.+.D a s a h H X.} X./ +.r.s.s.s.s.s.s.s.s.s.s.s.s.s.s.s.s.s.s.",
"s.s.s.s.s.s.s.s.s.s.s.s.s.s.s.s.s.s.s.s.s.s.s.s.s.s.s.s.s.s.s.s.s.s.s.s.s.s.s.s.s.s.s.s.s.s.s.s.s.s.",
"s.s.s.s.s.s.s.s.s.s.s.s.s.s.s.s.s.s.s.s.s.s.s.s.s.s.s.s.s.s.s.s.s.s.s.s.s.s.s.s.s.s.s.s.s.s.s.s.s.s.",
"s.s.s.s.s.s.s.s.s.s.s.s.s.s.s.s.s.s.s.s.s.s.s.s.s.s.s.s.s.s.s.s.s.s.s.s.s.s.s.s.s.s.s.s.s.s.s.s.s.s.",
"s.s.s.s.s.s.s.s.s.s.s.s.s.s.s.s.s.s.s.s.s.s.s.s.s.s.s.s.s.s.s.s.s.s.s.s.s.s.s.s.s.s.s.s.s.s.s.s.s.s."
};
