/* XPM */
static char *result[] = {
/* columns rows colors chars-per-pixel */
"50 50 141 2 ",
"   c #15141D",
".  c #1D161D",
"X  c #1F181F",
"o  c #3A190D",
"O  c #221313",
"+  c #2A1616",
"@  c #23161B",
"#  c #24181D",
"$  c #28181A",
"%  c #301611",
"&  c #351912",
"*  c #3C1B12",
"=  c #3C2217",
"-  c #151521",
";  c #1A1721",
":  c #171A27",
">  c #1B1924",
",  c #171B2A",
"<  c #191C2B",
"1  c #1E1F31",
"2  c #201921",
"3  c #201F34",
"4  c #1D202F",
"5  c #1E2132",
"6  c #23222F",
"7  c #222434",
"8  c #232936",
"9  c #272639",
"0  c #242938",
"q  c #2B2B3E",
"w  c #2B323F",
"e  c #441C12",
"r  c #422614",
"t  c #4A2313",
"y  c #5E2D17",
"u  c #5F2718",
"i  c #5F2F18",
"p  c #592414",
"a  c #4E371B",
"s  c #4E3A1D",
"d  c #523C1D",
"f  c #612F18",
"g  c #6B2B18",
"h  c #7A2F19",
"j  c #623119",
"k  c #67381B",
"l  c #7D331D",
"z  c #643822",
"x  c #7E3622",
"c  c #773729",
"v  c #784521",
"b  c #7E4922",
"n  c #67582B",
"m  c #685A2C",
"M  c #6D622F",
"N  c #6F6330",
"B  c #2C2D41",
"V  c #2D3442",
"C  c #2E3845",
"Z  c #323344",
"A  c #313946",
"S  c #343548",
"D  c #39344C",
"F  c #363E4B",
"G  c #3A3D4D",
"H  c #3B3750",
"J  c #3B3950",
"K  c #403D53",
"L  c #37424E",
"P  c #3B404D",
"I  c #3E4051",
"U  c #414053",
"Y  c #484554",
"T  c #464C5B",
"R  c #4A4D5D",
"E  c #45525C",
"W  c #524D67",
"Q  c #554C6D",
"!  c #495561",
"~  c #535463",
"^  c #515E68",
"/  c #53656F",
"(  c #576470",
")  c #5A6A75",
"_  c #686A7C",
"`  c #82341D",
"'  c #89341A",
"]  c #8D3A20",
"[  c #843B26",
"{  c #9A3F23",
"}  c #814A22",
"|  c #9D4024",
" . c #9C462C",
".. c #8B5125",
"X. c #915628",
"o. c #965828",
"O. c #AE4728",
"+. c #BB4927",
"@. c #B74C2A",
"#. c #BC4D2C",
"$. c #A6642E",
"%. c #AA662F",
"&. c #CD532E",
"*. c #D1542E",
"=. c #CF5530",
"-. c #D25631",
";. c #C57936",
":. c #CC7F39",
">. c #C26448",
",. c #D36443",
"<. c #C77158",
"1. c #CE8039",
"2. c #DD8B3E",
"3. c #D2833B",
"4. c #E18D3F",
"5. c #E38E40",
"6. c #E49040",
"7. c #EC9542",
"8. c #F79C46",
"9. c #F99E46",
"0. c #FDA147",
"q. c #DB8064",
"w. c #D7876F",
"e. c #DE876C",
"r. c #DE896F",
"t. c #D2907C",
"y. c #DB917A",
"u. c #E0886D",
"i. c #677C85",
"p. c #8BA0A9",
"a. c #96B1B7",
"s. c #9DB8BF",
"d. c #E59A83",
"f. c #E89D86",
"g. c #E8A28C",
"h. c #E7AB99",
"j. c #EBAE9C",
"k. c #E9B1A0",
"l. c #EFC3B6",
"z. c #F2CABE",
"x. c #F6DAD1",
/* pixels */
"< < < < < < < < < < < < < < < < < < , , < < < < < < < < < < < < , 4 , , < < < < < < < < < < , < , < ",
"< , < < < < < < < < < < < < < < < , , < < < < < < < < < < < < < , , , , < < < < < < < < < < , , , , ",
"< < < < < < < < < < < < < < < < < < < , < < < < < < < < < < < < < 4 < < , 0 A 1 < < , < , < < < < < ",
"< < < < < < < < < < < < < < < < , < < < < < < < < < < < < < < < < , < , 4 5 S 1 < < < , < < < < : < ",
"< < < < 2 < 1 < < < < < < < < < < < < < < < < < < < < < < < , < , , < < < < < < < < 4 , 4 , < < , : ",
"< < < < < < < < < < < < < < < < < < < < < < < 2 < < < < < < , < , , < < < , < , < < < < 4 < < < < 4 ",
"< < < < < < < < > C U < < < < < < < < < < < < Z w < < < < , < , , , < < < , , < < < < < , < 4 < < < ",
"< < < < < < < < > U R 3 < < < < < < < < < < < 3 < < < < < , < , 4 , < < , < < , < , < , , < < < 4 < ",
"< < < < < < < < < 4 4 , < , , < < < < < < < < < < 6 < < < < 4 < < < < < < , < , < < < < < < < < , 4 ",
"< < < < < < < 4 < < < < , , < < < < < < < < < < J ~ 8 < < < < < < , < , < < , < < < < < < < < < , < ",
"< < < < < < < < < < < 4 < 4 < , < < : < < < > < Y ~ 6 < < < < < , < < < < < , < < < < < < < < < < , ",
"< < < < < < < < 4 < , , , < , , < < < < < $ & * = = * # 7 q 7 < < < , , , < < < < < < < 1 2 < , < , ",
"< < < < < < < < , , < , 4 , , 4 < , < , < @ a m m m a @ q W Z < , < , < < < < < < < < < > 8 ) L : 4 ",
"< < < < < < < < , , , < , , , , < < < < < # d N M N d @ 5 B 1 < < < < < < < < < < < < < : P a./ : < ",
"< < < < < < < < < , < < , < , < < < , < , @ d N N N d @ , : < < < , < < < < < , < < < < > 7 E q < < ",
"< < < < < < < < , < < , , < < < < < < < 4 + r a a d r + < < < < < < < < < < , , < < < < < < < < > , ",
"< < , < < < , < , < < < < < < < < q J 7 < $ p [ ` ` p + : , < < < < , < , < , 1 , , , < < < < < < < ",
"< < < , < , < < < < < < , , 4 < < G ~ 7 < # ' f.u.*.` # < < , < < < < , < < , , , < , , < < < < < < ",
"< < < < < < < < < < < 5 ! L , < , 5 7 < < # l k.h.*.` # , , < , < < , < < 1 , , 1 < < < < < < 1 < < ",
"< < < < , < < < < < , T s.i., , < < < < > % ' f.r.*.' % X , , < , < < < < < , 1 , , < < : < < < < < ",
"> , , < < > < < < < < C ) C < < < < > # e | w.r.&.=.&.| e O > , < < < < < < < < , , < < , < < < < < ",
"< 4 < < < < < < < < < < < < < < , > % g >.k.l.q.&.=.=.=.#.l o X < < < < < < < < , < < < < < < < < < ",
"4 < < , , < < < < < < < < < < < > o  .y.x.h.-.=.=.=.=.=.=.=.| e 2 < 2 < < < < < < < < 1 < < < < < < ",
": < < < < , < < < < < < < < < < . h g.z.e.*.-.-.=.=.=.=.-.-.-.l @ < 1 < < < < < < < < 3 H B < < < < ",
": < < < < , < < < < < < 4 9 3 < @ h t.<.+.#.#.#.#.#.#.#.#.#.#.l @ < < < < < < < < < < 9 W D < < < < ",
"< , < < < < < < < < < < 5 U q < # t z j f f f f f j i f i j f t @ < < < 3 < < < < < < 3 6 3 < < , < ",
"4 < < < < < < < < < < < < 8 < < @ ..4.4.4.4.4.4.4.4.4.4.4.4.4...@ , < < > < < < < < < < < < < < < < ",
"G 5 < < < < < < < < < < < < < < @ o.8.9.9.9.8.9.8.8.8.9.9.9.9.o.@ < < < , , < < < < < < < < < 3 < < ",
"Q q < < < < , < < < < < < < < < @ o.7.;.7.$.2.%.7.;.2.$.4.;.2.o.@ , < < , < < < < < < 3 < < < < < < ",
"H 3 < < < A / 8 < 4 < < < < < < @ o.7.} b } 4.} } } 4.v k k 4.o.@ < < < < 1 2 < < < < < < < < < < < ",
"< < < < > ^ p.C 4 < > < < < < < @ o.0.o.o :.9.:.o o.0.3.o } 9.o.@ , : 3 < < < < < < < < < < < < < < ",
"< < < < < w F < < , 4 < < < < <   o.7.} } } 4.} b } 4.v k k 4.o.@ < < < < < 2 < < < < < < < < < < < ",
"< < < < < < < < 2 1 < < < 5 < < - v 5.;.7.%.2.%.7.;.2.$.4.;.2.o.# < < < < < < < < , < < < , < < < < ",
"< < 1 < 2 7 < < < < < < < 5 5 < : t 5.9.9.9.8.9.8.8.8.9.8.9.9.X.. < < < < < < < < < < < < , , < < < ",
"< < < < 3 3 < < < < < < < < < < < r :.4.5.5.5.4.4.4.4.4.4.4.4.v   1 < < < < < < < < , < < < < < < < ",
"< < < < < < < < < < < < < < < < < & y y f f f f f f f f f f i * - < , 1 < < < < , < < < < < , < < < ",
"< 3 3 3 < < < < < < < < < < < < > * O.&.#.#.#.#.#.#.#.#.#.#.O.e - < < < < < < < < < < , < < < < < < ",
"< q K 3 3 < < < < 4 < < < < < < < * @.-.-.-.-.-.-.*.-.-.-.-.@.e , < < < < 1 < < < < < 1 < < < , , < ",
"1 1 3 < < < < < < < < < < < < < < # p ` ` [ c c c c c x [ ` u @ < < < 1 < < < < < < < , 1 < < < < , ",
", < < < < < < < < , < < < < < < < , ; . # . > < > > > # # # > < < < < < < < < < < < , , 1 1 < < < < ",
", , < < < < < < < , < , < < < 5 1 , , , , , , , < < < < < < < < < < < , < < < < < < < 1 1 5 < < < < ",
", 4 < < < < , , < < , < < < , < , , , 1 , , < < < < < < < 1 < < < < < , < < 1 < < < < < < < < < 1 3 ",
"< < < < , < < < < 4 , < < < , < , , , , 1 , 1 < < < < < < < < < < < < , < < < < 1 < < < < < < < 3 H ",
"< < < < < < < , < < < V B < , , , 1 , , , , < < < < < < < < < < < < < < < < < < < < < < < < < < < 1 ",
", < < < < < < < < < B _ T , , , , 1 , , < < , < < < < < < < , < < < < < , , < < < < < < < < < < < < ",
"< < < < , < , < < < 7 T V , , 1 , , , 1 , , < , < < < < < , < , < < < < , , , < < < < < < < < < < < ",
"< < < < < , , < < < , 1 , 1 , , 1 , , , , , < < , < < < < < < , , , , < , , , < < < 1 , < < < 1 < < ",
"< < < < < < < < < < , 1 , , , , , , , , , , < , < , < , , < , < < , , , < < < < 1 < < < < < < < < < ",
"< < < < < < < < < < < < < < , < < < < < < < < < > , , < < < , < < < : < < < < < < < < < , < < < < < ",
"< < < < < < < < < < , < < < < < < < < < < < < < < < < < < < < > , < < < < < < < < , < < < < < < < < "
};
