/* XPM */
static char *result[] = {
/* columns rows colors chars-per-pixel */
"50 50 198 2 ",
"   c #010200",
".  c #0A0500",
"X  c #060903",
"o  c #0A0C04",
"O  c #080A08",
"+  c #130701",
"@  c #150A02",
"#  c #1B0C02",
"$  c #0D1206",
"%  c #0F1509",
"&  c #161407",
"*  c #11140D",
"=  c #131B0A",
"-  c #1A1C0C",
";  c #1C1E10",
":  c #230E02",
">  c #241204",
",  c #2B1203",
"<  c #28180C",
"1  c #341503",
"2  c #3B1A05",
"3  c #381E0B",
"4  c #19250A",
"5  c #1A240D",
"6  c #1D2715",
"7  c #2E2F05",
"8  c #2F220C",
"9  c #3C250B",
"0  c #223406",
"q  c #263E03",
"w  c #252C1B",
"e  c #3B2916",
"r  c #253115",
"t  c #2A341E",
"y  c #2B381B",
"u  c #3B3819",
"i  c #2B3922",
"p  c #393A27",
"a  c #441D05",
"s  c #4E1F05",
"d  c #48260B",
"f  c #552305",
"g  c #5B2506",
"h  c #542A0A",
"j  c #5C2808",
"k  c #42320F",
"l  c #5D3006",
"z  c #452A13",
"x  c #4D3411",
"c  c #443D1B",
"v  c #6C2C06",
"b  c #652B09",
"n  c #6D2E09",
"m  c #722E08",
"M  c #67340C",
"N  c #7B3307",
"B  c #733209",
"V  c #673513",
"C  c #733B11",
"Z  c #473F2E",
"A  c #533520",
"S  c #294300",
"D  c #2E4D01",
"F  c #39410D",
"G  c #3A520A",
"H  c #324718",
"J  c #364B1F",
"K  c #3C6504",
"L  c #394426",
"P  c #41461A",
"I  c #534218",
"U  c #4C581E",
"Y  c #585513",
"T  c #6E4A19",
"R  c #75451B",
"E  c #625E10",
"W  c #4F6707",
"Q  c #436F04",
"!  c #497B03",
"~  c #497408",
"^  c #527D07",
"/  c #4C4C21",
"(  c #484928",
")  c #534828",
"_  c #435D26",
"`  c #495A26",
"'  c #525329",
"]  c #43473D",
"[  c #694B21",
"{  c #7E4A27",
"}  c #765D26",
"|  c #735434",
" . c #4A6926",
".. c #4A672C",
"X. c #4D6D2A",
"o. c #596829",
"O. c #4F722A",
"+. c #577B2F",
"@. c #4A6230",
"#. c #4B6830",
"$. c #52633B",
"%. c #557431",
"&. c #5E7032",
"*. c #597C32",
"=. c #6A6929",
"-. c #716323",
";. c #736822",
":. c #767E2C",
">. c #69683B",
",. c #766B34",
"<. c #677839",
"1. c #7A7A32",
"2. c #5B5A49",
"3. c #625946",
"4. c #675E51",
"5. c #596249",
"6. c #586150",
"7. c #646249",
"8. c #823407",
"9. c #823509",
"0. c #893709",
"q. c #863A0A",
"w. c #8B3A0A",
"e. c #933B0A",
"r. c #993E0B",
"t. c #95400C",
"y. c #9C430D",
"u. c #8A4312",
"i. c #894919",
"p. c #944815",
"a. c #86511E",
"s. c #8B521D",
"d. c #995219",
"f. c #A2460A",
"g. c #AF4C0D",
"h. c #B44C0D",
"j. c #BA4D0D",
"k. c #BB530F",
"l. c #AA4E17",
"z. c #B44D10",
"x. c #BA4F10",
"c. c #AA5216",
"v. c #B55414",
"b. c #BB5612",
"n. c #824828",
"m. c #835226",
"M. c #897024",
"N. c #C34E0D",
"B. c #C2500E",
"V. c #CB500D",
"C. c #CE5B0F",
"Z. c #D6590F",
"A. c #C45C13",
"S. c #CE5A10",
"D. c #D15810",
"F. c #DD5C11",
"G. c #EA5C0F",
"H. c #E25E11",
"J. c #EE5F10",
"K. c #C26219",
"L. c #D96011",
"P. c #E16214",
"I. c #EB6311",
"U. c #4E8300",
"Y. c #518507",
"T. c #69822F",
"R. c #61833B",
"E. c #658E38",
"W. c #658A3E",
"Q. c #6B953D",
"!. c #6D9C3B",
"~. c #749B3C",
"^. c #6EA03B",
"/. c #74A33D",
"(. c #7FA13C",
"). c #75A93D",
"_. c #648241",
"`. c #6F8F4D",
"'. c #6E9247",
"]. c #739B45",
"[. c #779749",
"{. c #788D58",
"}. c #74A443",
"|. c #7CA345",
" X c #7AAF42",
".X c #7CA848",
"XX c #7DB344",
"oX c #7FB843",
"OX c #8B9E40",
"+X c #80B646",
"@X c #81BA44",
"#X c #82B748",
"$X c #84BA4B",
"%X c #89B758",
"&X c #92BC64",
"*X c #92B66C",
"=X c #92AB74",
"-X c #9AAD81",
/* pixels */
"@X@X@X@X@X@X@X@X@X@X@X@X@X@X@X@X@X@X@X@X@X@X@X@X@X@X@X@X@X@X@X@X@X@X@X@X@X@X@X@X@X@X@X@X@X@X@X@X@X@X",
"@X@X@X@X@X@X@X@X@X@X@X@X@X@X@X@X@X@X@X@X@X@X@X@X@X@X@X@X@X@X@X@X@X@X@X@X@X@X@X@X@X@X@X@X@X@X@X@X@X@X",
"@X@X@X@X@X@X@X@X@X@X@X@X@X@X@X@X@X@X@X@X@X@X@X@X@X@X@X@X@X@X@X@X@X@X@X@X@X@X@X@X@X@X@X@X@X@X@X@X@X@X",
"@X@X@X@X@X@X@X@X@X@X@X@X@X@X@X@X@X@X@X@X@X@X@X@X@X@X@X$X@X@X@X@X@X@X@X@X@X@X@X@X@X@X@X@X@X@X@X@X@X@X",
"@X@X@X@X@X@X@X@X@X@X@X@X@X@X@X@X@X X..`.$X$X@X@X@X$X%X#.R.&X%X{...`.@X@X@X@X@X@X@X@X@X@X@X@X@X@X@X@X",
"@X@X@X@X@X@X@X@X@X@X@X@X@X@X@X@X@X7.< 7.*X*X*X&X&X&X4.< Z -X=X7.< 7.%X@X@X@X@XoX@X@X@X@X@X@X@X@X@X@X",
"@X@X@X@X@X@X@X@X@X@X@X@X@X@XXX5. .m.y.{ 5.6.6.5.$.$.| r.i.3.2.n.r.{ #.R.@X@XoXoX@X@X@X@X@X@X@X@X@X@X",
"@X@X@X@X@X@X@X@X@X@X@X@X@X@X.Xp # y.I.q.o O o O o & b H.j.< & t.I.0.O i @X@XoXoX@X@X@X@X@X@X@X@X@X@X",
"@X@X@X@X@X@X@XXX`.R.#X@X X_.<.C v N 0.s           X 2 q.v # . g 0.s   6 R.W.'.Q.oX@X@X@X@X@X@X@X@XU.",
"@X@X@X@X@X@X@X}.] i #X@X}.w z x.D.g # o X     X   . X # @     + # .   O w w w L `.@X@X@X@X@X@X@X@XU.",
"@X@X@X@X@X@X+X[.A x |.+X!.X : r.f.2       X X X                             , h >.#X@X@X@X@X@X@X@X@X",
"@X@X@X@X@X).` ) l.v.-.` L X . , 1 @ X     X X X X X X X   .               + 9.b.a.@.%.@X@X@X@X@X@X@X",
"@X@X@X@X@X!.O 1 z.A.h               .   X X $ X X % $ X o X               @ w.C.q.> c @X@X@X@X@X@X@X",
"@X@X@X@XoX!.* @ d f >                     X o X $ = % % $ o X X .   X     . 2 j v y.s.o.X.oX@X@X@X@X",
"@X@X@XoX@X~.; . . .                   X   X X $ = 4 5 5 % $ X               . + b H.j.3 r oX@X@X@X@X",
"@X@X@XXXR.=.C f +             X   X     X X X $ % 4 5 5 = $ o X           . a n m q.i.o.*.@X@X@X@X@X",
"@X@X@X!.t V F.h.>                       . X X X $ % 4 = % $ o             # w.L.q.# p #X@X@X@X@X@X@X",
"@X@X@X Xo.-.h.w.#   X     X   X   X           X O $ $ $ % o X X           + B h.9.d ) +XoX@X@X@X@X@X",
"@X@X@X@X#X~.d > .     X X   .   X               X X o $ o X   X X         . # a n N.l.' X.oX@X@X@X@X",
"@X@X@X@X#X].8 # .       X                         X X   X X X                 . g Z.v.P X.@X@X@X@X@X",
"@X@X@X X%.-.y.N #   X                               X       X                 . : h [ |.XX@X@X@X@X@X",
"@X@XoX}.P T P.j.,                                                                 @ L #X@X@X@X@X@X@X",
"@X@X@XXXQ.:.u.b #                                           X                   , b { <.W.oXoX@X@X@X",
"@X@X@X@X@X/.P < X                                                             . b Z.z.e L oXoX@X@X@X",
"@X@X@X@X@XXXE.D 4                                                             . s h.d.o.%.oX@X@X@X@X",
"@X@X@X@X@X@XoX! H                                                               @ 9 I oXoX@X@X@X@X@X",
"@XU.U.@XoXU.Y..X( : .                                                         O y _ R.oX@X@X@X@X@X@X",
"@XU.U.@XoX! G o.p.e.1                                                         = R. XoX@X@X@X@X@X@X@X",
"@XU.U.@XoXQ - 2 N.F.f                                                       . r ].@X@X@X@X@X@X@X@X@X",
"@XU.U. X_.Y m m 0.8.1                                                     . a R 1.'.|.@X@X@X@X@X@X@X",
"@X@X@X}.( V F.h.1 +                                                       # w.L.u.y ..@X@X@X@X@X@X@X",
"@X@X+X X+.;.h.w.#                                                         + B g.9.d A [.XX@X@X@X@X@X",
"@X@X@X@X@X/.z > .                                                         . > 2 v N.c.) @.#X@X@X@X@X",
"@X@X@X@X@X^.6 . # : : : +                                                     . f D.v./ ..@X@X@X@X@X",
"@X@X@X@X@X^.- : 8.r.r.e.f                                                       : h [ |.XX@X@X@X@X@X",
"@X@X@X@XoX/.J x N.G.G.G.8..                                             . . . . 5 H &.@X@X@X@X@X@X@X",
"@X@X@X@X@XoX~.T.s.e.V.G.0..                                           # g v : * #.!.XX@X@X@X@X@X@X@X",
"@X@X@X@X@X@X@XXXT.k y.J.e.5 5 - X                                     1 j.V.f r }.@X@X@X@X@X@X@X@X@X",
"@X@X@X@X@X@X@X@X).T.M.g.a.R.+. .5 1 a >           . > d 9 - . , a > . , t.c.} +.XXoX@X@X@X@X@X@X@X@X",
"@X@X@X@X@X@X@X@X@X@X~.9 >.@XoX).U 8.k.m       X   o h b.p.u @ N k.B 5 - 9 I |.#X@X@X@X@X@X@X@X@X@X@X",
"@X@X@X@X@X@X@X@X@X@X)...'.@X@XU.W p.D.8.  o > > o & M I.A.c # q.S.d.%.O.O.+.@X@X@X@X@X@X@X@X@X@X@X@X",
"@X@X@X@X@X@X@X@X@X@XoXoXoXoXoXU.^ E l 1 . 8 q.e.2 & C I.A.' - 2 l ,.XX@XoXoX@X@X@X@X@X@X@X@X@X@X@X@X",
"@X@X@X@X@X@X@X@X@X@X@X@X@X@X@X@X@X! D S S =.B.F.M _ } P.K.G q 0 0 ].@X@X@X@X@X@X@X@X@X@X@X@X@X@X@X@X",
"@X@X@X@X@X@X@X@X@X@X@X@X@X@X@X@X#XU.U.U.U.(.s.u.1.$XOXu.s.~ ! ~ K oX@X@X@X@X@X@X@X@X@X@X@X@X@X@X@X@X",
"@X@X@X@X@X@X@X@X@X@X@X@X@X@X@X@X@X@X@X@X@X).&.J oX@X/.7 F Y.Y.@X$X@X@X@X@X@X@X@X@X@X@X@X@X@X@X@X@X@X",
"@X@X@X@X@X@X@X@X@X@X@X@X@X@X@X@X@X@X@X@X@X@X).E.oX@XXXK K U.U.@X@X@X@X@X@X@X@X@X@X@X@X@X@X@X@X@X@X@X",
"@X@X@X@X@X@X@X@X@X@X@X@X@X@X@X@X@X@X@X@X@X@X@X@X@X@XoXoX@X@X@X@X@X@X@X@X@X@X@X@X@X@X@X@X@X@X@X@X@X@X",
"@X@X@X@X@X@X@X@X@X@X@X@X@X@X@X@X@X@X@X@X@X@X@X@X@X@X@X@X@X@X@X@X@X@X@X@X@X@X@X@X@X@X@X@X@X@X@X@X@X@X",
"@X@X@X@X@X@X@X@X@X@X@X@X@X@X@X@X@X@X@X@X@X@X@X@X@X@X@X@X@X@X@X@X@X@X@X@X@X@X@X@X@X@X@X@X@X@X@X@X@X@X",
"@X@X@X@X@X@X@X@X@X@X@X@X@X@X@X@X@X@X@X@X@X@X@X@X@X@X@X@X@X@X@X@X@X@X@X@X@X@X@X@X@X@X@X@X@X@X@X@X@X@X"
};
