/* XPM */
static char *result[] = {
/* columns rows colors chars-per-pixel */
"50 50 208 2 ",
"   c #210F0C",
".  c #24140C",
"X  c #251A0B",
"o  c #2C190D",
"O  c #261513",
"+  c #2C1A1E",
"@  c #331E18",
"#  c #28230D",
"$  c #302B17",
"%  c #352518",
"&  c #271820",
"*  c #2D1C22",
"=  c #321E22",
"-  c #2C2022",
";  c #342125",
":  c #342E23",
">  c #392628",
",  c #3D3031",
"<  c #4A2C1D",
"1  c #512F1C",
"2  c #43311F",
"3  c #56331D",
"4  c #64371E",
"5  c #421633",
"6  c #462926",
"7  c #4B2D27",
"8  c #4B352A",
"9  c #523722",
"0  c #543427",
"q  c #593529",
"w  c #5C3A2B",
"e  c #4F3032",
"r  c #443538",
"t  c #653C28",
"y  c #3D570C",
"u  c #3B4518",
"i  c #355131",
"p  c #434E1D",
"a  c #444D2B",
"s  c #514023",
"d  c #465925",
"f  c #49552C",
"g  c #5A4B33",
"h  c #4D5533",
"j  c #6D432B",
"k  c #67482D",
"l  c #73482E",
"z  c #684938",
"x  c #754C32",
"c  c #724C37",
"v  c #7B4D32",
"b  c #6A5836",
"n  c #735335",
"m  c #79563C",
"M  c #52692A",
"N  c #5D762E",
"B  c #5B792C",
"V  c #4F6230",
"C  c #516330",
"Z  c #5C7532",
"A  c #5F7D36",
"S  c #686039",
"D  c #617E34",
"F  c #591C4E",
"G  c #542940",
"H  c #622B51",
"J  c #793B67",
"K  c #564944",
"L  c #64544B",
"P  c #715956",
"I  c #616A42",
"U  c #796948",
"Y  c #7B6A4C",
"T  c #76764D",
"R  c #6D645C",
"E  c #6B6858",
"W  c #746658",
"Q  c #7A4365",
"!  c #766764",
"~  c #7C7367",
"^  c #814E33",
"/  c #855134",
"(  c #8C5835",
")  c #825639",
"_  c #84593B",
"`  c #8C5B3B",
"'  c #945B39",
"]  c #8A623D",
"[  c #9D633C",
"{  c #A3653D",
"}  c #AD6A3F",
"|  c #845743",
" . c #8C5E40",
".. c #8C6144",
"X. c #8F6149",
"o. c #9D6541",
"O. c #946845",
"+. c #946946",
"@. c #966C48",
"#. c #996B4A",
"$. c #9C734C",
"%. c #8D6958",
"&. c #A36A44",
"*. c #AD6D44",
"=. c #B16E42",
"-. c #A2784E",
";. c #B87649",
":. c #A77856",
">. c #BD7D53",
",. c #865F67",
"<. c #856661",
"1. c #896B65",
"2. c #86756B",
"3. c #977D68",
"4. c #887879",
"5. c #C37D4E",
"6. c #C17E52",
"7. c #4E8400",
"8. c #60812E",
"9. c #648537",
"0. c #658638",
"q. c #79AD3E",
"w. c #76994C",
"e. c #7E8053",
"r. c #7AAD40",
"t. c #7CB241",
"y. c #848357",
"u. c #849651",
"i. c #A88157",
"p. c #B18F51",
"a. c #80AE46",
"s. c #80B345",
"d. c #81BA44",
"f. c #89A256",
"g. c #878760",
"h. c #9C816D",
"j. c #93847A",
"k. c #A58866",
"l. c #B18E63",
"z. c #B7986B",
"x. c #B7996F",
"c. c #A58B72",
"v. c #AB9672",
"b. c #B29D78",
"n. c #BCA46D",
"m. c #B7A17A",
"M. c #BBA57C",
"N. c #BEA97E",
"B. c #C68153",
"V. c #CD8655",
"C. c #C98559",
"Z. c #D18957",
"A. c #D38B59",
"S. c #DB976A",
"D. c #C1A26C",
"F. c #C9B47A",
"G. c #D2BA7C",
"H. c #91ED65",
"J. c #C1F27A",
"K. c #94388D",
"L. c #A4459C",
"P. c #BE69AA",
"I. c #C169AE",
"U. c #948C8F",
"Y. c #999384",
"T. c #A2908E",
"R. c #B0A18F",
"E. c #B9AA97",
"W. c #B2AB98",
"Q. c #AEACA9",
"!. c #C1AD81",
"~. c #C5AA8C",
"^. c #C6B282",
"/. c #CEBC86",
"(. c #D0BB81",
"). c #D0BE88",
"_. c #D0B095",
"`. c #C6BAA6",
"'. c #C7BAB3",
"]. c #D3C18A",
"[. c #D8C78B",
"{. c #DDCC8D",
"}. c #DBCB95",
"|. c #DFD09A",
" X c #E6D68F",
".X c #E8D994",
"XX c #EADC94",
"oX c #EDE09C",
"OX c #CDC5AD",
"+X c #CDCAB3",
"@X c #D2CBB3",
"#X c #D9D1B7",
"$X c #E2D8AB",
"%X c #EEE1A0",
"&X c #EDE3B2",
"*X c #F0E8BC",
"=X c #E1DDC1",
"-X c #E1D9C8",
";X c #E4E5C6",
":X c #EDE6C6",
">X c #F1EBCD",
",X c #ECEDD9",
"<X c #F3EED4",
"1X c #EFEDE8",
"2X c #F3F2E6",
"3X c #F5F4EC",
"4X c #F6F6F3",
"5X c #FCFCFA",
/* pixels */
"d.d.d.d.d.d.d.d.d.d.d.d.d.d.d.d.d.d.d.d.s.d.d.s.a.a.a.a.a.a.s.a.a.T c.~.{.).{.>XT.w.s.d.d.d.d.d.d.d.",
"d.d.d.d.d.d.d.d.d.d.d.d.d.d.d.d.d.d.d.s.a.a.a.y.<.1.3.2.1.u.T ,.<.e Y ).).{.(.=XR N d.d.d.d.d.d.d.d.",
"d.d.d.d.d.d.d.d.d.d.d.d.d.d.d.d.d.s.a.g.1.<.%.c.m.].:X<X&Xv.w Q P.I.H P (.XX].=XW B d.d.d.d.d.d.d.d.",
"d.d.d.d.d.d.d.d.d.d.d.d.d.d.d.s.a.y.1.^.).!.!.c.<.c.m.R.[..X.XU J P.L.; n F.XX{.b D d.d.d.d.d.d.d.d.",
"d.d.d.d.d.d.d.d.d.d.d.d.d.d.s.T <.v.{.XX].^.{.XX).h.<.c.E.F.{.oXY Q K.F n i.G.b B d.d.d.d.d.d.d.d.d.",
"d.d.d.d.d.d.d.d.d.d.d.d.d.s.g.b.!.!.}.<X@X|.oXoX).!.^.h.N. XoX>X2X~ H e b @.n.S 8.d.d.d.d.d.d.d.d.d.",
"d.d.d.d.d.d.d.d.d.d.d.d.d.e.'.*X}.|.<X4X*X<X4X*X/.!.}.).h.N.:X&X.X.XU N u O   N d.d.d.d.d.d.d.d.d.d.",
"d.d.d.d.d.d.d.d.d.d.d.d.s.y.F.*X1X4X4X3X3X4X4X:X}..X%X].^.3.c.N.F. XXXU . J G A d.d.d.d.d.d.d.d.d.d.",
"d.d.d.d.d.d.d.d.d.d.d.d.e.F./.N.}.>X1X&X:X3X3X2X1X4X3X*X%Xc.c.!.{.XXXXoXS F ; M t.d.d.d.d.d.d.d.d.7.",
"d.d.d.d.d.d.d.d.d.d.d.d.e.N./.E.=X&X.X/.{.>X&X.X:X3X&X>X4X~.%.!.XX].}.>XR o @ % A t.d.d.d.d.d.d.d.7.",
"d.d.d.d.d.d.d.d.d.d.d.d.e.k.F.E.{..X/.F.{.oX.X/.}.XX].=X3X~.%.F.].{.:X&Xb n G.>XR B d.d.d.d.d.d.d.d.",
"d.d.d.d.d.d.d.d.d.d.d.d.T 3.v.M.[.(.b.M.{. X/.N.[..X).[..XD.%.3.G. X].{.b m x.=XR B d.d.d.d.d.d.d.d.",
"d.d.d.d.d.d.d.d.d.d.d.d.d # # Y v.v.g Y m.N.b.M.[./.b.M.[.D.%.| v k.{. Xb z k.F.S 8.d.d.d.d.d.d.d.d.",
"d.d.d.d.d.d.d.d.d.d.d.d.d.d.t.p . o l 1 U v.g U v.v.g Y b.D.$.;.[ l.[.D.9     o 8.t.d.d.d.d.d.d.d.d.",
"d.d.d.d.d.d.d.d.d.d.d.d.d.d.d.d c &.&.3 o o l 3 o o l < k @.>.o.$.z.E.l.9 F = M t.d.d.d.d.d.d.d.d.d.",
"d.d.d.d.d.d.d.d.d.d.d.d.d.d.d.f ..Z.;.&.` ( / ` [ &.o.9 o o `  .] z.N.i.9 o % % A t.d.d.d.d.d.d.d.d.",
"d.d.d.d.d.d.d.d.d.d.d.d.d.d.d.f l ;.A.A.[ 0 8 b ] B.{ ( [ o.x @ n x.l.9 b i.G.>XR B t.d.d.d.d.d.d.d.",
"d.d.d.d.d.d.d.d.d.d.d.d.d.d.d.V > / B.A.z - w.H.p.B.5.5.Z.*.l % n z.l.3 n z.N.-XR B d.d.d.d.d.d.d.d.",
"d.d.d.d.d.d.d.d.d.d.d.d.d.d.d.t.f / B.A.w.i Q.1X(.A.;.} ;./ o v i.$.$.s b +.k.`.E 9.d.d.d.d.d.d.d.d.",
"d.d.d.d.d.d.d.d.d.d.d.d.d.d.t.f q >.S.A.U a W._.A.;.} } j % X k @.s # 8.p o . X 8.d.d.d.d.d.d.d.d.d.",
"d.d.d.d.d.d.d.d.d.d.d.d.d.d.d.V > ` 6.Z.A.A.A.A.A.Z.;.{ t * O # # 8.d.d.p J G B t.d.d.d.d.d.d.d.d.d.",
"d.d.d.d.d.d.d.d.d.d.d.d.d.d.d.d.V : w *.V.Z.A.Z.V.*./ 0 = & A d.d.d.d.q.u F 5 M t.d.d.d.d.d.d.d.d.d.",
"d.d.d.d.d.d.d.d.d.d.d.d.d.d.d.d.d.r.a q ' ;.>.*./ q 7 6 6 = Z t.d.d.q.p o % $ % A t.d.d.d.d.d.d.d.d.",
"d.d.d.d.d.d.d.d.d.d.d.d.d.d.d.d.d.f & = 6 7 7 7 7 l v e * ; > Z q.d.p n i.G.oX,XR B d.d.d.d.d.d.d.d.",
"d.d.d.d.d.d.d.7.7.d.d.d.d.d.d.d.r.a > ; q ^ ^ { =.{ w T.W :.6.w Z q.p n z.N.=X1XR B d.d.d.d.d.d.d.d.",
"d.d.d.d.d.d.d.7.7.d.d.d.d.d.d.t.h , Y.P t / { =.*.w Y.R o.S._.| ; 8.d b @.i.v.F.b B d.d.d.d.d.d.d.d.",
"d.7.7.d.d.7.7.d.d.d.d.d.d.d.d.f ! +XR v =.B.B.>.L Y.R ^ 5.5.5.} 7 p 7.d X O . X 8.d.d.d.d.d.d.d.d.d.",
"d.7.7.d.d.7.7.d.d.d.d.d.d.d.d.f Q.5XU.X.>.6.L , '.4.X.' ' { } =.q y 7.d.u Q G B d.d.d.d.d.d.d.d.d.d.",
"d.7.7.d.d.7.7.d.d.d.d.d.d.d.d.f U.2X4X4., , W.3X5X,X~ w q t [ =.j ; y q.u F 5 M q.d.d.d.d.d.d.d.d.d.",
"d.7.7.d.d.7.7.d.d.d.d.d.d.d.d.V ~ OX=X;X#X*X2X5X5X,XOXP = = ^ } ' 7 y p o % $ X 8.t.d.d.d.d.d.d.d.d.",
"d.d.d.d.d.d.d.d.d.d.d.d.d.d.d.d.V ~ R.E.`.@X=X=X;XOXE.E.L & q [ =.t O n i.G.oXY A t.d.d.d.d.d.d.d.d.",
"d.d.d.d.d.d.d.d.d.d.d.d.d.d.d.d.d.f > j.`.`.`.E.R.R.Q 4.L & = :.C.' 7 m z.{.oX<XE B d.d.d.d.d.d.d.d.",
"d.d.d.d.d.d.d.d.d.d.d.d.d.d.d.d.d.f 2.#X;X;X+XW , > j.E.L & 6 &.S.6.w P x.[.>X3XR B d.d.d.d.d.d.d.d.",
"d.d.d.d.d.d.d.d.d.d.d.d.d.d.d.d.t.a ~ @X;X;X;X;XOXE.R.Y.r * v 6.S.S.t ) z.N.+X$Xb B d.d.d.d.d.d.d.d.",
"d.d.d.d.d.d.d.d.d.d.d.d.d.d.d.d.f & - j.+X+XE.R.R.K + + + q ' 6.A.V.z c $.i.g Y h 8.d.d.d.d.d.d.d.d.",
"d.d.d.d.d.d.d.d.d.d.d.d.d.d.d.d.f * w 8 ; ; ; + = 1 4 1 @ > 7 &.S.#.6 + # # 8.d 8.d.d.d.d.d.d.d.d.d.",
"d.d.d.d.d.d.d.d.d.d.d.d.d.d.d.J.I 9 _ @._ v j t l v x x 7 6 &.A.V.c : 9.d.d.d.d.d.d.d.d.d.d.d.d.d.d.",
"d.d.d.d.d.d.d.d.d.d.d.d.d.d.d.J.S w O.$.#.#.+.$.#.#._ v x &.>.>.` 8 9.d.d.d.d.d.d.d.d.d.d.d.d.d.d.d.",
"d.d.d.d.d.d.d.d.d.d.d.d.d.d.d.r.f c -.$.#.#.#.$.#.#.#.#._ 3 % > , 9.d.d.d.d.d.d.d.d.d.d.d.d.d.d.d.d.",
"d.d.d.d.d.d.d.d.d.d.d.d.d.d.d.f < / $.$.#.#.#.$.$.#.#.#._ t % f.J.d.d.d.d.d.d.d.d.d.d.d.d.d.d.d.d.d.",
"d.d.d.d.d.d.d.d.d.d.d.d.d.d.d.u w ..$.$.+.+.#.$.-.$.#.#.+.v < N t.d.d.d.d.d.d.d.d.d.d.d.d.d.d.d.d.d.",
"d.d.d.d.d.d.d.d.d.d.d.d.d.d.q.u m $.$.@._ ..#.#.$.#.#.#.#.+.w @ D d.d.d.d.d.d.d.d.d.d.d.d.d.d.d.d.d.",
"d.d.d.d.d.d.d.d.d.d.d.d.d.d.f 1 ] $.$.#.+.#.#.#.$.$.#.@.+.#.v 2 p q.d.d.d.d.d.d.d.d.d.d.d.d.d.d.d.d.",
"d.d.d.d.d.d.d.d.d.d.d.d.d.t.f w O.$.#.+.) ` #.#.#.#.#._ ` #.m 1 % 8.d.d.d.d.d.d.d.d.d.d.d.d.d.d.d.d.",
"d.d.d.d.d.d.d.d.d.d.d.d.d.d.d n -.$.#._ x ` +.#.#.$.$.#._  .) 3 % D d.d.d.d.d.d.d.d.d.d.d.d.d.d.d.d.",
"d.d.d.d.d.d.d.d.d.d.d.d.d.d.f L $.$.#.m l x  .#.#.-.-.@.v m v t 2 9.d.d.d.d.d.d.d.d.d.d.d.d.d.d.d.d.",
"d.d.d.d.d.d.d.d.d.d.d.d.d.d.M c ..+.@._ x x ] #.@.$.+.k 3 6 > - D d.d.d.d.d.d.d.d.d.d.d.d.d.d.d.d.d.",
"d.d.d.d.d.d.d.d.d.d.d.d.d.d.d.M : z ....v k ) ..j q 8 , , R 4.K 9.d.d.d.d.d.d.d.d.d.d.d.d.d.d.d.d.d.",
"d.d.d.d.d.d.d.d.d.d.d.d.d.d.d.d.d.C : % : : : : : + T.'.Y.2.K 0.d.d.d.d.d.d.d.d.d.d.d.d.d.d.d.d.d.d.",
"d.d.d.d.d.d.d.d.d.d.d.d.d.d.d.d.d.d.d.d.d.d.d.d.M : : : : ; 0.t.d.d.d.d.d.d.d.d.d.d.d.d.d.d.d.d.d.d."
};
