/* XPM */
static char *result[] = {
/* columns rows colors chars-per-pixel */
"50 50 198 2 ",
"   c #1C1D1F",
".  c #24241C",
"X  c #2B2A1D",
"o  c #242618",
"O  c #302E1F",
"+  c #171B2A",
"@  c #191C2B",
"#  c #151927",
"$  c #1E1E31",
"%  c #201F32",
"&  c #1F2227",
"*  c #1D202D",
"=  c #1E2030",
"-  c #232426",
";  c #262924",
":  c #2C2C23",
">  c #22252E",
",  c #312F21",
"<  c #333122",
"1  c #383627",
"2  c #3A3927",
"3  c #3A3728",
"4  c #3D3A2B",
"5  c #353528",
"6  c #222434",
"7  c #232935",
"8  c #2C2D36",
"9  c #272738",
"0  c #262939",
"q  c #2B2A3D",
"w  c #2D323C",
"e  c #34353B",
"r  c #3A3E3D",
"t  c #333637",
"y  c #403D2F",
"u  c #3E423F",
"i  c #42422D",
"p  c #454332",
"a  c #4D4636",
"s  c #4D4B3A",
"d  c #4A473A",
"f  c #514938",
"g  c #515038",
"h  c #58513E",
"j  c #2D3241",
"k  c #2F3B48",
"l  c #323345",
"z  c #343944",
"x  c #3C3E43",
"c  c #36354B",
"v  c #373D4B",
"b  c #383C4C",
"n  c #3D3B51",
"m  c #3B3650",
"M  c #3B424F",
"N  c #3A4147",
"B  c #414444",
"V  c #494E45",
"C  c #44454B",
"Z  c #4A4B4D",
"A  c #454A43",
"S  c #534D43",
"D  c #4B5147",
"F  c #4C5248",
"G  c #55594F",
"H  c #5C5A4C",
"J  c #545447",
"K  c #454C5B",
"L  c #494C5D",
"P  c #474754",
"I  c #45515C",
"U  c #5D5F55",
"Y  c #535359",
"T  c #5C5C5C",
"R  c #575654",
"E  c #6B5F4E",
"W  c #605F5F",
"Q  c #6C6556",
"!  c #716959",
"~  c #534D6A",
"^  c #495661",
"/  c #515E69",
"(  c #54656F",
")  c #586773",
"_  c #656563",
"`  c #6A6864",
"'  c #6E6E6B",
"]  c #716E66",
"[  c #737266",
"{  c #77746E",
"}  c #787668",
"|  c #7B796B",
" . c #767573",
".. c #787771",
"X. c #7B7A73",
"o. c #7F7D78",
"O. c #676B7B",
"+. c #897964",
"@. c #827F71",
"#. c #A37169",
"$. c #A4786C",
"%. c #95846E",
"&. c #838376",
"*. c #84837C",
"=. c #89877D",
"-. c #8B8A7C",
";. c #888577",
":. c #948976",
">. c #94907E",
",. c #A58C77",
"<. c #A8917A",
"1. c #AFA47A",
"2. c #677B85",
"3. c #898A84",
"4. c #949283",
"5. c #99968A",
"6. c #9D9B8B",
"7. c #9F9C91",
"8. c #A19381",
"9. c #AC9984",
"0. c #A29E8E",
"q. c #A79B82",
"w. c #B79D86",
"e. c #A29E91",
"r. c #AEA98C",
"t. c #AFA68B",
"y. c #B7A78A",
"u. c #BCB68E",
"i. c #BAB487",
"p. c #A4A292",
"a. c #AAA695",
"s. c #ACA997",
"d. c #A5A49D",
"f. c #ADAA9A",
"g. c #BFAF92",
"h. c #B1AE9C",
"j. c #B3AA9A",
"k. c #B4B19E",
"l. c #BCB29B",
"z. c #BDB99A",
"x. c #B8B294",
"c. c #8AA0A9",
"v. c #96ADB5",
"b. c #9CB7BE",
"n. c #AFAEA2",
"m. c #B6B4A3",
"M. c #B9B6A3",
"N. c #BCB9A6",
"B. c #B5B5AA",
"V. c #BBB7A9",
"C. c #BEBCA9",
"Z. c #BEBAB1",
"A. c #C59D89",
"S. c #C3A58E",
"D. c #C1A98F",
"F. c #C6B68E",
"G. c #CBBA8C",
"H. c #C8B38D",
"J. c #C4AC92",
"K. c #C9AD94",
"L. c #CCA790",
"P. c #C8B798",
"I. c #D0B697",
"U. c #D5B69C",
"Y. c #D5BA9D",
"T. c #D9BD9E",
"R. c #C1BEAA",
"E. c #C7BBAB",
"W. c #DBBEA1",
"Q. c #C5BEB1",
"!. c #CBC38B",
"~. c #D3CC8B",
"^. c #D1C58A",
"/. c #DBD38C",
"(. c #DFD88D",
"). c #C5C199",
"_. c #DAC09F",
"`. c #C3C1AC",
"'. c #C6C3A7",
"]. c #DEC1A4",
"[. c #D0C2AF",
"{. c #C3C2B7",
"}. c #C3C2BA",
"|. c #CAC7B3",
" X c #D8D5BF",
".X c #E3C4A6",
"XX c #E6C6A8",
"oX c #E4C9AD",
"OX c #EBCAAB",
"+X c #F0CEAE",
"@X c #F1D1AF",
"#X c #F3D2B0",
"$X c #DEDBC5",
"%X c #E1DCC6",
"&X c #E2DFC9",
"*X c #EAE5CE",
"=X c #ECE8D0",
"-X c #F1ECD4",
/* pixels */
"@ @ @ @ @ @ @ @ @ @ @ @ @ @ + @ @ @ @ @ @ @ @ @ @ + + @ @ @ @ * @ = + @ @ @ @ @ @ @ @ @ @ + * + + + ",
"@ + @ @ @ @ @ @ @ @ @ @ @ @ @ @ @ @ @ @ @ @ @ + @ @ @ @ @ @ @ + + + + + @ @ @ @ + @ @ @ @ @ + + + * ",
"+ @ @ @ @ @ @ @ @ @ @ @ @ @ @ @ @ + @ @ @ @ @ + * + * + @ + @ @ + + + * @ 0 k $ @ @ @ @ @ @ @ @ + * ",
"@ @ @ @ $ @ @ @ @ @ @ @ @ @ @ + @ @ @ + @ @ @ @ + + + + @ @ @ + + = + + @ 0 k $ @ @ @ + @ @ @ @ + + ",
"@ @ @ @ @ @ @ @ @ @ @ @ @ @ @ + @ @ @ @ @ & - - ; ; ; & * * + * + + + + + * @ + @ @ = + * @ @ @ + * ",
"# @ @ @ + @ @ $ @ @ @ @ @ @ + @ @ @ @ & ; : < < < < < < ; & + + + + * + + + @ @ @ @ + + * @ @ = + + ",
"@ @ @ @ @ @ + $ @ j C @ @ @ @ + @ @ & : < < < < < < < < O O & + + * + + + + @ @ @ + @ + + + = + + * ",
"@ @ @   @ @ @ + $ n L * @ @ @ @ @ * : < < < < < < < < < X O ; * + + = + + * + + @ @ + * @ @ @ + * + ",
"@ @ @ @ @ @ @ @ @ > @ @ @ @ @ @ * : < < 1 < 2 2 1 2 < < f y O . + @ @ @ + @ + * @ @ @ @ @ @ @ @ + + ",
"@ @ @ @ @ @ @ @ @ @ @ @ + + @ @ & 1 i g g g g g g g 2 2 <.! O - @ @ + @ + @ @ @ @ @ @ @ @ @ & @ + * ",
"@ @ @ @ @ @ @ @ @ @ @ @ + * + # X 1 p p i 2 1 2 u i O g U.%.O X @ @ @ @ * + * @ @ @ @ & @ @ @ @ + * ",
"$ @ @ @ @ @ @ @ @ @ @ @ * + + * : < < < < < < < O O 2 %.D.:.y : @ + @ @ + + + + @ @ @ @ @ @ @ @ + + ",
"@ @ @ @ @ @ @ @ @ @ @ @ @ @ + & < < < < < < < 1 2 s ;.h.l.j.| 5 & @ @ @ @ @ @ @ @ @ @ @ + 7 ) M + * ",
"@ @ @ @ @ @ @ @ @ @ @ @ + @ * ; < : 1 i H 5.f.>.[ ;.%X-X-X-Xe.3 & @ @ @ @ + @ @ @ @ @ @ + b v.( + + ",
"@ @ @ @ @ @ # @ @ @ @ @ @ + + ; < < H C.$X X=XN.<.8.%X-X X*X0.1 - + + + + @ @ @ @ @ @ @ @ > L w @ @ ",
"@ @ @ # @ @ @ @ @ @ @ @ @ * * : < : H |.-X*X*Xp.J.q.N.-X=X$XX.1 - $ + + $ + @ @ @ @ @ @ @ @ + @ @ + ",
"@ + @ @ @ @ + @ + + + * @ @ & < < < p -.j.M.0.9.XXJ.8.a.j.4.d , X $ + @ + @ @ @ @ @ @ @ @ @ @ @ + @ ",
"@ @ * @ + @ @ @ @ @ @ @ # @ - < < < a K.J.y.I.XXW.W.XXL.K.,.4 , : @ @ + @ + @ @ @ @ @ @ @ @ @ @ @ + ",
"@ @ + @ @ @ + + @ @ + = ^ M ; < < < a T.#X#X+XXXW.W.OX+X#X,.< , X $ @ @ @ @ @ @ @ @ @ @ @ @ @ @ @ @ ",
"+ @ @ + * + @ + @ @ + K b.2.- < < < < 9.#XOXK.$.#.#.,.XXXXE , < X @ @ @ @ @ @ @ @ @ + @ @ @ @ @ @ @ ",
"+ + + + + @ @ * @ @ @ j ) v - < < < X S .X+X.XL.A.A.U.+Xw.1 , < : $ @ @ @ @ @ @ @ @ @ @ @ @ @ $ @ + ",
"* + @ @ @ @ @ @ @ @ @ + @ @ @ < < < , o E Y.#X#X#X#X+XK.s X < , . @ @ @ @ @ @ @ @ @ @ @ @ @ @ @ @ * ",
"@ @ * + @ @ @ @ @ @ @ + @ @ @ - < , < X o p +.Y.XXJ.+.4 X , < , $ # @ @ @ @ @ @ @ @ @ % @ @ @ @ @ @ ",
"+ + @ @ @ + @ @ @ @ @ @ @ @ @ @ - , , O X . S W.W.y   . O , : & @ @ @ @ @ @ @ @ @ @ @ % m q @ @ @ @ ",
"@ + @ @ @ + @ @ @ @ @ @ > 9 $ @ @ @ & - > R j.oX].@.q - - & @ @ @ @ @ @ @ @ @ @ @ @ @ q ~ c @ @ @ @ ",
"+ * @ @ @ @ @ @ @ @ @ @ $ P q + @ @ @ + 8 e.E..XXXn. .@ @ @ @ @ @ @ @ @ $ @ @ @ @ @ @ @ 6 % @ @ @ + ",
"* @ @ @ @ @ @ @ @ @ @ @ @ 6 $ @ # @ + e *.Q.Z.[.oXE.d.m + @ @ @ @ @ @ @ # @ @ @ @ @ @ @ @ @ @ @ @ @ ",
"b = @ @ @ @ @ @ @ @ @ @ @ @ @ @ @ @ j 5.n.$XQ.[.Q.V.j.3.9 + @ @ @ @ @ @ @ @ @ @ @ @ @ @ @ @ @ @ @ @ ",
"~ q @ + @ + + + @ @ @ @ @ @ @ + @ % ;.E.N.B.N.].W.w.9.e.] % @ @ @ @ @ @ @ @ $ + @ @ @ @ @ @ @ @ @ + ",
"m 6 @ @ @ v ( 0 @ @ @ @ @ @ @ @ # Z M.`.`.B.{.F.K.S.w.8.0.Y 9 # @ @ @ @ @ + @ + @ @ @ $ @ @ @ @ @ @ ",
"$ @ @ @ + / c.j > @ @ @ @ @ @ @ @ { `.R.C.N.B.P.H.K.w.q.s.{ $ @ @ @ @ @ @ @ $ + @ @ @ @ @ * @ + @ @ ",
"@ @ @ @ + w v $ @ @ @ @ @ @ @ + 8 p.`.N.k.C.m.l..XY.L.S.l.e.8 @ @ @ @ @ @ @ @ @ @ @ @ @ @ @ @ @ @ $ ",
"@ @ @ @ @ @ @ & @ @ # @ @ % @ @ N l.`.m.M.`.l.W.@XY.I..XP.m.R + + @ @ @ @ + @ @ + @ @ @ @ @ @ + + * ",
"@ @ $ @ $ 9 @ @ @ @ @ @ @ % $ # T C.`.k.N.M.u.OXT.^.G.Y.].l.*.* @ @ @ @ @ @ + @ + $ + @ @ @ @ @ + @ ",
"@ @ @ @ @ % @ @ @ @ @ @ @ @ @ @ ..{.C.k.C.x.!.F.1.(.i.y._.t.f.e + $ @ @ @ @ @ @ + + $ + @ @ @ @ @ @ ",
"@ @ @ @ @ @ @ @ @ @ @ @ @ @ @ 6 4.'.N.n.M.B.'.u.i./.).<.u.k.m.W + @ @ @ @ @ @ @ + + + + @ @ @ + @ @ ",
"@ % 9 $ @ @ @ @ @ + @ @ @ @ + w f.`.h.7.f.}.}.n.x./.).s.C.}.n.-.= @ @ @ @ @ @ @ @ @ @ @ @ @ @ @ + + ",
"$ q n $ @ @ @ @ @ $ + @ @ @ + B m.`.=.' m.B.f.f.r.~.z.*.*.B.k.p.z + @ @ @ * @ @ @ @ @ @ @ @ @ + * @ ",
"@ $ $ $ @ @ @ @ @ @ @ + @ @ + Y C.`.=.5.`.M.f.z.r.~.x._ I M.`.s.T @ @ @ @ @ @ @ @ @ @ @ @ @ @ @ + @ ",
"+ @ @ @ @ @ @ $ @ @ @ @ + @ @ ` `.M.f.`.R.n.R.`.z.~.r.Z > 5.`.N. .$ @ @ @ @ * @ @ @ @ @ $ = @ @ @ @ ",
"+ + @ @ @ @ @ @ @ @ @ @ @ + @  .N.h.R.`.0.4.p.a.p.r.:.8 @ T C.E.p.8 + @ + @ @ @ @ @ @ @ = = * @ @ @ ",
"@ + * @ @ @ @ @ @ @ @ @ + @ $ X.k.C.`.6.] } ` Q Q *.` 8 + 8 5.`.M.n + @ @ @ $ @ @ @ @ $ @ @ @ @ = = ",
"@ @ @ @ @ @ @ @ @ @ @ @ @ @ @ o.`.`.f.` p.C.N.h.-.U 0.W @ @ R N.M.Z + + @ @ @ @ @ @ @ @ @ * @ @ = M ",
"+ @ @ @ + @ @ @ @ @ @ j 0 @ @ X.`.M.` 4.`.`.`.C.4.J 4.3.6 + * T _ e 6 + # $ @ @ @ @ @ @ @ @ @ @ @ = ",
"+ @ @ @ @ @ @ @ @ + j O.K + + b @.( } R.`.`.`.`.6.F &.k.x > t r B D r @ @ + @ @ + + + + @ @ @ @ + @ ",
"* + @ @ @ @ + @ @ + 6 K l + @ @ * I k.`.`.`.`.`.-.A G [ F V V F F F u @ + @ @ @ @ + $ $ @ @ + @ @ @ ",
"@ @ @ @ @ @ @ + @ @ @ @ $ @ @ @ # ' `.`.`.C.m.4.U A D D F F F F F F N @ @ @ @ @ $ @ $ + @ @ @ @ + @ ",
"@ + @ @ @ @ @ @ @ @ @ @ @ @ @ @ & w &.f.p.&.T F D D D D F F F F F F u & @ @ @ @ @ + + $ @ @ @ @ * @ ",
"@ @ $ @ @ @ @ @ @ + @ @ @ @ @ @ @ 8 F R J V F F F F F F F F F F F F u * + @ @ + @ @ @ @ @ @ @ @ @ @ ",
"+ + + + + + $ @ + + @ @ $ @ @ # # e F F F F F F F F F F F V F F D V t * + @ @ * @ + @ @ + @ + @ + @ "
};
