/* XPM */
static char *result[] = {
/* columns rows colors chars-per-pixel */
"50 50 219 2 ",
"   c #171A2A",
".  c #191C2B",
"X  c #161929",
"o  c #1D1F30",
"O  c #1C242B",
"+  c #1F2D2A",
"@  c #1F312A",
"#  c #1E2131",
"$  c #232E2B",
"%  c #23322B",
"&  c #2A3C2B",
"*  c #25392A",
"=  c #222334",
"-  c #262639",
";  c #252939",
":  c #2B2B3E",
">  c #262937",
",  c #2A323A",
"<  c #2B412B",
"1  c #32482C",
"2  c #2E5928",
"3  c #2F5827",
"4  c #375D2A",
"5  c #3C5C2B",
"6  c #3C632C",
"7  c #3F682C",
"8  c #3B7729",
"9  c #466D2B",
"0  c #4E7C2C",
"q  c #4C7430",
"w  c #517F30",
"e  c #2D2D41",
"r  c #2E3241",
"t  c #323146",
"y  c #393C4C",
"u  c #36384A",
"i  c #3E3A52",
"p  c #38424F",
"a  c #3D4050",
"s  c #484D5C",
"d  c #435446",
"f  c #524C67",
"g  c #515F67",
"h  c #5B6872",
"j  c #56646F",
"k  c #686B7C",
"l  c #36961C",
"z  c #379A1C",
"x  c #399A1C",
"c  c #3CA51D",
"v  c #3DAB1C",
"b  c #3EB21C",
"n  c #3DBB1B",
"m  c #3F9D24",
"M  c #3FA721",
"N  c #409F1E",
"B  c #42A41E",
"V  c #43AC1E",
"C  c #44B31E",
"Z  c #4DB51F",
"A  c #46BB1E",
"S  c #4ABD1F",
"D  c #46872A",
"F  c #478D28",
"G  c #598B2D",
"H  c #53882C",
"J  c #449A27",
"K  c #5D932E",
"L  c #428730",
"P  c #549035",
"I  c #4CAE21",
"U  c #47A926",
"Y  c #45B423",
"T  c #4CB422",
"R  c #4DBB22",
"E  c #4CB22C",
"W  c #4ABC27",
"Q  c #52B324",
"!  c #53BB21",
"~  c #53B42B",
"^  c #5EBD2B",
"/  c #52AA34",
"(  c #57AF3C",
")  c #59A82F",
"_  c #6AA63A",
"`  c #71A73F",
"'  c #6EB631",
"]  c #6FB531",
"[  c #45C51E",
"{  c #4CC41F",
"}  c #43CD1D",
"|  c #4BC91E",
" . c #47DE1D",
".. c #4CDC1E",
"X. c #46D41D",
"o. c #51D91F",
"O. c #50D71F",
"+. c #4BE41D",
"@. c #51E51F",
"#. c #54EA1E",
"$. c #4EC321",
"%. c #4DC920",
"&. c #53C421",
"*. c #5CC323",
"=. c #53CC22",
"-. c #5CCE23",
";. c #57C72D",
":. c #54D422",
">. c #5BD322",
",. c #55DC21",
"<. c #5BDC23",
"1. c #59D42F",
"2. c #54CD31",
"3. c #61C324",
"4. c #64CC24",
"5. c #69CC29",
"6. c #6CC828",
"7. c #63D424",
"8. c #6CD326",
"9. c #65DE24",
"0. c #6CDB26",
"q. c #6CDA2B",
"w. c #63DE2B",
"e. c #71D42B",
"r. c #73DA29",
"t. c #7BDC2B",
"y. c #7FD12D",
"u. c #6BCC36",
"i. c #6CD538",
"p. c #7ADB35",
"a. c #77CC2C",
"s. c #52E323",
"d. c #5DE422",
"f. c #52E825",
"g. c #5BEB22",
"h. c #5BE72A",
"j. c #5DE734",
"k. c #62E324",
"l. c #6AE425",
"z. c #63EB24",
"x. c #6BEB25",
"c. c #67EB2C",
"v. c #73EF26",
"b. c #7FE42A",
"n. c #75EB2A",
"m. c #7CE929",
"M. c #63F124",
"N. c #6FF224",
"B. c #74F126",
"V. c #75F229",
"C. c #7CF229",
"Z. c #79F226",
"A. c #6CEF34",
"S. c #6BE637",
"D. c #72ED39",
"F. c #7AF139",
"G. c #68B54E",
"H. c #6FC543",
"J. c #6ED645",
"K. c #79C05F",
"L. c #7FDF5A",
"P. c #7CDB4A",
"I. c #6FEE46",
"U. c #7AED48",
"Y. c #7DF14A",
"T. c #74F042",
"R. c #83DC2D",
"E. c #89DF2E",
"W. c #8DDF3B",
"Q. c #87D537",
"!. c #83EA2A",
"~. c #86E52D",
"^. c #90EF2F",
"/. c #84F32C",
"(. c #8BF52C",
"). c #8FF92C",
"_. c #91F52D",
"`. c #96F92E",
"'. c #8CE736",
"]. c #92EE3D",
"[. c #93ED35",
"{. c #8EF434",
"}. c #8CF53A",
"|. c #81F335",
" X c #94F436",
".X c #94F933",
"XX c #9AF932",
"oX c #95F53C",
"OX c #9BF63B",
"+X c #9BFA3A",
"@X c #8BCF4C",
"#X c #94DC4A",
"$X c #80DC47",
"%X c #95E94C",
"&X c #85F145",
"*X c #9EF644",
"=X c #9AF44B",
"-X c #96F449",
";X c #88E55A",
":X c #95EB58",
">X c #85F258",
",X c #8EEF4F",
"<X c #A1F749",
"1X c #ABF95B",
"2X c #A7F855",
"3X c #8BE866",
"4X c #93E66D",
"5X c #95EA6A",
"6X c #B2F86B",
"7X c #AAF272",
"8X c #9BB1B1",
"9X c #8AA0A8",
"0X c #9EF082",
"qX c #BCF981",
"wX c #BCF299",
"eX c #C2F994",
"rX c #C7F9A9",
"tX c #C8EFA5",
"yX c #E5FBCE",
/* pixels */
". . . . . . . . . . . . . . . . X . . . . . . .   . . . . . . . . . . . . . . . . . . . . . . . . . ",
". . . . . . . . . . . . . . . . . . . . . . .   . . . . . .   . . X . . . . . . . . . . . . . X X . ",
". . . . . . . . . . . . . . . X . X . . . . . . . . . . .   O   . . . O . > r . . . . . . . .   O X ",
". . . . . . . . . . . . . . . = @ @ % % O . . . . . . . . . .   . . . X X > u O . O . . . . . . X . ",
". . . . . . . . . . . . . X + J 0.r.l.0.Q 2 . . . . .   . .   O . X . . . . . . . . . O   . . O . . ",
". . . . . . o . . . . . . O ) (.2X<X(.F.}.b.9 . o   . O .       . . . . . . . . . . . . . . . . . O ",
". . . . . . . . X , a . X 4 -X`.6XeXY.>XA.}.E.d e X . .   .   . . . . . . X X . . . . . o . . . . . ",
". . . . . . . . X s s # O Q V.C.,X:X-XF.M.Y.*X] & X . . .   O . . X O . X . . . . .   . . . . o . . ",
". . . . . . . . . = . X 2 s.h.z.z.Y.}./.g.A.=X`.5.&   . . . . . . . . . X . . . . . . . . . . . . . ",
". . . . . . . . . . . $ E I.f.g.Z.l.,.o.} <.oX<Xv.G.= . o . . . . . . . . . . . . . . . . . . . . . ",
". . . . . . . . . . $ U T.0Xf.g.o.B Z ! z v 3X2Xv.t.& . . . . . X . . . . . X . . . . . . . . . X O ",
". . . . . . . . .   3 k.M.f.o...C x B 3.c l W  X-X~.q   # e = . . . . . . . . . . . . . o . . . . . ",
". . . . . . . . . . m g.f.s.$.:.C 6.4.n.>.v z 8. XXXG . e f t   . . . . . . . . . . . . . $ k a . . ",
". . . . . . . . . $ u.U.+.T.h.X.V ! -.#.x.d.b ! ^.(.R.$ # e #   . . . X . . . . . . . . X y 8Xg X . ",
". . . . . . . . X & '.&Xg.z.@.b B &.9.k.M.N...C ~.C.R.& .   . . . . . . . . . . . . . . . $ s , . . ",
". . . . . . . . X w OXv.v.g. .Z ! ! V &.z.>.l.! -.v.OXq   .   . . .   .   . . . . . . . . . . . . . ",
". . . X . . . . . P .Xg.x.#.+.! B x c 6.Z.&.m.&.{ Z.XXG . . . . . . . . . . . . . . . . . . . . . . ",
". . . . . . .   + @X{.c.z.+.k.I x v x x ! =.=.m.! x.`.G . X . . . . . . . . . . . . X . . . . . . . ",
". . . . . . .   % R.(.4XJ.+.9.! { { l l l { -.!.Z d./.G X . . . . . . . . . . . . . . . . . . . . . ",
". . . . . . . . % R./.L.3X+.0.! >.B l l l ^ 4.4.} @./._ O . . . . . . . . . . . . . . . . . . . O . ",
". . . . . . . . % 5.oXz.f.O.R } | x l V S 7.7.4.} ..{.#X% . . . . . . . . . . . . . . . . . . .   . ",
". . . . . . . . % R.6XD.+.| A +.&.B l [ ,.<.*.7.[ T ^.E.% X . . . . . . . . . . . . . . . . . . . . ",
". . . . . . . . % E.oX-Xo.c { +.! B C V c Z 8.0.[ %. X#X& X . . . . o . . . . . . . . . . . . . . . ",
". . . . . . . . % t.XXoX-.z { g.3.B %.*.v V !.t.%.l.OXW.$ . . . . . . . . . . . . . . = i : . . . . ",
". X . . . . . . @ r.XX-XQ z 7.#.! 8.k.>.-.u.:Xv.<.7.<X'.& . . . . . . . . . . . . . . : f i . . . . ",
"X O . . . . . . % p.XX%XU x k...V m.g.[ { u.eXD.x.0. X[.5 . . . . . . . . . . . . . . . = = . . . . ",
". . . . . . . . % P.OXp.m x .. .c d.d.{ V i.3X#.k.z.=X].9 . X . . . . . . . . . . . . . . . . . . . ",
"y = X . . . . . % 0.<X7X/ z X.+.B <.,.,.c.5X1.k.V n.*X^.9 X . . . . . . . . . . . . . . . . . . . . ",
"f e . . . X . X $ e.1XtXG.m [  .c *.B.x.M.n.%.*.Z m.%X[.4 . . . . . . . . . . . . . . . . . . .   . ",
"i = . . . u h > . F OX].E x v [ | Q !.N.9.A U V { (.6XW.$ t - . . . . o .       . . . o . . . . . . ",
"o   . . . g 9X, o D .X]./ / V [ k.c q.qX:X[ Q T -.*X1XR.$ # # . . . . . . . o   . . . . . . . . . . ",
"    . . . , y . . D `.^.W J Y $.m.{ Y 4X:X#.k.A <.%X+XK   . . . . . . . . . . . . . . . . . . . . . ",
". . . . . . . .   G _._.$.z &.9././.=.| #.k.:.B ,.v._.0   . . . . .   . . . . . . .   . . . .     . ",
". . . . o - . . X 5 :X1Xq.U T w.V._.r.! Q 8.V C %.x.~.& . . . . o . . . .     . . . . . . . . . . . ",
". . o   o o . . X $ Q.2Xm.{ c u.c.x.! ^ ;.4.! { E &Xa.$ . . X O . o . . .   . .   . . . . . . . . . ",
". . . . . . . .   O ~ V. X;XU Q =.,.&.C T &.W c U S.8 . . . . . . . . . . . . . . .     . . . . .   ",
". # - o . . . . . . 3 3X*X*X4X~ U A v A J.;.n B R.6.@ X . . . . . o . o . . . . . . . . . . . . . . ",
". : i # . o . . . X X L Z.OX6XP.( / 2.E %.:.&.^ ~.6 X . . . . . . . . . . . . . . . . . . .   . . . ",
". o # o . . o . . . . * <./.Z.A.3XK.m ( W M G.~.t.% X . . . . . . . . o . . . . . . . . . . . . . . ",
". . . .       o . .   O I M.g.s.U.U.W C 2.H.t.!.H . . . . . . . . . . . . . o . . . . . # # . . . . ",
". . . . .   .   . . .   4 <.h.j.#.Y.>XS.rXrXeXE.&   .   o   . .   o . . . . . . . . o . # # . . . . ",
". . .     . . . . X . . . 6 b.c.g.M.U.F.7XyXyXG.. . . o     o .   . .   . . . o . . . . . . . . O # ",
". . O   . . . O . . . .   o 1 ] &XM.Z.XX=X-XQ.1   . . . o   . .   .   . . . . . . . . . . . O . # y ",
"O   . .   . . X . . . r -     $ 0 ' ] G P H < . . . . . .   .     . . .   . . . . . . . . . . . O # ",
"  . . . . . X . . . e k s o       $ O   X X . X . . . . . .   . . . . . .   . . . . . . . . . . . . ",
". . . . . X O X . X - s r   . . . . X . . X . . . . . . . . . . . . . .   . . . . . . . . . . . . . ",
". . .   . . . . . . . . . . . . . . .   . . . . . . X . . . . . . . . . . . . . o   o . . . . . . . ",
". . . . . . . . . . . . .   . . . . X   . . . . . . . . .   . . . .       . . . . . . . . . . . . . ",
". . . . . . . . . . . . . .   .     . . . . . . . .   . . .   . . . . . . . . . . . . . . . . . . . ",
". . . . . . .   . . . . . . o . . . . . . . . . . . . . . . .   . . .   . . . . . . . . . . . . . . "
};
