/* XPM */
static char *result[] = {
/* columns rows colors chars-per-pixel */
"50 50 175 2 ",
"   c #161927",
".  c #1A1B26",
"X  c #171B2A",
"o  c #191C2B",
"O  c #1D1F31",
"+  c #201F2B",
"@  c #201F33",
"#  c #17202D",
"$  c #1E212E",
"%  c #1E2231",
"&  c #22232D",
"*  c #2A2B2E",
"=  c #222433",
"-  c #252936",
";  c #2A2C34",
":  c #252738",
">  c #252A39",
",  c #2A2C3A",
"<  c #332E31",
"1  c #392F31",
"2  c #362E39",
"3  c #2F3136",
"4  c #2D313B",
"5  c #333033",
"6  c #33363C",
"7  c #393238",
"8  c #37393E",
"9  c #3A383E",
"0  c #412F32",
"q  c #423135",
"w  c #403A3F",
"e  c #2B2A40",
"r  c #2D3342",
"t  c #2F3946",
"y  c #2E3C4D",
"u  c #333544",
"i  c #353A43",
"p  c #3A3E44",
"a  c #343548",
"s  c #353C4A",
"d  c #393E4B",
"f  c #39354C",
"g  c #3A3650",
"h  c #3D3952",
"j  c #3B4147",
"k  c #37424F",
"l  c #3C424A",
"z  c #3D4453",
"x  c #424145",
"c  c #4B4046",
"v  c #42454B",
"b  c #4C444A",
"n  c #4B494A",
"m  c #575240",
"M  c #5E544C",
"N  c #414453",
"B  c #444A53",
"V  c #4B4C52",
"C  c #444C5A",
"Z  c #494D5B",
"A  c #514F52",
"S  c #4E5355",
"D  c #45505C",
"F  c #4C535A",
"G  c #535357",
"H  c #51555C",
"J  c #52595F",
"K  c #5E5B5A",
"L  c #7C4847",
"P  c #7C545B",
"I  c #696057",
"U  c #6B655B",
"Y  c #514C67",
"T  c #544C6D",
"R  c #4C5662",
"E  c #465362",
"W  c #505760",
"Q  c #545C63",
"!  c #5B5F64",
"~  c #545E6B",
"^  c #5D646C",
"/  c #576269",
"(  c #556371",
")  c #5B6673",
"_  c #5C6A74",
"`  c #5C6B7A",
"'  c #646A6D",
"]  c #62666C",
"[  c #7B7C68",
"{  c #7B766D",
"}  c #636B73",
"|  c #6B6D73",
" . c #646E7A",
".. c #627176",
"X. c #6A7176",
"o. c #65717B",
"O. c #6B737C",
"+. c #717170",
"@. c #71797D",
"#. c #777679",
"$. c #8F5454",
"%. c #AE5858",
"&. c #807075",
"*. c #877E70",
"=. c #A0776F",
"-. c #7C837C",
";. c #ABA255",
":. c #85856B",
">. c #938E6A",
",. c #949067",
"<. c #9A9466",
"1. c #8E8276",
"2. c #86847F",
"3. c #8E877C",
"4. c #8F897D",
"5. c #667482",
"6. c #6B7782",
"7. c #677B87",
"8. c #6C7A85",
"9. c #6C7D8A",
"0. c #727C84",
"q. c #747F89",
"w. c #778187",
"e. c #7E8084",
"r. c #768189",
"t. c #79848D",
"y. c #748694",
"u. c #7A8791",
"i. c #7E8A93",
"p. c #7E8F9D",
"a. c #838382",
"s. c #8E8E89",
"d. c #928C82",
"f. c #9B978E",
"g. c #9F998F",
"h. c #818C94",
"j. c #818E99",
"k. c #85929D",
"l. c #919390",
"z. c #999894",
"x. c #9D9D9A",
"c. c #B7958E",
"v. c #A09F98",
"b. c #A4A098",
"n. c #ADA89E",
"m. c #AAA59C",
"M. c #BBA69D",
"N. c #8496A4",
"B. c #8996A0",
"V. c #8799A6",
"C. c #8B9AA4",
"Z. c #8E9DA9",
"A. c #919CA5",
"S. c #909EA9",
"D. c #8CA0A9",
"F. c #92A2AD",
"G. c #9BA7AE",
"H. c #8EA5B6",
"J. c #94A6B2",
"K. c #95A9B6",
"L. c #98AAB6",
"P. c #95ABB9",
"I. c #99AEBA",
"U. c #9CB6BF",
"Y. c #AAAAA3",
"T. c #B2AFA6",
"R. c #B5B0A7",
"E. c #B5B3AB",
"W. c #A5AEB2",
"Q. c #A1AFB8",
"!. c #A9B5BC",
"~. c #BBBAB3",
"^. c #BDC7CE",
"/. c #BAC8D1",
"(. c #C1CDD4",
/* pixels */
"o o o o X o o o o o o X o o o o o X o o o o o o X X o o o o o o o o o X # o X o o O X X o o o   X o ",
"o o o o o o o o o o o o o o o o X o O X . X @ w n 7 o o o o o o X o o o o o o X o X o o o o o o . o ",
"o o o o o o o o o o o o o o o o X X X X o , U *.1.=.L + o o o o # o o o o - a O o o o o o o o o o X ",
"o o o o o o o o o o o o o o o o X O X X o ! v.s.l.M.c.G X o o o X o o o o - a O o o o o o o o o X o ",
"o X o o o o . + o o o o o o o o o o o X d F.G.Q.!.Y.m.]   o o o o X o o o o # X o o # o O o $ o o o ",
"  o o o o o o o o   o o o o o o o o o   ~ /.W.^./.Y.f.K o X o X o o o o X o o X o o o o o o o o $ # ",
"o o o o o o o o o u N o o o o o O o o o , a.x.x.x.R.4.I $ o o o o o o o X # o o o o o o o # o o X . ",
"o o o o o o o o o N Z o o o o o X X o o @ a.x.Y.Y.R.4.M $ o # o o X o o o X X o o o o X o o o o o o ",
"o o + o o o o o o O O o o o o o o o o o = *.Y.v.v.b.d.x . o o o o o o X o o X # o o o o o o o o o o ",
"o o o o o o o o o o o o o o o o o o o o O ! E.~.E.m.z.; . # o $ o o o o o X o o o o o o o o o o $ o ",
"o o o o o o o X o o o o X # o # o o o o   e a.g.n.b.G o o % = o X o o o o o o o o o o o . o o o o o ",
"o o o o X o O O o o o o o o o X X o o : % , G U { +./ z Q O.Q > X X o o X o X o o o $ o o o # o X o ",
"o o o o o o X o o o o o X o o o X o B ..q.p.C.A.A.F.w.X.w.w..._ : X o o o o o o o o o o o - _ k X o ",
"o o X o o o o X o o o o X o X o X u ' O.N.O.| | i.V.' +.O.@.....y X o X o o X X o o o o X l P./   $ ",
"o o o o o o o o # o o o X o X o o V | @.k.$.%.$.w.h.X.J ^ @.k.u.k o o o o o X o o o o o o % C 4 . . ",
"o o o o o o o o o o o o o o # o o B ' O.k.#.%.&.V.w.X.G j / k.i.% o o o o o o o o o o o o o o o o o ",
"o o o o o o o X o o o o o o o o o p ! | h.k.#.k.C.@.{ ' l l J k o o o o o o o o o o o o o o o o o o ",
"o o o o X # o o o o o # o o o o o s Z U ,.h.h.h.w.-.;.[ V b 9 o o o o o o # o o o o o X o o o o o o ",
"o o o o o o o o o o o % E k o o o $ = m ,./ S A A ' <.:.Q x p l % # o o o o # o o o o o o o o o o o ",
". X o o o o X o o o   D U.7.# o X X : p G p < q 0 w / G l l B 9.k X X X o o o o o o o X o o o o o o ",
"o o o o o o o o X X . r ) a o X X : ) ) B 6 5 1 0 7 ; . = 6.C.K.` X X o o o o o o o o o o o O o o o ",
"o o o o o o o o o o o o o X X o X B C.F.8.5 * < 5 9 * . $ o.F.u.z % o o o o o o o o o o o # o X o o ",
"o o o X o o o o o o o o o o o o : 0.Z.J._ & 5 ; 5 9 ; - o ^ F.O.s % o o o o o o o o o o O o X X o o ",
"o X o o o o o o o o o o o o o X B C.Z.F.D d 8 * 6 ^ } C o ~ F.i.z r o o o o o o o o o % h e X O o o ",
"o X o o o o o o o o o o = : @ - 0.F.D.V.4 ^ X.Q O.i.o.F o Q F.k.h y $ o o o o o o o o e Y g o o o o ",
"# o o o o o o o o o o o @ N , d k.C.F.y.> J u.u.i.0.J B o D C.k.B 2 & o o o o o o o o o : @ o o o o ",
". o o o o o o o o o o o o = o d } 0.k.` $ j Q _ X.F p , X l C.F.0.] a o o o o o o o o o X . o o X X ",
"h % o o o o o # o o o o o o o p J J } s   3 l p i j p # X - O.} } W @ o o o o o o o o o o o o o O X ",
"T e o o o o o o . o o o o $ $ F H 6 & o o 4 l 4 ; l j = o O = p ! Q @ o o o o o o o o + o o o o o X ",
"g O o o o i ( - # o o o o o . ; ; & o o o 6 l ; - j j : o u - * c f . o o o o o o o o O + o o o o o ",
"o o o o   / D.r $ o o o o o o   $ . o o $ p l ; = j c 2 . = o & +     + o @ o o o o o o o o o o o o ",
"o o o o o 4 s # o o o o o o o o . . o o $ j x - $ x b , X o o o o   o o     o o o o o o o o o o o o ",
"o o o o + o o o o o o o o o o o o o o o & c c & $ x j 3 o o o o o o o o o o o X O X X X o o X O o o ",
"o o O o @ @ o o o o o o o = o o o o o o 4 j p $ $ j l 6 o o o o o O o o o o O X X X O X o o o X o o ",
"o o o o @ + o o o o o o o o O o o o o # l / Q # = F J _ : X X O X O o o o o o o o X o X o o o X X o ",
"o o o o o o o o o o o o o o o o o o o % B w.N.> , ^ Q k.r X o o o o o O o o o o X O o X o o o o o o ",
"o @ , O o o o o o o X X o o o o o o o % } k.V.- > 0.q.Z.d X X X o O o o o o o o o o o o o o o o o X ",
"o , h @ o o o o o o o X o o o o o o o , j.H.N.- - j.S.J.E X O X o o o o o o o o o o o o o o o   o o ",
"O O @ o o o O o o o X O X o o o o o o d B.F.p.% - i.D.P.~   X O o o X O o o o o o o o o o o o o o o ",
"o o X o o o o o o o o o o o o O o o X F Z.F.y.: - i.S.I.`   X X o O o o o o o o o o o o O % o o o o ",
"X o # o o o X o o o o o o X X % o o o ^ F.F.9.o : i.F.I.5.X o o o o o o o o o o o o O o % % o o o o ",
"o o X o X o o o o o X X o O o X o o = 0.Z.J.5.o = y.Z.P.7.% o X X o o o o o o o o o o o o o o o O O ",
"o o o o o o o o o o o X X O O X o X , k.S.J.o.o = u.D.P.p.> o o X X o o o o o O o o o o o % o o : g ",
"o o o o o o o o o o O r > o o X o   l k.Z.J.5.X = q.D.P.H.e X o O X o o o o o o o o o o o o o o o O ",
"o o o o X X o o o o e  .Z O X X o   R F.Z.K.` . O q.S.K.P.y   o o o o X o o   o o o o o o o o o o o ",
"o o o o O X o o o o : Z r X o o o   l i.Z.Z.F   % 6.t. .r.z   o X o o o   o o o o o O o X o X o o o ",
"o o o o X o o X o o o o o o X o o $ ; j j.O.> X = F 6 * p z X o o o X o o o o o o o o o o o o O o o ",
"o o o o o o X o o o o o o o o o ; p 8 ; Q J - X % l p i v 4 o o o o o o o o o o o o O o o o o o o o ",
"o o o X O X o o o o o o o o o @ , u , + & + o o o = l l l $ o . o o o o o o o o o X o o o o o o o o ",
"O o X X X X o o o o o o o o o o o o o . o o o o o o $ $ . o o o X o o o o o o o o o X o o X o X o o "
};
