/* XPM */
static char *result[] = {
/* columns rows colors chars-per-pixel */
"50 50 216 2 ",
"   c #0F090C",
".  c #190F14",
"X  c #1C1115",
"o  c #2F1A0F",
"O  c #221519",
"+  c #29181C",
"@  c #331E1A",
"#  c #3A251A",
"$  c #3C231C",
"%  c #2E3017",
"&  c #2D1B21",
"*  c #371925",
"=  c #3B2725",
"-  c #363329",
";  c #3E392A",
":  c #43271A",
">  c #512F1F",
",  c #48391C",
"<  c #5A351E",
"1  c #431734",
"2  c #432926",
"3  c #4B2D26",
"4  c #45272B",
"5  c #4A3627",
"6  c #433D2A",
"7  c #503722",
"8  c #54332A",
"9  c #5A3828",
"0  c #5D3D2B",
"q  c #473536",
"w  c #5A3D37",
"e  c #623C23",
"r  c #613C2D",
"t  c #623F33",
"y  c #34431E",
"u  c #3F4226",
"i  c #414E1C",
"p  c #54620B",
"a  c #49482A",
"s  c #58462C",
"d  c #49552D",
"f  c #4A5A2C",
"g  c #5A5329",
"h  c #5F4C32",
"j  c #5D4539",
"k  c #524F38",
"l  c #4F5C30",
"z  c #63452D",
"x  c #6B432D",
"c  c #6A492A",
"v  c #734629",
"b  c #764A2C",
"n  c #66572F",
"m  c #624634",
"M  c #6B4535",
"N  c #6B4C31",
"B  c #6E4D39",
"V  c #744A35",
"C  c #7A4C33",
"Z  c #6A5937",
"A  c #735335",
"S  c #7B5235",
"D  c #7C553C",
"F  c #755B3B",
"G  c #4C662A",
"H  c #55692E",
"J  c #51752B",
"K  c #5C7B2D",
"L  c #4D6030",
"P  c #586735",
"I  c #577232",
"U  c #5E7C35",
"Y  c #6A6D35",
"T  c #602F4D",
"R  c #733962",
"E  c #5C4843",
"W  c #5C4E4C",
"Q  c #5E5449",
"!  c #694C45",
"~  c #665649",
"^  c #76594A",
"/  c #685C56",
"(  c #5C6040",
")  c #6A644B",
"_  c #736245",
"`  c #737B4E",
"'  c #6D635D",
"]  c #776C5D",
"[  c #796B64",
"{  c #7E7169",
"}  c #804E34",
"|  c #875435",
" . c #835539",
".. c #855C3C",
"X. c #925937",
"o. c #955D3D",
"O. c #886B3D",
"+. c #98613E",
"@. c #A4643C",
"#. c #AE6B3F",
"$. c #8B5E40",
"%. c #815F49",
"&. c #925F43",
"*. c #846546",
"=. c #8E6342",
"-. c #936444",
";. c #9B6444",
":. c #926946",
">. c #996C4A",
",. c #957843",
"<. c #90734B",
"1. c #9D734C",
"2. c #8D6A58",
"3. c #8A7958",
"4. c #977156",
"5. c #997A56",
"6. c #A46A46",
"7. c #AC7248",
"8. c #B5754B",
"9. c #BE794C",
"0. c #B77A55",
"q. c #86766D",
"w. c #997861",
"e. c #897B74",
"r. c #4E8400",
"t. c #5F8932",
"y. c #618236",
"u. c #668B38",
"i. c #698D39",
"p. c #758A37",
"a. c #699336",
"s. c #6A923A",
"d. c #6D9A3A",
"f. c #719E3D",
"g. c #72A23D",
"h. c #78AB3F",
"j. c #708C46",
"k. c #779547",
"l. c #79A447",
"z. c #7CAF42",
"x. c #7CB341",
"c. c #7C8162",
"v. c #87984C",
"b. c #869151",
"n. c #9E905F",
"m. c #A5895F",
"M. c #A5945B",
"N. c #80B245",
"B. c #81BA44",
"V. c #84B14E",
"C. c #89A555",
"Z. c #908F67",
"A. c #8D8775",
"S. c #94897B",
"D. c #A48362",
"F. c #A98C67",
"G. c #B08D62",
"H. c #A59665",
"J. c #B19166",
"K. c #B89666",
"L. c #BA9967",
"P. c #B5966C",
"I. c #B7996F",
"U. c #A78D72",
"Y. c #AB9675",
"T. c #B9A275",
"R. c #C78355",
"E. c #D38C5A",
"W. c #D79162",
"Q. c #C1A16B",
"!. c #C5AA74",
"~. c #C5AB78",
"^. c #C9B37C",
"/. c #D2BA7C",
"(. c #867D81",
"). c #9C9485",
"_. c #A99C8A",
"`. c #A99D91",
"'. c #AEA896",
"]. c #B1AAA2",
"[. c #C0AB81",
"{. c #C9B484",
"}. c #CFBD88",
"|. c #D1BE86",
" X c #C8B690",
".X c #DBC683",
"XX c #D5C38A",
"oX c #DCCB8D",
"OX c #D7C599",
"+X c #D7C99E",
"@X c #E4D591",
"#X c #EDDF95",
"$X c #DACCA2",
"%X c #D3C6AA",
"&X c #D8CBA8",
"*X c #DFD2A6",
"=X c #DED2AE",
"-X c #CFC8BD",
";X c #D8CCB5",
":X c #D8D3B7",
">X c #DBD1BB",
",X c #E3D6A1",
"<X c #E7DBA6",
"1X c #E4DAB1",
"2X c #EFE4AB",
"3X c #F0E7B8",
"4X c #D5D2CB",
"5X c #E2DAC9",
"6X c #EAE3CA",
"7X c #F1EAC5",
"8X c #F2EDCF",
"9X c #E9E9D2",
"0X c #EEEFDB",
"qX c #EDE9E0",
"wX c #F5F5E9",
"eX c #F9F9F7",
/* pixels */
"B.B.B.B.B.B.B.B.B.B.B.B.B.B.B.B.B.B.N.k.` ` I._.`.5.) ` i.h.x.x.B.B.B.B.B.B.B.B.B.B.B.B.B.B.B.B.B.B.",
"B.B.B.B.B.B.B.B.B.B.B.B.B.B.B.B.B.N.b.2.2. X3X3X8X{.^ ! <.j.h.B.B.B.B.B.B.B.B.B.B.B.B.B.B.B.B.B.B.B.",
"B.B.B.B.B.B.B.B.B.B.B.B.B.B.B.B.N.C.m.4.U.3X8X2X7X}.D 7 m.Z.y.f.B.B.B.B.B.B.B.B.B.B.B.B.B.B.B.B.B.B.",
"B.B.B.B.B.B.B.B.B.B.B.B.B.B.B.N.C.H.F.5.{.2X7X2X3X;XV 7 Q.{._ P a.B.B.B.B.B.B.B.B.B.B.B.B.B.B.B.B.B.",
"B.B.B.B.B.B.B.B.B.B.B.B.B.B.N.v.H.I.4.U.@X@X3X6X,XOXA 7 Q.|.G.^ d t.x.B.B.B.B.B.B.B.B.B.B.B.B.B.B.B.",
"B.B.B.B.B.B.B.B.B.B.B.B.B.N.v.M.!.I.4.U.@XXX*X1X{.~.A 7 K.|.{.0.^ f h.x.B.B.B.B.B.B.B.B.B.B.B.B.B.B.",
"B.B.B.B.B.B.B.B.B.B.B.B.B.k.3.Q.oXT.w.D.{.}.{.}.'.L.A 7 Q.,X%X!.4.~ J B.B.B.B.B.B.B.B.B.B.B.B.B.B.B.",
"B.B.B.B.B.B.B.B.B.B.B.B.l.b.G.|.*X{.^.D.w.U.[.[.[.L.A 7 L.+X1X.XJ.! d d.B.B.B.B.B.B.B.B.B.B.B.B.B.B.",
"B.B.B.B.B.B.B.B.B.B.B.z.j.2.Q.<X>X1XoXT.w.w.F.P.L.5.N *.{.;X$XoX/.4.! J h.B.B.B.B.B.B.B.B.B.B.B.B.r.",
"B.B.B.B.B.B.B.B.B.B.x.d.P 2.Q.oX%X6XXXXX^.D.%.M N N F ~.3XeX6XXX~.4.Q J B.B.B.B.B.B.B.B.B.B.B.B.B.r.",
"B.B.B.B.B.B.B.B.B.B.h.H a 2.L.OX5X5X}.@X|.I.A + * 7 K.XX$X9X8X@X!.*.6 d d.B.B.B.B.B.B.B.B.B.B.B.B.B.",
"B.B.B.B.B.B.B.B.B.B.u.a w ^ K.1XqX>X,XoX[.I.A @ 1 7 Q.@X}.+X=XoX/.A $ 5 f B.B.B.B.B.B.B.B.B.B.B.B.B.",
"B.B.B.B.B.B.B.B.B.B.f.Z N D Q.<X>X5X5XoX}.n.Z ~ ~ F <..X#X,X;X$X!.=.M n y.B.B.B.B.B.B.B.B.B.B.B.B.B.",
"B.B.B.B.B.B.B.B.B.B.B.U 8 7.Q.oX%XeX5X|.^._ Y.<X.XH.0 <./.1XwX=XI.7.C d B.B.B.B.B.B.B.B.B.B.B.B.B.B.",
"B.B.B.B.B.B.B.B.B.B.B.d.g  .L.XX,X5X>X*Xn.Z <X=X}.I.A 7 K.$X1X=XI.:.z y.B.B.B.B.B.B.B.B.B.B.B.B.B.B.",
"B.B.B.B.B.B.B.B.B.B.B.B.K 7 K.oX#XoX%X8Xn.h !.P.P.G.A 7 Q.,X;X%XI.A i B.B.B.B.B.B.B.B.B.B.B.B.B.B.B.",
"B.B.B.B.B.B.B.B.B.B.B.B.K , Q.#X@X+X5X6XY.Y N N N N z *./.1X5X'.I.A i B.B.B.B.B.B.B.B.B.B.B.B.B.B.B.",
"B.B.B.B.B.B.B.B.B.B.B.B.a.g <..XoX&XqX>X+XT.s * T * 7 Q.@X>X%XQ.5.g K B.B.B.B.B.B.B.B.B.B.B.B.B.B.B.",
"B.B.B.B.B.B.B.B.B.B.B.B.B.a.g <.^.$X=X$X%XXXH.4 R 1 7 L.$X%X~.4.g K B.B.B.B.B.B.B.B.B.B.B.B.B.B.B.B.",
"B.B.B.B.B.B.B.B.B.B.B.B.B.B.t.% >.!.Q.!.P.F.3.] _ h s *.P.I.5.g t.B.B.B.B.B.B.B.B.B.B.B.B.B.B.B.B.B.",
"B.B.B.B.B.B.B.B.B.B.B.B.B.B.y.% $ N v N N 7 ) 1XXXP.S # N N 7 % t.x.B.B.B.B.B.B.B.B.B.B.B.B.B.B.B.B.",
"B.B.B.B.B.B.B.B.B.B.B.B.B.z.G . = - @ < < : h !.J.G.A o : $ q X y h.B.B.B.B.B.B.B.B.B.B.B.B.B.B.B.B.",
"B.B.B.B.B.B.B.B.B.B.B.B.B.s.6 8 W q.8 6.#.X.e b N N x v C W { = s I B.B.B.B.B.B.B.B.B.B.B.B.B.B.B.B.",
"B.B.B.B.B.B.B.B.B.B.B.B.B.U r  ./ ).t 9.8.#.v @ T * 8 9.$./ S.t ..G B.B.B.B.B.B.B.B.B.B.B.B.B.B.B.B.",
"B.B.B.B.B.B.B.r.r.B.B.B.g.f M &.W e.^ 6.R.9.S 4 R 1 0 8.^ q.q.r ;.6 u.B.B.B.B.r.r.B.B.B.B.B.B.B.B.B.",
"B.B.B.B.B.B.B.r.r.B.B.B.U 2 X.&.w e.).t E.8.%.] _ m N s / `.E C 6.9 d B.B.B.B.r.r.B.B.B.B.B.B.B.B.B.",
"B.r.r.B.B.r.r.B.B.B.x.l.f r #.X.3 [ '.! ..r ) 1X}.I.A @ e._.2 } 6.} % i.B.r.r.B.B.B.B.B.B.B.B.B.B.B.",
"B.r.r.B.B.r.r.B.B.B.x.I 4 | @.b q ).4X].(.~ h !.P.G.A E -X].E 9 @.o.9 f B.p r.B.B.B.B.B.B.B.B.B.B.B.",
"B.r.r.B.B.r.r.B.B.B.k.d r @.| 3 W %X0XeXeX4X' N N N ~ '.wX:Xe.: C @.C 6 d.r.r.B.B.B.B.B.B.B.B.B.B.B.",
"B.r.r.B.B.r.r.B.x.x.J = } +.8 & q _.9X0XwXeX'.* T * ) 9X0X].E O 2 | o.3 f p r.B.B.B.B.B.B.B.B.B.B.B.",
"B.B.B.B.B.B.B.B.B.d.u m 0.;.& .   / ;X:XqX4X' 4 R 1 6 `.;X).X   & V R.^ ; t.B.B.B.B.B.B.B.B.B.B.B.B.",
"B.B.B.B.B.B.B.B.x.U 4 ;.W.;.& .   q { `.9X`.; { ] Z : ; [ Q .   & M E.0.8 f B.B.B.B.B.B.B.B.B.B.B.B.",
"B.B.B.B.B.B.B.B.B.y.0 9.W.0.w O . * : E S./ / 6X1X/.A o : $ X X 8 6.E.R.C f B.B.B.B.B.B.B.B.B.B.B.B.",
"B.B.B.B.B.B.B.B.B.U 8 8.W.E.7.9 @ > x e : @ Z ^.!.!.A # C x = 2 -.E.W.R.M d B.B.B.B.B.B.B.B.B.B.B.B.",
"B.B.B.B.B.B.B.B.B.s.g +.E.E.8.9 @ v $.$.C < s 5.*.5.z N 1...8 3 ;.E.E.6.3 L B.B.B.B.B.B.B.B.B.B.B.B.",
"B.B.B.B.B.B.B.B.B.N.i.F 9.R.o.& = b >.>.>.S 0 s s z v >.1.-.j & t R.R. .a a.B.B.B.B.B.B.B.B.B.B.B.B.",
"B.B.B.B.B.B.B.B.B.B.x.f.O.,.m + $ b >.>.>.>.D M  .N >.1.1.>.B + 3 C V 5 I x.B.B.B.B.B.B.B.B.B.B.B.B.",
"B.B.B.B.B.B.B.B.B.B.B.h.g.s.H ; $ b >.1.-.=.>.>.>.>.:.=.1.1.A O - l G U g.x.B.B.B.B.B.B.B.B.B.B.B.B.",
"B.B.B.B.B.B.B.B.B.B.B.B.B.B.g.G 7 ..1.1...S =.>.-.-.:. .1.1.D = I B.B.B.x.B.B.B.B.B.B.B.B.B.B.B.B.B.",
"B.B.B.B.B.B.B.B.B.B.B.B.B.h.h.Y b >.1.7.$.S $.>.$...:.D 1.1.-.z ) h.B.B.B.B.B.B.B.B.B.B.B.B.B.B.B.B.",
"B.B.B.B.B.B.B.B.B.B.B.B.B.B.h.p v o.1.1.=...>.>.....O.S >.1.>.B d B.B.B.B.B.B.B.B.B.B.B.B.B.B.B.B.B.",
"B.B.B.B.B.B.B.B.B.B.B.B.B.B.B.p e  .1.1.>.>.>.>.=...o.v =.1.1.B d B.B.B.B.B.B.B.B.B.B.B.B.B.B.B.B.B.",
"B.B.B.B.B.B.B.B.B.B.B.B.B.B.B.p.< c 1.>.>.>.>.>.-.=...<  .>.4.D , a.B.B.B.B.B.B.B.B.B.B.B.B.B.B.B.B.",
"B.B.B.B.B.B.B.B.B.B.B.B.B.B.h.Y < D >.-.=.1.1.>.>.1.F > S >.>.:.z L B.B.B.B.B.B.B.B.B.B.B.B.B.B.B.B.",
"B.B.B.B.B.B.B.B.B.B.B.B.B.B.z.H 5 D =.....1.1.:.=.>.F : v D N F Y i.B.B.B.B.B.B.B.B.B.B.B.B.B.B.B.B.",
"B.B.B.B.B.B.B.B.B.B.B.B.B.B.B.p.Q ' m 0 D 1.:...S =.A : 3 k ~ ( d.B.B.B.B.B.B.B.B.B.B.B.B.B.B.B.B.B.",
"B.B.B.B.B.B.B.B.B.B.B.B.B.B.B.V.Z.{ ' ' E A F n n N m / [ [ A.C.B.B.B.B.B.B.B.B.B.B.B.B.B.B.B.B.B.B.",
"B.B.B.B.B.B.B.B.B.B.B.B.B.B.B.B.l.` A.q.Q H y.s.u.U k [ S.c.k.B.B.B.B.B.B.B.B.B.B.B.B.B.B.B.B.B.B.B.",
"B.B.B.B.B.B.B.B.B.B.B.B.B.B.B.B.B.g.I H U B.B.B.B.B.d.l P p.B.B.B.B.B.B.B.B.B.B.B.B.B.B.B.B.B.B.B.B.",
"B.B.B.B.B.B.B.B.B.B.B.B.B.B.B.B.B.B.B.B.B.B.B.B.B.B.B.B.B.B.B.B.B.B.B.B.B.B.B.B.B.B.B.B.B.B.B.B.B.B."
};
