/* XPM */
static char *result[] = {
/* columns rows colors chars-per-pixel */
"50 50 197 2 ",
"   c #25140A",
".  c #29160B",
"X  c #2C190D",
"o  c #2B161A",
"O  c #2D1B1E",
"+  c #321D16",
"@  c #2E2E11",
"#  c #2E201F",
"$  c #372518",
"%  c #3B241F",
"&  c #3A3517",
"*  c #3C381A",
"=  c #271820",
"-  c #2B1B21",
";  c #311D21",
":  c #3A1C26",
">  c #3A2423",
",  c #332C24",
"<  c #3E2A25",
"1  c #34242A",
"2  c #2D3027",
"3  c #373525",
"4  c #3B3325",
"5  c #3C3925",
"6  c #3E302E",
"7  c #3C2B32",
"8  c #3F3134",
"9  c #452A17",
"0  c #442D1C",
"q  c #51301C",
"w  c #55311C",
"e  c #5B321C",
"r  c #432A25",
"t  c #4C2C26",
"y  c #462A28",
"u  c #462D2A",
"i  c #502E27",
"p  c #493628",
"a  c #5E3725",
"s  c #53322A",
"d  c #5B362C",
"f  c #433335",
"g  c #493938",
"h  c #563D37",
"j  c #683C22",
"k  c #683E29",
"l  c #3D482F",
"z  c #466C07",
"x  c #414729",
"c  c #434929",
"v  c #564329",
"b  c #40532F",
"n  c #524F37",
"m  c #694128",
"M  c #6C432C",
"N  c #73472E",
"B  c #6F532C",
"V  c #684133",
"C  c #754A31",
"Z  c #7D4B32",
"A  c #7C5235",
"S  c #7B553C",
"D  c #4D3D40",
"F  c #772A6F",
"G  c #554647",
"H  c #564D4B",
"J  c #775A52",
"K  c #606F50",
"L  c #766365",
"P  c #804E2E",
"I  c #81512F",
"U  c #824E32",
"Y  c #855636",
"T  c #8C5636",
"R  c #8A5B3D",
"E  c #905837",
"W  c #955C3A",
"Q  c #995E3A",
"!  c #876435",
"~  c #93603F",
"^  c #9C623C",
"/  c #A4653D",
"(  c #A9673D",
")  c #AB693F",
"_  c #855B40",
"`  c #835D53",
"'  c #8D6243",
"]  c #8D6846",
"[  c #936545",
"{  c #9C6542",
"}  c #956B47",
"|  c #946C49",
" . c #996C4A",
".. c #9C754C",
"X. c #9F784E",
"o. c #8A6A5E",
"O. c #9D7754",
"+. c #927E5E",
"@. c #A56A44",
"#. c #A46D4A",
"$. c #B26F42",
"%. c #AE724B",
"&. c #B87446",
"*. c #B4754D",
"=. c #BB794E",
"-. c #AF7B5B",
";. c #B67952",
":. c #BD7C51",
">. c #856661",
",. c #8B6D64",
"<. c #806C6E",
"1. c #907367",
"2. c #8F7670",
"3. c #C17D4F",
"4. c #C17F53",
"5. c #4E8400",
"6. c #678A33",
"7. c #678B39",
"8. c #6A8D39",
"9. c #6E9938",
"0. c #709C3D",
"q. c #73A23E",
"w. c #76A83D",
"e. c #78A93F",
"r. c #468C43",
"t. c #77A940",
"y. c #7EB642",
"u. c #6CB56C",
"i. c #7EC759",
"p. c #AA8547",
"a. c #AC865C",
"s. c #81BA44",
"d. c #97897A",
"f. c #A68A67",
"g. c #A9956D",
"h. c #AC9772",
"j. c #AF9B74",
"k. c #B69C76",
"l. c #B6A377",
"z. c #BCA57C",
"x. c #BFA97F",
"c. c #C38054",
"v. c #CC8555",
"b. c #CF8857",
"n. c #D38C5A",
"m. c #C78D6B",
"M. c #D5956E",
"N. c #DC9D73",
"B. c #E09F75",
"V. c #E3A27A",
"C. c #97D55E",
"Z. c #953C8D",
"A. c #A85597",
"S. c #907E80",
"D. c #C271AC",
"F. c #A99A8A",
"G. c #B0A18F",
"H. c #AEA698",
"J. c #B4A793",
"K. c #BEBAA3",
"L. c #C1AC81",
"P. c #C5B183",
"I. c #C9B686",
"U. c #CDBA86",
"Y. c #C3B49E",
"T. c #C7B9A3",
"R. c #C9BDA5",
"E. c #D7C68A",
"W. c #DFCF8F",
"Q. c #E1D18F",
"!. c #E5D691",
"~. c #E7D892",
"^. c #EDDF96",
"/. c #E6D89B",
"(. c #EDE19E",
"). c #C8C4AB",
"_. c #CDCCB2",
"`. c #C8C5B8",
"'. c #DAD7BB",
"]. c #DEDCBF",
"[. c #EEE1A1",
"{. c #EFE5B0",
"}. c #DFD7C2",
"|. c #E0DFC2",
" X c #E9D7CA",
".X c #D3E7D7",
"XX c #E5E6C7",
"oX c #E5E4CC",
"OX c #EBE9D8",
"+X c #F2EED7",
"@X c #EFECE4",
"#X c #F0EDE5",
"$X c #F4F2E5",
"%X c #F5F3EA",
"&X c #F6F6F3",
"*X c #FAF9F5",
"=X c #FDFDFC",
/* pixels */
"s.s.s.s.s.s.s.s.s.s.s.s.s.s.s.s.s.s.s.w.$ k.R o + o 9 f.K.@ s.s.s.s.s.s.s.s.s.s.s.s.s.s.s.s.s.s.s.s.",
"s.s.s.s.s.s.s.s.s.s.s.s.s.s.s.s.s.s.s.9.$ ] ; Z.D.A.F % H % s.s.s.s.s.s.s.s.s.s.s.s.s.s.s.s.s.s.s.s.",
"s.s.s.s.s.s.s.s.s.s.s.s.s.s.s.s.s.s.e.9.r ,.,.,.>.,.,.,.J * t.s.s.s.s.s.s.s.s.s.s.s.s.s.s.s.s.s.s.s.",
"s.s.s.s.s.s.s.s.s.s.s.s.s.s.s.s.s.e.6.v U.!.W.E.x.W.W.W.!.h.& t.s.s.s.s.s.s.s.s.s.s.s.s.s.s.s.s.s.s.",
"s.s.s.s.s.s.s.s.s.s.s.s.s.s.s.s.s.6.s W.E.h.>.>.o.o.o.1.J.x.} 0 w.y.y.s.s.s.s.s.s.s.s.s.s.s.s.s.s.s.",
"s.s.s.s.s.s.s.s.s.s.s.s.s.s.s.e.6.9 O.>.>.1.L.P.x.J.x.l.o.o.o.] & w.s.s.s.s.s.s.s.s.s.s.s.s.s.s.s.s.",
"s.s.s.s.s.s.s.s.s.s.s.s.s.s.s.q.@ O.1.P.P.L.U.^.!.x.U.!.L.x.l.o.' @ s.s.s.s.s.s.s.s.s.s.s.s.s.s.s.s.",
"s.s.s.s.s.s.s.s.s.s.s.s.s.s.e.6.& 1.I.^.!.U.^.[./.U.(.~.P.P.P.l.J & w.s.s.s.s.s.s.s.s.s.s.s.s.s.s.s.",
"s.s.s.s.s.s.s.s.s.s.s.s.w.s.9.@ a.L.U.(.(.(.(.*X$X(.[.[.(.[./.P.l.] @ s.s.s.s.s.s.s.s.s.s.s.s.s.s.5.",
"s.s.s.s.s.s.s.s.s.s.s.s.C.e.6.9 a.I.{.&X$X(.{.%X$X[.&X$X{.%X$X/.z.| * w.s.s.s.s.s.s.s.s.s.s.s.s.s.5.",
"s.s.s.s.s.s.s.s.s.s.s.s.e.w.$ a.P.E.&X$X$X*X*X*X&X&X&X&X&X&X%XOXP.l.] @ s.s.s.s.s.s.s.s.s.s.s.s.s.s.",
"s.s.s.s.s.s.s.s.s.s.s.y.w.6.q a.P.{.+X~./.$X$X$X$X&X&X$X#X$X%X+X!.l.| * w.e.s.s.s.s.s.s.s.s.s.s.s.s.",
"s.s.s.s.s.s.s.s.s.s.s.9.- s O.G.P.~.Q.z.j.P.~.~.(.@X+XE.J.l.~.~.Q.x.k.' > 3 s.s.s.s.s.s.s.s.s.s.s.s.",
"s.s.s.s.s.s.s.s.s.s.s.q.g #.p -.z.J.l.a.r j.x.J.l.l.W.l.O.0 j.x.z.l.[ s #.l s.s.s.s.s.s.s.s.s.s.s.s.",
"s.s.s.s.s.s.s.s.s.s.s.s.9.p c.J ..h.+.X Y $ h.h.f.& j.f.+ I $ g.| ] ` *.3 y.s.s.s.s.s.s.s.s.s.s.s.s.",
"s.s.s.s.s.s.s.s.s.s.s.s.q.p #.X X . . X j   . X $ S X   X m       . 9 } * C.s.s.s.s.s.s.s.s.s.s.s.s.",
"s.s.s.s.s.s.s.s.s.s.s.s.s.0.4 ~ { T I v # < ! { @.@.} B # % B Z M ^ M c s.s.s.s.s.s.s.s.s.s.s.s.s.s.",
"s.s.s.s.s.s.s.s.s.s.s.s.s.s.0.u p.U ..C.- l C.&.n.b.p.i.2 l C./ Y %.3 s.s.s.s.s.s.s.s.s.s.s.s.s.s.s.",
"s.s.s.s.s.s.s.s.s.s.s.s.s.s.0.p T i -.`.3 u.OXb.n.n.N..Xr.G '.T i T l s.s.s.s.s.s.s.s.s.s.s.s.s.s.s.",
"s.s.s.s.s.s.s.s.s.s.s.s.s.s.s.0., , d *.c K  XM.B.b.N._.b n *.> , x s.s.s.s.s.s.s.s.s.s.s.s.s.s.s.s.",
"s.s.s.s.s.s.s.s.s.s.s.s.s.s.s.s.y.q.p @.v.v.n.n.M.&.n.b.v.3.E c s.s.s.s.s.s.s.s.s.s.s.s.s.s.s.s.s.s.",
"s.s.s.s.s.s.s.s.s.s.s.s.s.s.s.s.y.w.8.t Z ) v.v.n.n.v.3.Q M p w.t.s.s.s.s.s.s.s.s.s.s.s.s.s.s.s.s.s.",
"s.s.s.s.s.s.s.s.s.s.s.s.s.s.s.y.7.- 1 r i i Z ( 3.=.Q M t t < 1 3 t.s.s.s.s.s.s.s.s.s.s.s.s.s.s.s.s.",
"s.s.s.s.s.s.s.s.s.s.s.s.s.s.y.8.- 7 <.r ) Z i t t t t d T ^ f L - 5 t.s.s.s.s.s.s.s.s.s.s.s.s.s.s.s.",
"s.s.s.s.s.s.s.5.5.C.e.s.s.s.0.> N 7 L h 3.&.@.U P U T $.$.#.D L > N 3 s.s.s.s.5.5.s.s.s.s.s.s.s.s.s.",
"s.s.s.s.s.s.s.5.z s.s.s.s.e.8.s { 1 D K.t n.4.$.U T &.n.*.D T.- s Q p t.s.s.s.5.5.s.s.s.s.s.s.s.s.s.",
"s.5.5.s.s.5.5.s.s.s.s.s.s.q.& $.v.#.f G.s :.4.4.$.&.b.:.#.D F.u v.4.W 3 s.5.5.s.s.s.s.s.s.s.s.s.s.s.",
"s.5.5.s.s.5.5.s.s.s.s.s.s.6.r ( / k H }.S.f n :.3.=.#.f G H.R.f Z ( W 4 t.5.5.s.s.s.s.s.s.s.s.s.s.s.",
"s.5.5.s.s.5.5.s.s.s.s.s.0.- d / k f R.OX=X*X_.8 8 f H +X=X*X].F.: T Q r 3 5.5.s.s.s.s.s.s.s.s.s.s.s.",
"s.5.5.s.s.5.5.s.s.s.s.s.0.> E / k g R.oX*X&X%X}.}.XXoX&X=X&X'.F.; U ( N 3 5.5.s.s.s.s.s.s.s.s.s.s.s.",
"s.s.s.s.s.s.s.s.s.s.s.s.8.s b.W > f J.R.XX'.Y.Y.Y.T.Y.R.|.'.J.d.- s $.;.5 t.s.s.s.s.s.s.s.s.s.s.s.s.",
"s.s.s.s.s.s.s.s.s.s.s.0.1 { M.k > 1 f G.J.Y.Y.R.R.T.T.Y.Y.G.d.- , y R M.S 5 s.s.s.s.s.s.s.s.s.s.s.s.",
"s.s.s.s.s.s.s.s.s.s.y.8.h V.m.r 3 7.- 1 G T.R.XXXXXX|.Y.F.f : 3 7.; V V.m.4 t.s.s.s.s.s.s.s.s.s.s.s.",
"s.s.s.s.s.s.s.s.s.s.0.> { N.4.Z r = 7 2.G.T.).XXXXXX|.T.J.F.L = - s { n.M.C 3 y.s.s.s.s.s.s.s.s.s.s.",
"s.s.s.s.s.s.s.s.s.s.0.u n.N.b.*.C o O O f J._._._._._.).d.O O - 1 W 4.n.N.*.3 s.s.s.s.s.s.s.s.s.s.s.",
"s.s.s.s.s.s.s.s.s.s.0.u 4.n.=.d #.O > j a O ; ; : O O O > j e O y %.d n.n.#.3 s.s.s.s.s.s.s.s.s.s.s.",
"s.s.s.s.s.s.s.s.s.s.q., d v.=.t > % A  .[ m C N C j j j k [ Z e O y k n.%.> l s.s.s.s.s.s.s.s.s.s.s.",
"s.s.s.s.s.s.s.s.s.s.s.q.u U *.T > > A  .X. .[ A  . . . . . ._ w O i / *.k x s.s.s.s.s.s.s.s.s.s.s.s.",
"s.s.s.s.s.s.s.s.s.s.s.s.q., , , , <  ..... .[ Y  . . . . . .W e # , , , x s.s.s.s.s.s.s.s.s.s.s.s.s.",
"s.s.s.s.s.s.s.s.s.s.s.s.y.s.s.s.0.<  .#.} } } } }  .{  . . ._ e c s.s.s.s.s.s.s.s.s.s.s.s.s.s.s.s.s.",
"s.s.s.s.s.s.s.s.s.s.s.s.s.s.s.5.z u  .X.[ A X.}  .} ' A  .X.[ e 5 t.s.s.s.s.s.s.s.s.s.s.s.s.s.s.s.s.",
"s.s.s.s.s.s.s.s.s.s.s.s.s.s.s.z > A ..X.[ A } A  .} C A  .X. .[ w 5 s.s.s.s.s.s.s.s.s.s.s.s.s.s.s.s.",
"s.s.s.s.s.s.s.s.s.s.s.s.s.s.s.0.< }  .X.[ A | A  . .[ A  .X.} R w 5 s.s.s.s.s.s.s.s.s.s.s.s.s.s.s.s.",
"s.s.s.s.s.s.s.s.s.s.s.s.s.s.s.0.u  .X. .R m ..A  . . . . .X.} M w 5 s.s.s.s.s.s.s.s.s.s.s.s.s.s.s.s.",
"s.s.s.s.s.s.s.s.s.s.s.s.s.s.y.8.u } #.[ N m ..A  . . . . . .} e w p w.s.s.s.s.s.s.s.s.s.s.s.s.s.s.s.",
"s.s.s.s.s.s.s.s.s.s.s.s.s.s.0.> A ....] m p #. . . .X. .}  .] q e w 5 s.s.s.s.s.s.s.s.s.s.s.s.s.s.s.",
"s.s.s.s.s.s.s.s.s.s.s.s.s.s.q.p ' ] ' ! e q O. .[ ..X.[ A | | S $ w c s.s.s.s.s.s.s.s.s.s.s.s.s.s.s.",
"s.s.s.s.s.s.s.s.s.s.s.s.s.s.s.9.# 6 g m q q } ' Z | #.[ _ C S 6 < 5 s.s.s.s.s.s.s.s.s.s.s.s.s.s.s.s.",
"s.s.s.s.s.s.s.s.s.s.s.s.s.s.s.q.n H.H.O O > R M V M ' S o O g ).d.c s.s.s.s.s.s.s.s.s.s.s.s.s.s.s.s.",
"s.s.s.s.s.s.s.s.s.s.s.s.s.s.s.s.0., , , 3 , 3 3 3 & 3 3 , 2 , 3 c s.s.s.s.s.s.s.s.s.s.s.s.s.s.s.s.s."
};
