/* XPM */
static char *result[] = {
/* columns rows colors chars-per-pixel */
"50 50 80 1 ",
"  c #1C1A1A",
". c #22241C",
"X c #302C2C",
"o c #353231",
"O c #3B3736",
"+ c #403B3B",
"@ c #4C770C",
"# c #45403F",
"$ c #505F3A",
"% c #47602C",
"& c #557431",
"* c #474241",
"= c #494443",
"- c #4A4544",
"; c #4D4C43",
": c #4D4847",
"> c #514C4B",
", c #595352",
"< c #5C5654",
"1 c #5D5655",
"2 c #5E5856",
"3 c #605A58",
"4 c #655E5D",
"5 c #646058",
"6 c #6C6563",
"7 c #6D6564",
"8 c #706867",
"9 c #706967",
"0 c #716968",
"q c #736C6A",
"w c #756D6B",
"e c #78706E",
"r c #79706F",
"t c #7F7675",
"y c #837A78",
"u c #847B79",
"i c #877E7C",
"p c #4E8400",
"a c #679239",
"s c #7AAB43",
"d c #81BA44",
"f c #9FDF5B",
"g c #8C8381",
"h c #8E8482",
"j c #908785",
"k c #938987",
"l c #968C8A",
"z c #978D8B",
"x c #988E8C",
"c c #998E8C",
"v c #998F8D",
"b c #9B908E",
"n c #9C918F",
"m c #9D9290",
"M c #9E9391",
"N c #A29694",
"B c #A29795",
"V c #A49896",
"C c #A49997",
"Z c #A69A98",
"A c #B2A5A3",
"S c #B7ABA9",
"D c #B8ABA9",
"F c #BCAFAC",
"G c #C2B4B2",
"H c #C2B5B3",
"J c #CABCB9",
"K c #CDBFBD",
"L c #D2C3C0",
"P c #D4C6C3",
"I c #D8C9C7",
"U c #DACBC8",
"Y c #DECFCC",
"T c #E8D8D5",
"R c #EADBD7",
"E c #ECDCD9",
"W c #F8E8E4",
"Q c #FAEAE6",
"! c #FCECE8",
"~ c #FFEEEA",
/* pixels */
"dddddddddddddddddddddddddddddddddddddddddddddddddd",
"dddddddddddddddddddddddddddddddddddddddddddddddddd",
"dddddddddddddddddddddddddddddddddddddddddddddddddd",
"dddddddddddddddddddddddddddddddddddddddddddddddddd",
"dddddddddddddddddddddddddddddddddddddddddddddddddd",
"dddddddddddddddddddddddddddddddddddddddddddddddddd",
"dddddddddddddddddddddd$O      dddddddddddddddddddd",
"ddddddddddddddddddddd D~~~YYY-  dddddddddddddddddd",
"dddddddddddddddddppdd D~~~YYY-  dddddddddddddddddp",
"dddddddddddddddddpp  ~~~~~MYYY--   ddddddddddddddp",
"ddddddddddddddddddd  ~~~~~MGGScctXX&addddddddddddd",
"ddddddddddddddddddd  ~~~~~MMMi~~~-- %ddddddddddddd",
"ddddddddddddddd    ~~~~~YYYMMMii~---o dddddddddddd",
"ddddddddddddddd    ~~~~~YYYMMMii~---o dddddddddddd",
"ddddddddddds---~~~~~~~FMMMYiiMiii---o dddddddddddd",
"dddddddddd---~~~MMM~~~TYYYYiiiMMi-----  dddddddddd",
"dddddddddd---~~~MMM~~~TYYYYiiiMMi-----  dddddddddd",
"dddddddddd-3~~~YMM~~~~FM~~YiiiiiMii---  dddddddddd",
"dddddddd;-~~~YYMMM~YYYAMYYYiiMMM8ii---  dddddddddd",
"dddddddd;-~~~YYMMM~YYYAMYYYiiMMM8ii---  dddddddddd",
"dddddddd;-~~~YY-~~~iiMJYYYYiiiii8iii6-  dddddddddd",
"dddddddd;-~~~NN7VV~IIUCgggYIIiII800ne-**.ddddddddd",
"dddddddd;-~~~MM8MM~YYYBiiiYYYiYY888Mr--- ddddddddd",
"dddddddd;-~QYYY8ii~YYilMMMYYYYYYYMMi6--- ddddddddd",
"ddddddd@54ERYYY8iiWKKikvMMYKKLLLYMMzw--- ddddddddd",
"ddddddd-PYMZYYY8iiYiiiiiMMYiiMMMYMMYm--- ddddddddd",
"dppddpp-xM~QYii8iiiMMMhiMMYMMiMMMOOiii-- ddddddddd",
"dppddpp-xM~QYii8iiiMMMhiMMYMMiMMMOOiii-- ddddddddd",
"dppdd---PYMbiiiOiiYYYMJYiiYiiMiiiiiO<i---  ddddddd",
"dppdd--Y!~iiiiiOYYYYYMMMiiiOOMMMiMMiiiii-  ddddddd",
"ddddd--Y!~iiiiiOYYYYYMMMiiiOOMMMiMMiiiii-  ddddddd",
"ddddd  YgiMbiOOOYYiMMiiiMMiMMMMMMMMMr-ii-  ddddddd",
"ddddd  iiiiiiOOiiiMiiilMMMMOOiiiMiiMMMMM--- dddddd",
"ddddd  iiiiiiOOiiiMiiilMMMMOOiiiMiiMMMMM--- dddddd",
"ddddd  -yiit-OOiiiYYYilMMMMiiYMMYiiMMMOO--- dddddd",
"ddddd  q21iuqOOiHHYBBljhhhhiiYMMYHH,9h##--- dddddd",
"ddddd  i:-iiiOOiYYYiiMhiiiiiiYMMYYYO<i----- dddddd",
"ddddd  +=-->iOOiMMi--iii--iiiiiiiYY------  ddddddd",
"ddddd  +=-->iOOiMMi--iii--iiiiiiiYY------  ddddddd",
"ddddddd        -MMMiii1-iiiYYYii-------- ddddddddd",
"ddddddddddddd  ----iiiiiiiYYYY------o   dddddddddd",
"ddddddddddddd  ----iiiiiiiYYYY------o   dddddddddd",
"ddddddddddddddd                     %ddddddddddddd",
"dddddddddddddddddppppddddffffppppddddddddddddddddd",
"dddddddddddddddddddddddddddppppddddddddddddddddddd",
"dddddddddddddddddddddddddddppppddddddddddddddddddd",
"dddddddddddddddddddddddddddddddddddddddddddddddddd",
"dddddddddddddddddddddddddddddddddddddddddddddddddd",
"dddddddddddddddddddddddddddddddddddddddddddddddddd",
"dddddddddddddddddddddddddddddddddddddddddddddddddd"
};
