<svg width="400" height="400" viewBox="0 0 400 400" fill="none" xmlns="http://www.w3.org/2000/svg">
<path d="M54.8088 286.634C42.7498 247.842 53.1213 211.57 65.0468 178.582C78.4086 148.283 96.9516 105.929 142.353 108.54C203.051 117.901 252.144 177.163 257.38 250.017C257.877 261.602 256.942 272.602 254.812 284.187C252.75 294.08 250.546 303.691 243.542 312.849C227.186 329.026 209.98 328.63 194.849 329.284C179.786 328.661 164.264 327.168 152.777 313.794C145.138 303.526 139.63 292.163 137.647 279.961C134.499 246.224 143.157 218.478 153.347 186.408C166.022 155.864 174.085 114.586 219.551 82.5197C231.349 76.7737 246.892 73.7972 261.666 79.3038C303.815 98.8881 316.917 146.015 315.952 186.562C301.896 304.113 148.01 313.343 99.0383 255.447C70.6923 220.674 72.3278 182.857 71.1093 157.69C71.2084 137.019 73.6128 120.438 78.8384 106.108C86.1803 85.4179 103.532 73.8678 121.816 67.7317C139.181 62.8937 157.304 57.0325 185.361 59.8419C201.361 63.5432 218.925 70.8228 237.989 82.4161C291.418 116.56 325.654 157.505 344.917 202.99C366.551 253.207 330.726 306.132 281.702 331.303C263.649 341.052 236.799 352.118 203.352 355.04C171.232 357.923 125.837 351.576 103.653 314.418C89.662 289.018 91.0093 258.954 90.1208 230.612C89.8079 211.885 86.3647 191.667 96.5203 173.512C103.023 164.16 115.708 165.61 124.161 168.603C133.17 171.675 141.258 176.324 148.955 181.181C164.329 190.858 178.056 202.691 191.473 212.066C202.246 218.515 212.986 224.255 223.932 227.918C241.483 233.901 259.193 236.497 273.698 231.234C288.09 226.06 299.813 217.18 311.352 212.652C316.402 210.507 321.665 208.714 327.039 207.327C338.296 204.939 349.035 204.096 360.562 204.004C363.441 204.125 365.938 204.524 368.578 205.021C369.89 205.28 371.196 205.566 372.581 205.991C373.293 206.225 373.957 206.405 374.977 206.993C375.25 207.17 375.538 207.321 376.02 207.853C376.209 208.067 376.576 208.555 376.74 209.209C376.96 209.953 376.778 210.96 376.456 211.498C375.761 212.626 375.276 212.729 374.945 212.951C374.754 213.053 374.611 213.116 374.479 213.171C374.344 213.227 374.211 213.277 374.076 213.324C311.338 221.338 271.823 163.919 224.898 146.733C213.575 143.01 201.809 141.653 190.432 141.143C168.085 139.867 147.598 146.14 130.621 154.256C124.215 157.249 118.478 160.86 113.258 164.654C102.677 172.327 94.13 180.691 84.6458 185.619C75.2066 190.741 65.2398 190.952 57.4904 189.231C50.8778 187.759 48.0754 186.22 48.104 186.083C48.104 186.083 48.1041 186.083 48.1041 186.083C48.2526 185.767 52.7366 187.674 61.22 188.792C84.7786 193.665 101.501 165.883 129.664 152.252C146.984 143.621 167.879 136.943 190.549 137.792C202.125 138.084 214.212 139.204 226.14 142.849C226.449 142.944 226.761 143.042 227.074 143.145C295.289 175.063 323.41 215.793 372.313 208.176C372.385 208.153 372.423 208.133 372.381 208.154C372.339 208.205 372.188 208.16 371.745 208.79C371.635 208.966 371.53 209.19 371.466 209.459C371.396 209.749 371.386 210.074 371.433 210.354C371.526 210.902 371.751 211.204 371.864 211.351C372.11 211.641 372.156 211.625 372.155 211.633C372.083 211.575 371.519 211.337 371.03 211.185C369.996 210.855 368.817 210.579 367.631 210.337C365.273 209.867 362.694 209.459 360.409 209.353C350.575 209.338 339.308 210.04 328.276 212.261C314.171 215.414 300.672 223.334 284.218 231.91C267.484 241.143 244.39 240.092 222.462 232.26C217.136 230.48 211.827 228.234 206.534 225.646C200.454 222.673 194.674 219.401 189.068 216.079C172.783 204.639 159.071 192.948 143.831 183.812C129.753 175.447 109.582 164.915 100.802 176.637C92.5774 191.395 95.1906 212.017 95.8635 230.452C96.9313 258.259 95.9816 287.532 109.143 311.12C148.532 370.724 255.987 358.583 321.35 290.384C344.22 264.405 348.273 231.074 337.382 205.981C304.06 136.646 254.905 90.8095 183.298 68.9653C167.062 66.7995 145.02 71.1362 125.432 77.4094C109.828 83.0328 95.2944 92.6832 89.3541 109.98C78.566 147.13 74.1477 204.492 106.09 248.458C106.094 248.462 106.098 248.466 106.102 248.47C199.548 326.069 308.155 250.64 305.871 185.736C307.105 160.375 299.465 135.107 286.257 114.493C273.48 93.6012 248.527 79.8828 224.565 93.0905C184.722 122.223 152.807 194.606 152.032 277.5C152.541 280.431 153.354 283.388 154.434 286.325C156.797 292.744 160.382 298.954 164.748 304.658C177.3 317.927 217.164 316.729 231.238 302.921C239.58 291.008 241.896 268.754 241.441 250.939C238.263 193.294 198.237 132.197 140.024 122.34C104.732 118.796 81.5232 165.673 70.3404 200.418C64.5915 219.048 61.0793 238.314 61.4204 256.912C61.6399 274.961 67.2114 294.934 81.5471 297.488C117.027 307.452 137.282 269.507 141.324 238.526C146.195 206.603 143.989 173.749 133.475 148.875C129.544 141.647 124.551 133.513 119.592 126.906C117.08 123.566 114.455 120.425 111.755 117.937C110.424 116.71 109.051 115.663 107.923 115.07C107.366 114.773 106.894 114.612 106.654 114.568C106.407 114.523 106.488 114.567 106.632 114.516C101.043 115.664 100.049 130.099 98.643 140.966C98.4801 142.076 98.2903 143.235 98.0592 144.401C91.8906 175.233 85.8269 208.022 84.7192 242.385C84.1249 275.255 86.3839 317.612 116.679 334.482C127.59 340.267 135.5 337.496 136.376 324.988C138.215 303.6 128.823 280.436 128.83 254.238C129.295 211.994 136.213 167.161 157.909 127.069C161.786 120.044 166.05 112.458 173.311 106.284C180.574 100.003 190.381 97.3193 199.022 96.8589C265.81 100.138 332.835 141.362 351.748 211.203C352.033 213.053 352.264 214.912 352.443 216.771C356.088 265.982 330.225 312.623 294.579 347.612C276.614 364.092 255.541 377.415 230.622 383.624C216.936 386.49 203.232 387.213 189.002 384.351C181.976 382.787 174.492 380.152 168.41 374.197C162.172 368.281 159.705 358.883 160.476 351.145C164.684 318.313 188.81 297.668 204.785 275.154C231.521 238.275 256.129 197.458 257.874 152.106C260.867 117.531 224.657 98.8234 192.958 84.7289C149.892 63.1755 94.208 32.3659 65.1028 76.5641C45.9542 103.217 43.032 141.134 51.9943 172.522C58.4377 195.206 74.571 216.686 98.7527 222.67C154.202 240.642 199.344 182.523 265.244 179.484C329.587 187.837 343.473 262.791 336.57 314.143C334.09 328.084 326.516 342.343 313.725 349.957C301.114 357.668 286.569 359.185 273.078 358.875C245.839 357.943 220.452 349.996 196.165 343.113C167.099 334.297 125.809 329.088 118.397 292.209C115.346 272.681 127.255 252.677 143.193 244.319C158.82 235.137 175.414 230.843 190.947 226.352C221.313 217.677 253.496 210.051 264.844 186.511C269.712 176.522 268.658 165.414 264.795 156.202C239.782 109.983 197.002 90.4725 165.144 74.4588C156.94 71.614 146.012 67.7845 140.288 70.1776C135.805 74.6892 140.962 83.0744 144.907 88.7016C149.242 94.7079 154.312 100.135 159.601 105.246C193.025 139.908 246.631 157.978 270.566 224.352C270.822 227.292 268.814 230.225 266.602 231.601C264.374 233.09 261.982 233.866 259.592 234.471C254.835 235.65 249.789 235.929 245.111 236.25C238.283 236.969 231.299 237.512 224.006 237.857C209.568 238.5 194.248 238.492 178.473 236.234C163.414 233.591 143.992 230.346 135.653 212.956C131.208 202.179 133.334 189.804 138.751 179.786C166.411 126.461 237.537 141.835 279.854 110.662C288.777 104.751 287.273 92.1599 281.958 83.6247C276.728 74.8755 268.975 66.8853 259.576 63.6496C252.483 61.5382 244.833 63.0903 237.947 65.5951C233.359 67.2685 229.361 69.197 225.783 70.9174C192.167 86.9396 195.488 84.7882 225.109 69.5666C231.972 66.1793 240.415 61.3151 251.635 60.6091C254.502 60.488 257.404 60.7686 260.176 61.5454C271.363 65.3438 279.288 73.9774 284.78 83.29C290.386 92.1914 291.347 106.59 281.63 113.019C230.885 144.744 175.459 137.652 154.061 166.346C149.529 171.279 145.965 176.644 143.149 182.163C138.256 191.775 137.282 202.571 140.96 210.761C148.784 225.912 169.373 228.629 186.49 230.552C204.392 232.119 223.246 231.628 244.425 229.577C249.314 229.251 253.319 229.071 257.44 228.17C259.432 227.735 261.375 227.101 262.659 226.322C263.298 225.941 263.708 225.544 263.863 225.312C264.014 225.069 264.049 225.017 264.055 224.627C263.312 210.463 251.561 195.179 237.856 180.64C207.815 149.722 178.282 130.488 155.51 109.404C149.519 103.743 143.916 97.8365 139.222 91.331C136.892 88.0348 134.729 84.6311 133.247 80.4299C131.776 76.5949 131.154 69.7314 135.758 65.4549C140.69 61.7089 143.473 62.9137 146.248 62.8037C148.968 62.9895 151.447 63.4272 153.863 63.9334C158.765 65.0076 162.907 66.1621 167.926 67.9703C186.964 76.0698 204.085 85.8399 221.188 97.9439C235.657 108.427 245.823 117.198 256.318 129.317C264.957 140.986 283.348 159.371 271.398 189.567C262.068 210.151 236.429 221.138 206.662 229.56C191.609 234.068 174.528 237.996 157.175 245.633C140.005 252.719 122.788 268.076 126.323 291.406C129.669 317.021 165.832 326.545 198.463 334.809C206.028 336.88 213.815 339.12 221.691 341.164C263.961 353.547 322.247 357.05 326.953 312.327C334.489 259.087 311.688 192.598 264.828 190.392C203.715 194.469 153.729 253.373 95.7127 234.355C54.8514 223.88 38.3505 183.488 35.2806 153.07C32.1064 121.413 38.1438 91.3341 54.6575 68.659C58.7797 63.1885 63.4121 58.1976 68.6662 53.9641C102.496 23.7132 155.61 50.7931 198.559 72.7689C226.309 85.8004 273.642 105.65 270.769 152.703C268.944 200.225 242.975 244.15 214.879 282.435C197.759 305.658 175.514 326.708 172.667 352.082C169.74 375.187 206.294 376.489 227.92 371.792C249.77 366.445 270.169 353.636 286.195 338.745C288.486 336.569 290.736 334.303 292.901 332.002C317.99 304.648 345.517 261.525 339.302 213.147C327.312 159.336 261.858 111.921 199.853 109.794C185.229 110.07 176.487 119.227 169.329 133.26C149.34 170.073 142.234 213.035 141.825 254.382C141.531 277.122 151.169 300.265 149.297 326.158C148.671 333.791 145.518 344.137 135.735 348.526C126.127 352.545 117.295 349.349 110.63 345.944C67.349 318.944 71.7872 268.561 72.052 234.61C74.0033 198.561 80.2399 167.275 85.1683 141.831C85.2861 141.223 85.3953 140.583 85.4962 139.932C86.3993 134.037 86.699 127.532 88.1775 120.806C89.5137 114.554 92.9617 104.942 102.529 101.875C108.54 100.099 112.806 102.516 115.541 104.097C118.384 105.865 120.47 107.766 122.389 109.655C126.179 113.454 129.13 117.259 131.865 121.009C137.341 128.666 141.392 135.293 145.644 143.2C161.772 186.28 158.044 215.931 153.299 245.089C150.213 259.546 145.819 274.506 135.205 289.004C125.3 303.637 102.821 315.421 79.0755 309.212C68.0318 307.171 58.7153 297.375 54.8088 286.634Z" fill="#FF383C" fill-opacity="0.5"/>
</svg>
