/* XPM */
static char *result[] = {
/* columns rows colors chars-per-pixel */
"50 50 102 2 ",
"   c #171A27",
".  c #171B2A",
"X  c #191C2B",
"o  c #1E1F31",
"O  c #201F33",
"+  c #1D202F",
"@  c #1F2231",
"#  c #222534",
"$  c #252936",
"%  c #272639",
"&  c #28273C",
"*  c #262A39",
"=  c #2A2E3C",
"-  c #2C313D",
";  c #31353E",
":  c #2D2C41",
">  c #2E3240",
",  c #323643",
"<  c #353C43",
"1  c #393E45",
"2  c #343448",
"3  c #3A354E",
"4  c #343C4A",
"5  c #3A3C4C",
"6  c #3D3C52",
"7  c #364147",
"8  c #3A4146",
"9  c #3D444B",
"0  c #3F484E",
"q  c #3D4452",
"w  c #414547",
"e  c #41464B",
"r  c #424A4E",
"t  c #404754",
"y  c #454C52",
"u  c #484F53",
"i  c #464C5A",
"p  c #4A4D5B",
"a  c #475157",
"s  c #4A5255",
"d  c #46515A",
"f  c #4D555A",
"g  c #4E585E",
"h  c #50575C",
"j  c #51595E",
"k  c #514B66",
"l  c #554C6D",
"z  c #4E5863",
"x  c #545D62",
"c  c #505E68",
"v  c #576065",
"b  c #586166",
"n  c #52636D",
"m  c #5C656B",
"M  c #5F686E",
"N  c #5C6471",
"B  c #5D6972",
"V  c #60676E",
"C  c #606A6E",
"Z  c #626C73",
"A  c #656E7A",
"S  c #667076",
"D  c #667279",
"F  c #69747B",
"G  c #6D797E",
"H  c #6C7783",
"J  c #6D7A82",
"K  c #717E85",
"L  c #727F89",
"P  c #738087",
"I  c #75838A",
"U  c #78868E",
"Y  c #7B888F",
"T  c #768591",
"R  c #7A8790",
"E  c #7C8A93",
"W  c #7E8F98",
"Q  c #818D96",
"!  c #828E99",
"~  c #85929C",
"^  c #89979F",
"/  c #8796A1",
"(  c #8996A1",
")  c #8798A2",
"_  c #8C9BA5",
"`  c #8E9EA8",
"'  c #909CA6",
"]  c #909EA8",
"[  c #8FA0AA",
"{  c #93A3AD",
"}  c #96A6B0",
"|  c #97A8B2",
" . c #9AABB5",
".. c #9EAEB9",
"X. c #98B0B6",
"o. c #9FB0BA",
"O. c #A0AEB8",
"+. c #A2B3BD",
"@. c #A4B6C1",
"#. c #A7B9C6",
"$. c #A8BAC5",
"%. c #A8BBC8",
/* pixels */
"X X X X X X X X X X X X X X X X X X X X X X X X X X X X X X X X . . X X + . X X X X X X X X X X   + ",
". X X X X X X X X X X X X X X X X X X X X X X X X X . X X X X X . + X X . . X X X X X X X X X .     ",
"X X X X X X X X X X X X X X X X X X X . X X X X X X . X . X . X X . X X X $ 2 + X X X X X X X X X   ",
"X X X X X X X X X X X X X X X   . . X X X X X o X X X X X X X . X . X X . * 2 X X X X . X X X X X + ",
"X X X X X o X X X X X X X X X X X o X X X X X X X X X X X X X . X . X X . . X X X X + . + . X X .   ",
"X X X X X X X X X X X X X X X X . . X X X X X X X X X X . X X . . . . X . + . X X X X X X . X X X + ",
"X   X X X X X X X , 6 X X X X X X X X X X X X 2 =   X X . X X . . + + . . + . X X X . X + X X X +   ",
"X X X X X X X X X t p o   X X X X X X X X X X O = = @ . X . o X . . . . . . X . X X X . . X + X + . ",
"X X X X X X X X X @ X X X X X X X X X X . # z J ! Q A q + . X X X X X . X . X . X X X X X X X X . + ",
"X X X X X X X X X X X + X X X X X X . . - H { o. . ._ R z # X X . X . X . X . X X X X X X X X X . X ",
"X X X X X X X X X X X X X X X # * # @ 4 T ..o. . .} { W U M - X . . . X X . . . X X X X X X X X X . ",
"X o X X X X X X X X X X X > B E ( ~ W ` o... . .} } { Q U U F d , - = # @ @ . . X X o X X X X . X   ",
"X X X X X X X X X X X X i ~ R B E +.@.+.o... .{ ` ` ] ~ U I I I I G F V x p , # X X X X X $ B 9 . X ",
"X X X   X X X X X X X q  .R 9 x ] +.O.O.| [ / D v m F ! W U I L I K K G D C j y ; X X X   1  .n   X ",
"X X X X X X X X X . # E +.Y T X.+.@.O. .[ W J 0 7 < 9 B ! ~ W E Y E Y I G V y 8 r ; X X X # p - + X ",
"X X X X X X X X X . 9 ..#.#.+.#.+..... .| | ) E I B Z P E ! Q W E E Y U K Z x 9 1 t * X X X   X   X ",
"X X . . . . . X . . N #.#.@.+.+..... .} } ] ` ` ` ) ~ ! ~ ! W E Y Y U P P S M j 8 8 7 + X X X X . X ",
"X X . . X + X X . # E #.@.@.@... . .} } } { ` _ ) ) / ~ ! ! E E U U P P K Z m b j s s # X X X X X . ",
"X X +   . X X   . q  .#.@.o.o... .} } { { ` _ ( ) ( ~ ! Q R E T U I P G S M m m v v f - X X X X X X ",
"+ X X X . X +   , ~ #.+...o... .| } } [ ] _ _ ( ( ~ ! ! Q Q R T I K F C M m b b v v j ; X X X X X X ",
"  X X X X X . * T  .^ W } .. .| } } { _ _ _ ( ( ~ ! Q Q R R U L G Z C V m m b x x j j 7     X X X X ",
"X X X X X X + Z { R a g ` {  .{ } ` ` _ _ ( / ( ~ Q Q E R U L K Z M m m x b x x v j h ; X + X X X X ",
"  X X X X X t } ^ z , 0 L { } { ` ` ` _ ( ( ! ! Q E Y Y U U K Z b M m x h x x x j j h - X X X X X X ",
"X X X X . + F o.P 9 ; g _ | { { ` ` _ ) ( / ! ! E E Y U P G Z V j m b f b x x j h f s - 6 & X + X X ",
"X X X X X * ~ ..H 7 , D { { { [ ` _ ^ ^ ^ ~ ! E R R Y K S C C b s j f s v j j j t e e = k 3 X X X X ",
"+   X X X = ) +.! 0 7 U { { ] ' _ ( ( ~ ! Q Q E R Y K S Z M M f 8 7 r f v j j f 1 w 1 o % O X X X X ",
"X X X X . - ( o.} F H ! { [ ` _ ( ( ~ ~ ! E E Y I K Z Z m v f 7 ; 7 r h j j j f y y 1 X   X X X X X ",
"5 @ X X . * ~ .. .W [ ) ` ` _ ) ( ^ ^ ! ! E Y I F Z Z V b a 1 1 7 1 r h j h f f h u w X X X X X X X ",
"l : X . X # I | | / ) { ] _ ( ( ~ ^ ! Q E Y Y G Z Z m g y 7 1 1 1 ; u h h h f u u u w o X X + X X X ",
"3 # X . . 4 E ) } _ ` ` _ _ ( ( ! ! Q R Y Y I F C m x m y < 1 1 1 w f f h s s u y y 8 X X X X X X X ",
"o . . .   c [ E / _ _ _ _ ( / ! ! ! E E Y I P S C M M j 9 ; ; 7 r s s h s s u u r u 8 X X X X X X X ",
"X X   +   - 0 m E T E ! ! ! ~ ! ! E R R U P P Z M M j a 0 8 0 s h s h s s s y r r r 1 o X X X X X X ",
"X . X X X X X = F U L L L L U Q E E U U P P F M M m g x f f f s f f f s s u r r r r ; +   +     . + ",
"o . X X X % X X w K L L K J H G P U U I U J Z M m b v x x x g h g s s s s u u r 0 0 ; + +       X . ",
"X X X X O O X X o x K K K G F F D F J G F Z M m m b v x j j j h s s s u u r r w 8 1 -     + + + X X ",
"X o X X X X X X X ; F H G F F S S S Z C M M m m b v x x j j f f h u u u r r r 1 < < +   +   +   X X ",
"X o : X X X X X X X f K F F F S S Z C C M m m v x x x j j h f s u u u r r w 8 < 7 - + .       + X . ",
"X & 6 O o X X X X X = Z F F S S S C C V m v s s x x j j f u r e 9 r u r r w 1 1 7 @ . +   +     X X ",
"X o O X X X X X X X X s x B Z Z C C V m m x s g x j j h s e ; 7 r r r r r 1 1 < $   +     + +   X X ",
"X X X X X X X X X X X * z x s j m M m m b b j f f f h h f r w 0 r u r w 9 8 < $ . .     + +   + X X ",
"X X . X . X o . X X X . 4 f 5 u m m m g r < * $ # % ; 1 1 e y t y y y w 5 2 O X + . X X @ # . X X X ",
"@ X X X X . . X X X X . X > u x z q < @ X X X X X   X X o # # & ; ; ; = # X X X . + X X X X X X X # ",
". . X X . o . X X o . . X X o @ @ + X . X . X X X X X X X X X X X X X X X X X X . . X . X X X X # 5 ",
". . . X . . . X X X o : * X X . X X . . X X X X X X X X X X X X X X   X X X X X . X X X X X X + X + ",
"X X X X X . o . X . : A p X X X X . X X X X X . X X X X X X X X X X X X X X X X X X X X X X . X X X ",
"X X X X . X . . X X # i > X X X . . X . X X . X X X X . X X X X X X X X X X X X X X X X X X X X X X ",
"X X X X . . o . X X . o X X X X . X . X X X X . X . . X   X X X X         X X X X o o X o X X X X X ",
"X X X X . . . X . X X X X X X X . . + . . X X X . X . X X X     X +     X X X X X X X X X X X X X X ",
"X X X X X X X X X X X X X X X X X X X X X X X X X   X X X     o X X   X + X X X X X X X X X X X X X ",
"X o   X X X X X X X   X X X X X   o X X X X X X X X X X o X       +   X X X X X X X X X X X X X X X "
};
