/* XPM */
static char *result[] = {
/* columns rows colors chars-per-pixel */
"50 50 91 1 ",
"  c #161926",
". c #171B29",
"X c #191C2B",
"o c #1F1F31",
"O c #201F34",
"+ c #1D212F",
"@ c #1E2230",
"# c #20232F",
"$ c #222434",
"% c #252835",
"& c #2A2E37",
"* c #29273C",
"= c #262A39",
"- c #2A2E3B",
"; c #2D323C",
": c #31363E",
"> c #33393F",
", c #2C2A40",
"< c #2E3341",
"1 c #303442",
"2 c #343A43",
"3 c #393F45",
"4 c #343448",
"5 c #39364D",
"6 c #363D49",
"7 c #3A3C4D",
"8 c #3B3651",
"9 c #3D3C52",
"0 c #403D53",
"q c #3C4247",
"w c #37434F",
"e c #3E434A",
"r c #3F4451",
"t c #404547",
"y c #41464A",
"u c #434A4D",
"i c #404650",
"p c #464D52",
"a c #484F52",
"s c #464F5A",
"d c #494C5B",
"f c #465256",
"g c #4B5255",
"h c #45515C",
"j c #4E555A",
"k c #4F585D",
"l c #525A5D",
"z c #504C65",
"x c #554C6D",
"c c #4D5761",
"v c #555D62",
"b c #585F64",
"n c #535E69",
"m c #576064",
"M c #596166",
"N c #55636D",
"B c #5C656A",
"V c #5F686E",
"C c #5D6A74",
"Z c #616A6E",
"A c #636D73",
"S c #676A7B",
"D c #667176",
"F c #687177",
"G c #677279",
"H c #6A757C",
"J c #6C787F",
"K c #6D7A81",
"L c #717E85",
"P c #738087",
"I c #75838A",
"U c #79868D",
"Y c #7B888F",
"T c #7D8B93",
"R c #808F97",
"E c #808F98",
"W c #819097",
"Q c #84939B",
"! c #88969E",
"~ c #8498A0",
"^ c #8C9BA4",
"/ c #8E9FA8",
"( c #8FA0A8",
") c #92A3AC",
"_ c #96A7B0",
"` c #97A8B1",
"' c #9AABB4",
"] c #9EAFB8",
"[ c #9FB0B9",
"{ c #A2B3BC",
"} c #A5B7C0",
/* pixels */
"XXXXXXXXXXXXXXXXXXX.XXXXXXXXXXXX.+..+.XXXXXXXX.+X.",
"XXXXXXXXXXXXXXXXXXXXXXXXXX.X.XXX......X.XXXXXX..X.",
"XXXXXXXXXXXXXXXXXX.XXXXXXXXX.XXX.+.X.@4@XXXXXX..XX",
"XXX.XXXXXXXXXXXXXXXXXXXXXXXXXXXX..+.+=4@XXXXX.+.XX",
"XXXXXXXoXXXXXXXXXXXXXXXXX..+XX.X+ ..XXXXXXX+.XXXX ",
"XXXXXXXXXXXXXXXXXXXXXX.o+..+X... .+.XXXXXXXXX+XX++",
"XXXXXXXXX<9oXX.XXXX..X.4,@@@@@<r<+....XXXX..XXXX .",
"XXXXXXXXXrsoXX..XXXXXXX*cGKKKGGKAs@+..XXXXXXXXX+.+",
"XXXXXXXXX++X....X..XXX7GUUUPKKLLHDvre;XXXXXXXXXX+.",
"XXXXXX+XXXX+<cnns<@%6BUYTTQWTTTUPHAVVm;XXXXXXXXX +",
"XXXXXXXXXX;J~(((~YUIUTY!~QQWTTUIPKKFABl;XXXXXXXX.+",
"XX XXXXXX@K)_`__(~QWQQ^!~QWTTYIIKKKHFCvj3&+XXXXX..",
"XXXXXXXXX=~)}}[['_(((/~!TPJKLUPLJJHHFDmllg3XX%Aw.+",
"XXXXXX XX-Q`}[[''__(^WTLHVllBGHDVDHFDZmlggu# 7'N .",
"XXXXXXXX.h(`[['`_)/^TIAkvcapgBAlpBDZmllggja%X$h&.+",
"XXXXXXXX.N(_[['_)//QPHkgpuq3ujBvulBmljgggaa3+XXX..",
"XXXX.XXX,R^']'_)//^YKngq33q33rvBlblluqqeaapu3+XX.X",
"XXX.XXXXA^)]'`)(/^EJmjyq33333qgmlvllqq3qipuuy&XXX.",
"X.XXXXX%Y^''`(^/^^TZjy333333qqfmmllgq333uuutt&XXXX",
"XXX.XXX@K^`'^AnU^^YBy33333333elmllgu333qauutt:XXXX",
"XXXX.XX.c~/_Lt3F!ERZ0>333333qkvvllgq33tautttq#XXX.",
"XXXXXXX.c~^)H3yT!EEKuq333333evvllguq03tautqq&XXX+.",
"XXXXXXX=KQ()H3lQERRFaq33q333gvllga33>taueqt:+XXXXX",
" XXXXXoCTQ(/H3AQERUFlqqeq3qqllljgqqquuuttt>&5*XX.X",
"XXXXX.=UQ(^^UATWRRRJZlbbjqqjlljjattauutt03+*z5XXX+",
"XXXXXX=PQ^^!!!WRYYIPJZZZmjjlllggaauautt>#XXX*$XX..",
"+XXXX.%KR!!!!RRYUUIPJFZbmMvljjggauuuttt#XXXXXXXXX.",
"7@XXXX.cYQ!QQRYYULIJJDMbnllljggaauutttt+XXXXXXXXXX",
"x,XXXX.hUY!WWYYUPPLJFZbbbllgggaautttt0%XXXXXXXXXXX",
"8OXXX6nnIYQRPJHJLLJJZbblllggggaut0ttt&XXXXX+XXXX.X",
"XXXX.n^NLURLZMMDFJJZlbbllggguuattttt&XXXXXXXXXXXo.",
"XXXX.<6hLPUFlutbZZlaablllgguttuuttq&#XXXXXXXXXXXXX",
"XXXXXX dLJJAu33jZbu3tjlaqqtqquutq&++XXXXXXXXXXXX.+",
"XXXX#%1FJHHAp33pZgggllgq33qqeutq&+X XoXXXX.XXX.XXX",
"XXXoX=nKGAGMy33tbbblllu3qqqquuqq+XXXX.X..X..XXXXXX",
"XXXXXiKFjuAlq33qbMllljaqquuetttq+XX+..+XXXXXXXXXX.",
"XO*XXiJAugAby33uvblljgguquutqtt&XXXXXX+.XXXXXXXXXX",
"X*0OX*AGBVAle7qjblljggggpuuttt>++X.+.+.XXXXXXXXXXX",
"ooOXXXpAmCVlq3ivlllgggfuuueqq3# XXXXX+.XXX.XX.XXXX",
".X.XXXiSAZBBjavvllgggau2:;::&+++.XXXXX.X.XXX@@XXXX",
".X..X.qCZBBMMvllkgggfu;+XXXXXXXXXXXXXXXXo.@.@@o...",
"XX+XXX@cZBvvMvlljw2::%XXXXXXXoXXXXXXXXoX@..o...+o@",
".+XX.X.-gp;$illj<+X...XXXXXXXXXXXXXXX.XX.o...+.+$7",
"..XXXXo.X+X--qa&X.XXXXXXXXXXXXXXXX.XXXXX.X.X....X@",
".XXXo..X.X,SdX$XX.XXXXXX.XXXXXXXXXX..XXXXXXXX.o.XX",
"+.XX.X..XX%d1XXXX.XXXXXXXXXXXXXXXX.X.XXXXoXXXX+.XX",
"X.XX.XX.XX.XXXXXXXX..X.XXXXXXXXXXXXXXXXXXXoX.o.oXX",
".XXX..X.XXXXXX.XX.X.XXXX..XXXX XX.X.XXXXXXXXX...XX",
"XXXXXXXXXXXXXXXXXXXXXXXXX XXX XXX.XXXXXXXXXXXXXXXX",
"XXXXXXXXXXX.XXXXXXXXXXXXXXXXXX XXXXXXXXXXXXXXX.XX."
};
