/* XPM */
static char *result[] = {
/* columns rows colors chars-per-pixel */
"50 50 200 2 ",
"   c #181C2B",
".  c #191C2B",
"X  c #191C2A",
"o  c #181D2B",
"O  c #191D2C",
"+  c #191D2B",
"@  c #181D2C",
"#  c #181B2B",
"$  c #191B2B",
"%  c #181C2A",
"&  c #181C29",
"*  c #191B2C",
"=  c #191C2C",
"-  c #1A1C2C",
";  c #1A1B2C",
":  c #1A1B2B",
">  c #181B2A",
",  c #242737",
"<  c #333447",
"1  c #1C1E2F",
"2  c #191B2A",
"3  c #1A1C2B",
"4  c #26293A",
"5  c #343548",
"6  c #1A1A2C",
"7  c #1A1C2D",
"8  c #1A1D2C",
"9  c #181A2A",
"0  c #191A2B",
"q  c #1D1F2F",
"w  c #1C1D2D",
"e  c #191C29",
"r  c #313443",
"t  c #3D4050",
"y  c #1C1E2D",
"u  c #19192B",
"i  c #333644",
"p  c #2D2F3E",
"a  c #171A28",
"s  c #181C28",
"d  c #3E4050",
"f  c #4B4E5E",
"g  c #1D202F",
"h  c #1E202F",
"j  c #1C1F2D",
"k  c #191D2A",
"l  c #171B2A",
"z  c #1A1D2D",
"x  c #1C1F2E",
"c  c #1C202E",
"v  c #1A1D2B",
"b  c #1E2030",
"n  c #3A3D4D",
"m  c #545567",
"M  c #232536",
"N  c #1B1C2D",
"B  c #1A1B2D",
"V  c #48495B",
"C  c #545768",
"Z  c #202434",
"A  c #1A1E2C",
"S  c #202232",
"D  c #202332",
"F  c #202033",
"G  c #2D2C40",
"H  c #212233",
"J  c #181D29",
"K  c #171C2B",
"L  c #2B2A3F",
"P  c #514C65",
"I  c #323045",
"U  c #252A37",
"Y  c #5D6975",
"T  c #37434E",
"R  c #171B28",
"E  c #1D1D2F",
"W  c #212134",
"Q  c #2C2C40",
"!  c #1F2132",
"~  c #171D2B",
"^  c #161A26",
"/  c #383F4B",
"(  c #98AFB7",
")  c #53646D",
"_  c #1B1C2E",
"`  c #28273C",
"'  c #443E58",
"]  c #36324A",
"[  c #1D1D30",
"{  c #202333",
"}  c #45515C",
"|  c #2B323F",
" . c #322F46",
".. c #58506E",
"X. c #4E4664",
"o. c #232236",
"O. c #181B2C",
"+. c #1A1B2E",
"@. c #171B29",
"#. c #2B2C3F",
"$. c #3C3F51",
"%. c #202233",
"&. c #1F1F31",
"*. c #2D2A42",
"=. c #28263C",
"-. c #191A2C",
";. c #393D4E",
":. c #505264",
">. c #1B1D2D",
",. c #202632",
"<. c #495561",
"1. c #36424E",
"2. c #1E2131",
"3. c #212433",
"4. c #171A29",
"5. c #454F5C",
"6. c #9CB8C0",
"7. c #667C86",
"8. c #171F2D",
"9. c #1E2130",
"0. c #1D202E",
"q. c #191B29",
"w. c #2F3442",
"e. c #596974",
"r. c #2E3846",
"t. c #1B1E2D",
"y. c #464958",
"u. c #464858",
"i. c #3D3F4F",
"p. c #3C3E4E",
"a. c #1B1E2C",
"s. c #232437",
"d. c #3C3851",
"f. c #2A273E",
"g. c #1C1E2E",
"h. c #262538",
"j. c #1E1F31",
"k. c #29293D",
"l. c #514B66",
"z. c #39344E",
"x. c #1F2031",
"c. c #424054",
"v. c #2A293D",
"b. c #242636",
"n. c #1F2032",
"m. c #232535",
"M. c #202133",
"N. c #554B6C",
"B. c #2D2A41",
"V. c #1B1E2E",
"C. c #3B3550",
"Z. c #201F34",
"A. c #181B29",
"S. c #323947",
"D. c #586470",
"F. c #242A38",
"G. c #323344",
"H. c #262838",
"J. c #1A1B2A",
"K. c #1A192B",
"L. c #1B1D2E",
"P. c #525E69",
"I. c #8BA0A9",
"U. c #2C3442",
"Y. c #1F2131",
"T. c #1D1E2F",
"R. c #2D323F",
"E. c #363E4B",
"W. c #1A1E2D",
"Q. c #1A1C2A",
"!. c #181B28",
"~. c #1C1F2F",
"^. c #1E212F",
"/. c #242634",
"(. c #202234",
"). c #191B2D",
"_. c #191C2D",
"`. c #1F1F32",
"'. c #272639",
"]. c #1C1D2F",
"[. c #2A283D",
"{. c #413D54",
"}. c #212034",
"|. c #1B1B2E",
" X c #212033",
".X c #1F2231",
"XX c #1B1F2E",
"oX c #1A1A2D",
"OX c #181C2C",
"+X c #191E2D",
"@X c #232636",
"#X c #3A3C4C",
"$X c #2D2F40",
"%X c #252838",
"&X c #2B2D3E",
"*X c #686A7B",
"=X c #484B5C",
"-X c #47495A",
";X c #303142",
":X c white",
/* pixels */
"    . . X . . . .       .   . .       o . . .         .   O O . o + @ . . . . . . . . # $ # % & & % ",
"    X . . * . X . # . . = . = .       . .       .   .   . . . .       . . . - $ . .   . . . % & & % ",
". . . ; ; - - : . . # $ . . -             . . . . . . . .           . . > , < 1 . .     . . X & & % ",
". . . 2 ; $ $ 3 . . $ $   . . #       # $ $ . X . X .     .         .   > 4 5 1 . . . o . . + X & + ",
"X $ . $ 6 : - 3 . X . . . . . * . . . . . . . 7 6 X . .   . > > %   . . >   . . . . O + + - 8 . . . ",
"> 9 $ . $ - 3 - X . . . 3 2 2 . . $ $ . . X 0 q w * - + . . % & & . . . .     > . .   . 8 - - . 8 + ",
". # . . X . e - . r t y 0 2 2 : = $ $ $ . : u i p a . .   . . % s X             . .   % 8 8 8 8 . . ",
". . . O . . X - . d f g . . . . . $ $ 2 $ : : h j 2 . .   X + . k & . +   l l   #     . . . 8 z + . ",
"O O + . . .   . . x c . +   . . # % % # ; 3 : 3 v b - . . O v v o . .   > >     # . . . : 3 - - + O ",
". . .   . . O O 8 . . +     . . X . .   . 6 $ 2 n m M . 8 O . . %   .   > o o . . X X 2 3 N - - 8 X ",
"X . .   . + O . O O . + . + .   . . . % X $ . B V C Z . - # . . %         o   # . . 3 - : - . X . O ",
"- 3 . . . 8 A . . . . .   .     # . # . X 2 . . S D = - F G H .   . .       .   . 8 - 3 : 7 > J . . ",
"- X . . X X . K . . . %             >   # # . . - . . . L P I #     .       . . # . . . & U Y T R 7 ",
". .     . .       . #   l       > . .   = 7 - E N = - N W Q ! #         ~     . # > > . ^ / ( ) R . ",
". #     . . . . . . . >   .   l . .     . _ ` ' ] [ . + . R > .             . . # # # = 2 { } | 2 X ",
". .     . . . .   >       +   + . 7 = . X ;  ...X.o.> + % s   .     # #     % = = * O.+.. & @.3 X X ",
"  .     . + . # > # . = . . . - - #.$.%.= z &.*.=.N . . + X . . #               = = # -.. $ X e . . ",
". .   o         > . . X 9 > A . . ;.:.M >.8 . ; ; . .       %   . O       + . .   %   $ X X . X . . ",
". .       . . . . . % ,.<.1.o > > 2.3.. - . . . . . .       %     O   .   O 8 + A     . . . : - . . ",
"s X . % . > . X . . 4.5.6.7.8.l   . > + . - 9.0.- - .       .   .     .     . + . X % % X . X 3 .   ",
"2 X . . X X X 3 X q.0 w.e.r.o     o   . . t.y.u.x z     %       X . . . . # # . X e X & e X - - X . ",
". . . . . X X - . $ . $ . >   .     .   . 3 i.p.. + . . +   . + . X . + + . . . . . . . . 8 = . + . ",
"% X X . . . . .   . . $ - + . .       . X . t.a.% .     +     . . . . - X X . X   . + . >.7 . . . . ",
"  % . .   % . . . . . $ . $ X X         X . + O   . .   %     . - 3 3 7 . . . . . % O s.d.f.. - . 3 ",
"% X . . .     . . . . X g.h.j.; .     . . . + . .     . %   + O 8 . . 7 - . . . . . 7 k.l.z.; $ . . ",
"% X . . . .   . 3 . + . x.c.v.* X % . . + O . O O .       #   . . . . = - . . . . . . t.b.n.$ . ; X ",
"8 . . . . . . . . . . X >.m.x . 9 . . . . . . O 8 . . .   % l # $ # . . X . . # . . X . > . . . . . ",
"d.M.  - + . X X . . . X - . . . . . .   . %   O + .   + + % # # # . . X . = . X . + . . . . . . . X ",
"N.B.; - . 9 > % - - . . . + . %   .   . X + . + . . . . 8 q V.. . . . : : : : $ . . - B - - ; 2 # X ",
"C.Z.; . A.S.D.F.v 8 . . . . + %   . + . O + .   . . > X 8 G.H.> . . . 3 J.K.6 B - - - B $ 7 - . . $ ",
"L.* . X R P.I.U.b 8 . . + . O . X +   . +     .   . . . - Y.T.. . . $ : : ; ; : ; - X * - . 3 X 3 - ",
". . . 3 A.R.E.W.v . . . . . .   >         . % % . + . . 3 - ; - X 3 3 $ 2 $ ; ; * . X . X - 3 e Q.: ",
".   = . : Q.!.; 3 - # # . ~.8   l # . .   + % >     . O 3 - : . . = . # > * * = # *   . X . & s X X ",
"* - - - ^./.Q.3 X 3 . # 7 (.L.% %   O . % %     . O . + - . . . * * ).O.* * * # * = * .   . & X X . ",
"O . = - x 9.. 3 X e . = 7 = 7 . O . . .   .   . . O O + O + . + - = _.B $ # . . l   -.$ . 8 + .   . ",
". = . - . . . . . 8 . . = @ . . . . .   . O O . . . . > . + . O - - W.O . # O . =   # # . . . .   . ",
"$ `.'.].3 . . . + = . . .       . % %   % O O . +     # .   . . 8 8 8 . . . O . . . . . $ . #       ",
"-.[.{.}.|.N + - %       .       . . %                 >     - - 8 O 8 O O O . . . X . . . . #       ",
"_ ]. X>.. - - 3 + . . .   . o . + . . . . .   O +   %         . 8 = . - . 8 + . . X % + . + + .     ",
"$ X . X . . - . .   . . .   . t.O . . O . + . O             . = 7 7 . . . + = = . . . . q .X. .   . ",
"  %   . . . = .     . .       g XX.   . . . + . . . -   + # -.B oX-.# . 0 -.B = . . z 8 g D . . X X ",
". . O     .   .     . = # = = . +       %   . . >   . OX+Xz B * _.= # # B -.# 7 8 O = - . . . O t.9.",
". . O #   .       .   = O - = . + . .   >   . . OX-.. = - - = # OX~ #   = = = 7 - 7 #   + . O O @X#X",
"    . .   .   > = - t.$X%X% .   .   .       . + @ # . . - - . # #   o   # # . . . .   = . . . . t.9.",
"  . . .   K     . * &X*X=X* . .               o .         .   . . . . % % %   . . $ $ $ . . # . . . ",
"X X X . .   o   . # @X-X;X. # .                     o   .       . + % s & > % . . ; $ B - =   = . . ",
"2 $ $ * #   . o . . . W.8 . $   o > > K ~ >       o .   % % # $ . % % & X 2 $ 3 . B _ _ - - . 7 . . ",
"X $ . . K   . . . . . . . . . . $ #   o         .   > > % & % X   % & & X $ ; . $ - . ; $ $ - . + O ",
"$ $ 3 $ . . X . . . X . $ 2 : $ : $ . . . X $ . #   l % X s s X . . X & . = _.#   .   > . .   .     ",
"$ : $ ; . $ $ . X $ $ $ B : ; $ ; : $ . # . 2 . X . . . . X X . . . & X . = =     >   . .         . "
};
