/* XPM */
static char *result[] = {
/* columns rows colors chars-per-pixel */
"50 50 249 2 ",
"   c #31382D",
".  c #383B2D",
"X  c #3D3B2E",
"o  c #353A32",
"O  c #373B35",
"+  c #3A3C37",
"@  c #3B3C38",
"#  c #3F3C39",
"$  c #3D3E39",
"%  c #6E1D32",
"&  c #6E1E32",
"*  c #711B31",
"=  c #721B32",
"-  c #7A1B32",
";  c #7A1B33",
":  c #7F1C32",
">  c #791D34",
",  c #7B1C34",
"<  c #5B242F",
"1  c #5B2C2F",
"2  c #562831",
"3  c #4B3534",
"4  c #4C3A39",
"5  c #533331",
"6  c #533333",
"7  c #543230",
"8  c #5F3332",
"9  c #513839",
"0  c #5B383A",
"q  c #662E36",
"w  c #682A33",
"e  c #692D34",
"r  c #722D33",
"t  c #702E33",
"y  c #772E38",
"u  c #782F38",
"i  c #643235",
"p  c #603831",
"a  c #603A35",
"s  c #64343A",
"d  c #6D3339",
"f  c #6C323A",
"g  c #6D343A",
"h  c #70333B",
"j  c #73333B",
"k  c #75303A",
"l  c #763739",
"z  c #793239",
"x  c #79313A",
"c  c #79313B",
"v  c #7B303B",
"b  c #78343B",
"n  c #37412E",
"m  c #3D412F",
"M  c #3F4230",
"N  c #3F4730",
"B  c #3B4334",
"V  c #3C4834",
"C  c #3E4934",
"Z  c #3E4139",
"A  c #4B5A1E",
"S  c #4C7F05",
"D  c #4B7609",
"F  c #4D631D",
"G  c #49432F",
"H  c #414331",
"J  c #484231",
"K  c #494232",
"L  c #494332",
"P  c #4A4432",
"I  c #484334",
"U  c #4A4734",
"Y  c #4C4535",
"T  c #494D32",
"R  c #4A4834",
"E  c #4A4A34",
"W  c #4E4B35",
"Q  c #4B4D35",
"!  c #4B4039",
"~  c #434939",
"^  c #464B3A",
"/  c #454E39",
"(  c #514333",
")  c #594735",
"_  c #594636",
"`  c #524B37",
"'  c #554C37",
"]  c #594836",
"[  c #5A4A36",
"{  c #514239",
"}  c #55433B",
"|  c #514938",
" . c #534B38",
".. c #554A39",
"X. c #564E39",
"o. c #5D4A39",
"O. c #5B4D3B",
"+. c #5A4C3C",
"@. c #5B4C3C",
"#. c #5F4C3C",
"$. c #5E4C3D",
"%. c #4E5235",
"&. c #4E5636",
"*. c #565235",
"=. c #535B37",
"-. c #58543A",
";. c #644736",
":. c #4B6234",
">. c #4C6535",
",. c #4F6A35",
"<. c #4F6D35",
"1. c #516C36",
"2. c #5D643B",
"3. c #516B38",
"4. c #5E6E39",
"5. c #527036",
"6. c #547337",
"7. c #557437",
"8. c #597037",
"9. c #55703B",
"0. c #5A7239",
"q. c #5D7538",
"w. c #597B38",
"e. c #5F783A",
"r. c #5B7F38",
"t. c #606039",
"y. c #6E6139",
"u. c #63683B",
"i. c #636F3A",
"p. c #636C3D",
"a. c #6F703D",
"s. c #60783A",
"d. c #607E39",
"f. c #617D3A",
"g. c #627F3B",
"h. c #697A3A",
"j. c #687B3A",
"k. c #6A7B3A",
"l. c #615044",
"z. c #69514C",
"x. c #725745",
"c. c #765645",
"v. c #725844",
"b. c #735944",
"n. c #735C44",
"m. c #745D45",
"M. c #71544E",
"N. c #745951",
"B. c #756145",
"V. c #821D33",
"C. c #852437",
"Z. c #8F2337",
"A. c #8C2437",
"S. c #862E3A",
"D. c #8E2B3A",
"F. c #8E2B3B",
"G. c #892D3A",
"H. c #8C2C3B",
"J. c #902436",
"K. c #902438",
"L. c #912438",
"P. c #952638",
"I. c #942B3B",
"U. c #952B3B",
"Y. c #922C3B",
"T. c #9B283A",
"R. c #9B293B",
"E. c #9C283A",
"W. c #9D293A",
"Q. c #9E293B",
"!. c #9F293B",
"~. c #9F2A3B",
"^. c #84373B",
"/. c #A02A3B",
"(. c #933940",
"). c #94384B",
"_. c #8F3E52",
"`. c #953F52",
"'. c #815446",
"]. c #914256",
"[. c #935467",
"{. c #9B5669",
"}. c #9A566A",
"|. c #8C6F66",
" X c #8E6F67",
".X c #9F697A",
"XX c #4D8201",
"oX c #4D8103",
"OX c #4E8400",
"+X c #5D8239",
"@X c #5E813C",
"#X c #5F833C",
"$X c #67813B",
"%X c #60853A",
"&X c #61853B",
"*X c #61873A",
"=X c #658539",
"-X c #60843C",
";X c #60853C",
":X c #62893B",
">X c #69923F",
",X c #6E953E",
"<X c #6C983F",
"1X c #6D993F",
"2X c #6E9A3E",
"3X c #709D3F",
"4X c #729F3F",
"5X c #678D40",
"6X c #6F9D40",
"7X c #72A240",
"8X c #72A340",
"9X c #73A440",
"0X c #72A441",
"qX c #74A440",
"wX c #74A541",
"eX c #75A541",
"rX c #76A742",
"tX c #75A840",
"yX c #76A841",
"uX c #76A941",
"iX c #78AA42",
"pX c #78AA43",
"aX c #79AC43",
"sX c #7AAD43",
"dX c #7AAF42",
"fX c #7BAE43",
"gX c #7AAF43",
"hX c #7BB042",
"jX c #7BB143",
"kX c #7CB143",
"lX c #7DB343",
"zX c #7DB443",
"xX c #7DB543",
"cX c #7EB543",
"vX c #7EB643",
"bX c #7FB743",
"nX c #7EB544",
"mX c #7FB644",
"MX c #7FB843",
"NX c #80B943",
"BX c #80B844",
"VX c #80B944",
"CX c #81BA44",
"ZX c #9FDF5B",
"AX c #C1F27A",
"SX c #BA7683",
"DX c #BE7F8B",
"FX c #CAADBB",
"GX c #CFB0BC",
/* pixels */
"CXCXCXCXCXCXCXCXCXCXCXCXCXCXCXCXCXCXCXCXCXCXCXCXCXCXCXCXCXCXCXCXCXCXCXCXCXCXCXCXCXCXCXCXCXCXCXCXCXCX",
"CXCXCXCXCXCXCXCXCXCXCXCXCXCXCXCXCXCXCXCXCXCXCXCXCXCXCXCXCXCXCXCXCXCXCXCXCXCXCXCXCXCXCXCXCXCXCXCXCXCX",
"CXCXCXCXCXCXCXCXCXCXCXCXCXCXCXCXCXCXCXCXCXCXCXCXCXCXCXCXCXCXCXCXCXCXCXCXCXCXCXCXCXCXCXCXCXCXCXCXCXCX",
"CXCXCXCXCXCXCXCXCXCXCXCXCXCXCXCXCXCXCXCXCXCXCXCXCXCXCXCXCXCXCXCXCXCXCXCXCXCXCXCXCXCXCXCXCXCXCXCXCXCX",
"CXCXCXCXCXCXCXCXCXCXCXCXCXCXCXCXCXCXCXCXCXCXCXCXCXCXCXCXCXCXCXCXCXCXCXCXCXCXCXCXCXCXCXCXCXCXCXCXCXCX",
"CXCXCXCXCXCXCXCXCXCXCXCXCXCXCXCXCXCXCXCXCXCXCXCXCXCXCXCXCXCXCXCXCXCXCXCXCXCXCXCXCXCXCXCXCXCXCXCXCXCX",
"CXCXCXCXCXCXCXCXCXCXCXCXCXCXCXCXCXCXCXCXCXCXCXCXCXCXCXCXCXCXCXCXCXCXCXCXCXCXCXCXCXCXCXCXCXCXCXCXCXCX",
"CXCXCXCXCXCXCXCXCXCXCXCXCXCXCXCXCXCXCXCXCXCXCXCXCXCXCXCXCXCXCXCXCXCXCXCXCXCXCXCXCXCXCXCXCXCXCXCXCXCX",
"CXCXCXCXCXCXCXCXCXCXCXCXCXCXCXCXCXOXOXCXCXCXCXCXCXCXCXCXCXCXCXCXCXCXCXCXCXCXCXCXCXCXCXCXCXCXCXCXCXOX",
"CXCXCXCXCXCXCXCXCXCXCXCXCXCXCXCXCXOXOXCXCXCXCXCXCXCXCXCXCXCXCXCXCXCXCXCXCXCXCXCXCXCXCXCXCXCXCXCXCXOX",
"CXCXCXCXCXCXCXCXCXCXCXCXCXCXCXCXCXCXCXOXOXCXCXOXOXCXCXCXCXCXCXCXCXCXCXCXCXCXCXCXCXCXCXCXCXCXCXCXCXCX",
"CXCXCXCXCXCXCXCXCXCXCXCXCXCXCXCXCXCXCXOXOXCXCXOXOXCXCXCXCXCXCXCXCXCXCXCXCXCXCXCXCXCXCXCXCXCXCXCXCXCX",
"CXCXCXCXCXCXCXCXCXCXCXCXCXCXCXCXCXCXCXOXOXCXCXOXOXCXCXCXCXCXCXCXCXCXCXCXCXCXCXCXCXCXCXCXCXCXCXCXCXCX",
"CXCXCXCXCXCXCXCXCXCXCXCXCXCXCXCXCXCXCXOXOXCXCXOXOXCXCXCXCXCXCXCXCXCXCXCXCXCXCXCXCXCXCXCXCXCXCXCXCXCX",
"CXCXCXCXCXCXCXCXCXCXCXCXCXCXCXCXCXCXCXCXCXCXCXCXCXCXCXCXCXCXCXCXCXCXCXCXCXCXCXCXCXCXCXCXCXCXCXCXCXCX",
"CXCXCXCXCXCXCXCXCXCXCXCXCXCXCXCXCXCXCXCXCXCXCXCXCXCXCXCXCXCXCXCXCXCXCXCXCXCXCXCXCXCXCXCXCXCXCXCXCXCX",
"CXCXCXCXCXCXCXCXCXCXCXCXCXCXCXCXCXCXCXCXCXCXCXCXCXCXCXCXCXCXCXCXCXCXCXCXCXCXCXCXCXCXCXCXCXCXCXCXCXCX",
"CXCXCXCXCXCXCXCXCXCXCXCXCXCXCXCXCXCXCXCXCXBXlXsXpXrXaXcXCXCXCXCXCXCXCXCXCXCXCXCXCXCXCXCXCXCXCXCXCXCX",
"CXCXCXCXCXCXCXCXCXCXCXCXCXCXCXCXCXCXCXCXCXmXkX8X&X>.3.3XCXCXCXCXCXCXCXCXCXCXCXCXCXCXCXCXCXCXCXCXCXCX",
"CXCXCXCXCXCXCXCXCXCXCXCXCXCXCXCXCXCXsX1.n C / ~ Z $ @ o   V 5XCXCXCXCXCXCXCXCXCXCXCXCXCXCXCXCXCXCXCX",
"CXCXCXCXCXCXCXCXCXCXCXCXCXCXCXCXCXnXu.2 < w u c 0 # + O 3 i a.gXCXCXCXCXCXCXCXCXCXCXCXCXCXCXCXCXCXCX",
"CXCXCXCXCXCXCXCXCXCXCXCXCXCXCXCXVXe.7 & , C.D.H.d 9 4 4 s y y.eXCXCXCXCXCXCXCXCXCXCXCXCXCXCXCXCXCXCX",
"CXCXCXCXCXCXCXCXCXCXCXCXCXCXCXNX,X;.% > A.l { ! g F.U.I.x } ^ B 9.pXCXCXCXCXCXCXCXCXCXCXCXCXCXCXCXCX",
"CXCXCXCXCXCXCXCXCXCXCXCXCXCXNXVX=Xp = , K.G.j h S.R.!.!.D.k f 6 s.zXCXCXCXCXCXCXCXCXCXCXCXCXCXCXCXCX",
"CXCXCXCXCXCXCXOXOXCXCXCXCXCXVXVXf.8 = , L.~././.Q.W.T.T.T.E.W.r h.vXCXCXCXCXCXOXOXCXCXCXCXCXCXCXCXCX",
"CXCXCXCXCXCXCXOXOXCXCXCXCXCXNXMXq.1 = , L.!.!.!./.P.V.; - : J.t k.MXCXCXCXCXCXOXOXCXCXCXCXCXCXCXCXCX",
"CXOXOXCXCXOXOXCXCXCXCXCXCXCXBXfX4.5 q b z ^.(.Y.Z.).{.]._.}.`.e j.XXOXCXCXOXOXCXCXCXCXCXCXCXCXCXCXCX",
"CXOXOXCXCXOXOXCXCXCXCXCXCXNX>X=.] P -.B. .O.'.v * [.FXDXSXGX.Xa $XoXOXCXCXOXOXCXCXCXCXCXCXCXCXCXCXCX",
"CXOXOXCXCXOXOXCXCXCXCXCXCXCX;X%.[ K X.m.` @.c.o.G l.|.N.M. Xz.( ' F S CXCXOXOXCXCXCXCXCXCXCXCXCXCXCX",
"CXOXOXCXCXOXOXCXCXCXCXCXCXCX-XQ ) J ..b.| +.x.2.<.&.$.Y I #.W T *.A D MXCXOXOXCXCXCXCXCXCXCXCXCXCXCX",
"CXCXCXCXCXCXCXCXCXCXCXCXCXCX@XE _ L X.n.` O.v.p.w.7.:.,.6.5.+X*X8.t.i.4XNXCXCXCXCXCXCXCXCXCXCXCXCXCX",
"CXCXCXCXCXCXCXCXCXCXCXCXCXCX#XN X . M U m H R 0.%Xr.:X9XmXhXtX7X2Xg.d.qXCXCXCXCXCXCXCXCXCXCXCXCXCXCX",
"CXCXCXCXCXCXCXCXCXCXCXCXCXCXBXlXdXgXiXyXuX0X6X1X<X1XwXzXVXlXjXzXxXxXnXbXCXCXCXCXCXCXCXCXCXCXCXCXCXCX",
"CXCXCXCXCXCXCXCXCXCXCXCXCXCXCXCXCXCXCXCXCXCXCXCXCXCXCXCXCXCXCXCXCXCXCXCXCXCXCXCXCXCXCXCXCXCXCXCXCXCX",
"CXCXCXCXCXCXCXCXCXCXCXCXCXCXCXCXCXCXCXCXCXCXCXCXCXCXCXCXCXCXCXCXCXCXCXCXCXCXCXCXCXCXCXCXCXCXCXCXCXCX",
"CXCXCXCXCXCXCXCXCXCXCXCXCXCXCXCXCXCXCXCXCXCXCXCXCXCXCXCXCXCXCXCXCXCXCXCXCXCXCXCXCXCXCXCXCXCXCXCXCXCX",
"CXCXCXCXCXCXCXCXCXCXCXCXCXCXCXAXAXAXAXZXZXCXCXCXCXCXCXCXCXCXCXCXCXCXCXCXCXCXCXCXCXCXCXCXCXCXCXCXCXCX",
"CXCXCXCXCXCXCXCXCXCXCXCXCXCXCXAXAXAXAXZXZXCXCXCXCXCXCXCXCXCXCXCXCXCXCXCXCXCXCXCXCXCXCXCXCXCXCXCXCXCX",
"CXCXCXCXCXCXCXCXCXCXCXCXCXCXCXCXCXAXAXZXZXZXZXCXCXCXCXZXZXAXAXAXAXCXCXCXCXCXCXCXCXCXCXCXCXCXCXCXCXCX",
"CXCXCXCXCXCXCXCXCXCXCXCXCXCXCXCXCXAXAXZXZXZXZXCXCXCXCXZXZXAXAXAXAXCXCXCXCXCXCXCXCXCXCXCXCXCXCXCXCXCX",
"CXCXCXCXCXCXCXCXCXCXCXCXCXCXCXOXOXOXOXZXZXZXZXCXCXZXZXZXZXAXAXCXCXCXCXCXCXCXCXCXCXCXCXCXCXCXCXCXCXCX",
"CXCXCXCXCXCXCXCXCXCXCXCXCXCXCXOXOXOXOXZXZXZXZXCXCXZXZXZXZXAXAXCXCXCXCXCXCXCXCXCXCXCXCXCXCXCXCXCXCXCX",
"CXCXCXCXCXCXCXCXCXCXCXCXCXCXCXCXCXOXOXOXOXCXCXCXCXZXZXZXZXOXOXOXOXCXCXCXCXCXCXCXCXCXCXCXCXCXCXCXCXCX",
"CXCXCXCXCXCXCXCXCXCXCXCXCXCXCXCXCXOXOXOXOXCXCXCXCXZXZXZXZXOXOXOXOXCXCXCXCXCXCXCXCXCXCXCXCXCXCXCXCXCX",
"CXCXCXCXCXCXCXCXCXCXCXCXCXCXCXCXCXCXCXCXCXCXCXCXCXCXCXOXOXOXOXCXCXCXCXCXCXCXCXCXCXCXCXCXCXCXCXCXCXCX",
"CXCXCXCXCXCXCXCXCXCXCXCXCXCXCXCXCXCXCXCXCXCXCXCXCXCXCXOXOXOXOXCXCXCXCXCXCXCXCXCXCXCXCXCXCXCXCXCXCXCX",
"CXCXCXCXCXCXCXCXCXCXCXCXCXCXCXCXCXCXCXCXCXCXCXCXCXCXCXCXCXCXCXCXCXCXCXCXCXCXCXCXCXCXCXCXCXCXCXCXCXCX",
"CXCXCXCXCXCXCXCXCXCXCXCXCXCXCXCXCXCXCXCXCXCXCXCXCXCXCXCXCXCXCXCXCXCXCXCXCXCXCXCXCXCXCXCXCXCXCXCXCXCX",
"CXCXCXCXCXCXCXCXCXCXCXCXCXCXCXCXCXCXCXCXCXCXCXCXCXCXCXCXCXCXCXCXCXCXCXCXCXCXCXCXCXCXCXCXCXCXCXCXCXCX",
"CXCXCXCXCXCXCXCXCXCXCXCXCXCXCXCXCXCXCXCXCXCXCXCXCXCXCXCXCXCXCXCXCXCXCXCXCXCXCXCXCXCXCXCXCXCXCXCXCXCX"
};
