/* XPM */
static char *result[] = {
/* columns rows colors chars-per-pixel */
"50 50 120 2 ",
"   c #2F382B",
".  c #32392C",
"X  c #3C3C2D",
"o  c #393B36",
"O  c #3A3C38",
"+  c #6F1D31",
"@  c #751B33",
"#  c #7D1E34",
"$  c #55272F",
"%  c #59292F",
"&  c #47312E",
"*  c #4D392F",
"=  c #5A2A30",
"-  c #473532",
";  c #4C3232",
":  c #453F33",
">  c #4B3D33",
",  c #4B3938",
"<  c #5D3333",
"1  c #652030",
"2  c #6C2D36",
"3  c #782235",
"4  c #613637",
"5  c #633B34",
"6  c #6B3439",
"7  c #6C3B3A",
"8  c #753A37",
"9  c #75323A",
"0  c #3B462F",
"q  c #3E4534",
"w  c #3D4C31",
"e  c #3F4339",
"r  c #3F5032",
"t  c #424727",
"y  c #584F2C",
"u  c #515923",
"i  c #57512A",
"p  c #414032",
"a  c #4C4234",
"s  c #424C33",
"d  c #4F4638",
"f  c #544235",
"g  c #514B36",
"h  c #53473A",
"j  c #5C413A",
"k  c #574B3A",
"l  c #5D4C3C",
"z  c #435330",
"x  c #4A5235",
"c  c #495339",
"v  c #4C5A3B",
"b  c #5C5C36",
"n  c #5C5738",
"m  c #565C3C",
"M  c #654537",
"N  c #604B33",
"B  c #694C36",
"V  c #634C3E",
"C  c #6C4C3F",
"Z  c #734B3B",
"A  c #4E6837",
"S  c #516B37",
"D  c #567437",
"F  c #587837",
"G  c #58763C",
"H  c #5B7A3A",
"J  c #656B3E",
"K  c #65743A",
"L  c #697C3C",
"P  c #645141",
"I  c #725544",
"U  c #73514D",
"Y  c #745A56",
"T  c #5E7C40",
"R  c #821E35",
"E  c #8B2837",
"W  c #862738",
"Q  c #8F2739",
"!  c #872E3A",
"~  c #8D2C3A",
"^  c #912437",
"/  c #93273A",
"(  c #99273A",
")  c #9C293A",
"_  c #82333A",
"`  c #8D363C",
"'  c #97343E",
"]  c #873241",
"[  c #8B344A",
"{  c #933F53",
"}  c #854643",
"|  c #824354",
" . c #82625D",
".. c #964F62",
"X. c #9A4E62",
"o. c #937670",
"O. c #967871",
"+. c #B06370",
"@. c #4E8400",
"#. c #5E823A",
"$. c #62843C",
"%. c #658A3C",
"&. c #6A8C3E",
"*. c #6A933D",
"=. c #6C993E",
"-. c #71A03F",
";. c #6C8640",
":. c #668B40",
">. c #6B9540",
",. c #6E9A41",
"<. c #73A241",
"1. c #76A842",
"2. c #78AC42",
"3. c #7DB443",
"4. c #7FB843",
"5. c #81BA44",
"6. c #9FDF5B",
"7. c #C1F27A",
"8. c #BC7E8D",
"9. c #C3A0B0",
/* pixels */
"5.5.5.5.5.5.5.5.5.5.5.5.5.5.5.5.5.5.5.5.5.5.5.5.5.5.5.5.5.5.5.5.5.5.5.5.5.5.5.5.5.5.5.5.5.5.5.5.5.5.",
"5.5.5.5.5.5.5.5.5.5.5.5.5.5.5.5.5.5.5.5.5.5.5.5.5.5.5.5.5.5.5.5.5.5.5.5.5.5.5.5.5.5.5.5.5.5.5.5.5.5.",
"5.5.5.5.5.5.5.5.5.5.5.5.5.5.5.5.5.5.5.5.5.5.5.5.5.5.5.5.5.5.5.5.5.5.5.5.5.5.5.5.5.5.5.5.5.5.5.5.5.5.",
"5.5.5.5.5.5.5.5.5.5.5.5.5.5.5.5.5.5.5.5.5.5.5.5.5.5.5.5.5.5.5.5.5.5.5.5.5.5.5.5.5.5.5.5.5.5.5.5.5.5.",
"5.5.5.5.5.5.5.5.5.5.5.5.5.5.5.5.5.5.5.5.5.5.5.5.5.5.5.5.5.5.5.5.5.5.5.5.5.5.5.5.5.5.5.5.5.5.5.5.5.5.",
"5.5.5.5.5.5.5.5.5.5.5.5.5.5.5.5.5.5.5.5.5.5.5.5.5.5.5.5.5.5.5.5.5.5.5.5.5.5.5.5.5.5.5.5.5.5.5.5.5.5.",
"5.5.5.5.5.5.5.5.5.5.5.5.5.5.5.5.5.5.5.5.5.5.5.5.5.5.5.5.5.5.5.5.5.5.5.5.5.5.5.5.5.5.5.5.5.5.5.5.5.5.",
"5.5.5.5.5.5.5.5.5.5.5.5.5.5.5.5.5.5.5.5.5.5.5.5.5.5.5.5.5.5.5.5.5.5.5.5.5.5.5.5.5.5.5.5.5.5.5.5.5.5.",
"5.5.5.5.5.5.5.5.5.5.5.5.5.5.5.5.5.@.@.5.5.5.5.5.5.5.5.5.5.5.5.5.5.5.5.5.5.5.5.5.5.5.5.5.5.5.5.5.5.@.",
"5.5.5.5.5.5.5.5.5.5.5.5.5.5.5.5.5.@.@.5.5.5.5.5.5.5.5.5.5.5.5.5.5.5.5.5.5.5.5.5.5.5.5.5.5.5.5.5.5.@.",
"5.5.5.5.5.5.5.5.5.5.5.5.5.5.5.5.5.5.5.@.@.5.5.@.@.5.5.5.5.5.5.5.5.5.5.5.5.5.5.5.5.5.5.5.5.5.5.5.5.5.",
"5.5.5.5.5.5.5.5.5.5.5.5.5.5.5.5.5.5.5.@.@.5.5.@.@.5.5.5.5.5.5.5.5.5.5.5.5.5.5.5.5.5.5.5.5.5.5.5.5.5.",
"5.5.5.5.5.5.5.5.5.5.5.5.5.5.5.5.5.5.5.@.@.5.5.@.@.5.5.5.5.5.5.5.5.5.5.5.5.5.5.5.5.5.5.5.5.5.5.5.5.5.",
"5.5.5.5.5.5.5.5.5.5.5.5.5.5.5.5.5.5.5.@.@.5.5.@.@.5.5.5.5.5.5.5.5.5.5.5.5.5.5.5.5.5.5.5.5.5.5.5.5.5.",
"5.5.5.5.5.5.5.5.5.5.5.5.5.5.5.5.5.5.5.5.5.5.5.5.5.5.5.4.5.5.5.5.5.5.5.5.5.5.5.5.5.5.5.5.5.5.5.5.5.5.",
"5.5.5.5.5.5.5.5.5.5.5.5.5.5.5.5.5.5.5.5.5.5.5.<.T :.>.,.1.5.5.5.5.5.5.5.5.5.5.5.5.5.5.5.5.5.5.5.5.5.",
"5.5.5.5.5.5.5.5.5.5.5.5.5.5.5.5.5.5.5.5.4.4.4.<.#.>.#.G %.4.5.5.5.5.5.5.5.5.5.5.5.5.5.5.5.5.5.5.5.5.",
"5.5.5.5.5.5.5.5.5.5.5.5.5.5.5.5.5.5.5.5.*.r r s v v e e q w w G 5.5.5.5.5.5.5.5.5.5.5.5.5.5.5.5.5.5.",
"5.5.5.5.5.5.5.5.5.5.5.5.5.5.5.5.5.5.5.<.n $ % 2 9 Z m O o o ; M ;.5.5.5.5.5.5.5.5.5.5.5.5.5.5.5.5.5.",
"5.5.5.5.5.5.5.5.5.5.5.5.5.5.5.5.5.5.3.L % @ # W ~ _ M , , , 6 8 K 3.5.5.5.5.5.5.5.5.5.5.5.5.5.5.5.5.",
"5.5.5.5.5.5.5.5.5.5.5.5.5.5.5.5.5.2.L 2 @ # W Z J j 9 Q ~ _ Z n c w G 5.5.5.5.5.5.5.5.5.5.5.5.5.5.5.",
"5.5.5.5.5.5.5.5.5.5.5.5.5.5.5.5.5.<.S 1 @ R ^ _ 7 9 Q ) ) ) ! 6 4 - S 5.5.5.5.5.5.5.5.5.5.5.5.5.5.5.",
"5.5.5.5.5.5.5.5.5.5.5.5.5.5.5.5.5.-.b 1 @ R ^ ) ) ) ) ) ( ( ( ( Q < S 5.5.5.5.5.5.5.5.5.5.5.5.5.5.5.",
"5.5.5.5.5.5.5.5.5.5.5.5.5.5.5.5.5.,.g 1 @ R ( ) ) ) ) ^ R # # W E 5 H 5.5.5.5.5.5.5.5.5.5.5.5.5.5.5.",
"5.5.5.5.5.5.5.@.@.5.5.5.5.5.5.5.5.&.> = 2 9 _ ` ' / Q { ..[ { X.] B =.5.5.5.5.@.@.5.5.5.5.5.5.5.5.5.",
"5.5.5.5.5.5.5.@.@.5.5.5.5.5.5.3.$.g > : M I f C } 3 + 8.9.+.8.9.| N -.5.5.5.5.@.@.5.5.5.5.5.5.5.5.5.",
"5.@.@.5.5.@.@.5.5.5.5.5.5.5.2.H h > a P V l P l a & ; Y O.U  .o.j * u 2.5.@.@.5.5.5.5.5.5.5.5.5.5.5.",
"5.@.@.5.5.@.@.5.5.5.5.5.5.5.=.x f f a I l a I k .   . d P : h P : a i =.5.@.@.5.5.5.5.5.5.5.5.5.5.5.",
"5.@.@.5.5.@.@.5.5.5.5.5.5.5.&.s f * a I l a I k       . q z z s s f y %.5.@.@.5.5.5.5.5.5.5.5.5.5.5.",
"5.@.@.5.5.@.@.5.5.5.5.5.5.5.&.0 X X 0 a q X a p .     0 F 1.=.D z X t %.5.@.@.5.5.5.5.5.5.5.5.5.5.5.",
"5.5.5.5.5.5.5.5.5.5.5.5.5.5.3.-.=.%.$.%.%.%.$.H D A A #.-.4.3.-.<.<.<.2.5.5.5.5.5.5.5.5.5.5.5.5.5.5.",
"5.5.5.5.5.5.5.5.5.5.5.5.5.5.5.4.4.4.3.3.3.3.3.3.2.3.3.4.4.5.5.4.3.5.5.5.5.5.5.5.5.5.5.5.5.5.5.5.5.5.",
"5.5.5.5.5.5.5.5.5.5.5.5.5.5.5.5.5.5.5.5.5.5.5.5.5.5.5.5.5.5.5.5.5.5.5.5.5.5.5.5.5.5.5.5.5.5.5.5.5.5.",
"5.5.5.5.5.5.5.5.5.5.5.5.5.5.5.5.5.5.5.5.5.5.5.5.5.5.5.5.5.5.5.5.5.5.5.5.5.5.5.5.5.5.5.5.5.5.5.5.5.5.",
"5.5.5.5.5.5.5.5.5.5.5.5.5.5.5.5.5.5.5.5.5.5.5.5.5.5.5.5.5.5.5.5.5.5.5.5.5.5.5.5.5.5.5.5.5.5.5.5.5.5.",
"5.5.5.5.5.5.5.5.5.5.5.5.5.5.5.5.5.5.5.5.5.5.5.5.5.5.5.5.5.5.5.5.5.5.5.5.5.5.5.5.5.5.5.5.5.5.5.5.5.5.",
"5.5.5.5.5.5.5.5.5.5.5.5.5.5.5.7.7.7.7.6.6.5.5.5.5.5.5.5.5.5.5.5.5.5.5.5.5.5.5.5.5.5.5.5.5.5.5.5.5.5.",
"5.5.5.5.5.5.5.5.5.5.5.5.5.5.5.7.7.7.7.6.6.5.5.5.5.5.5.5.5.5.5.5.5.5.5.5.5.5.5.5.5.5.5.5.5.5.5.5.5.5.",
"5.5.5.5.5.5.5.5.5.5.5.5.5.5.5.5.5.7.7.6.6.6.6.5.5.5.5.6.6.7.7.7.7.5.5.5.5.5.5.5.5.5.5.5.5.5.5.5.5.5.",
"5.5.5.5.5.5.5.5.5.5.5.5.5.5.5.5.5.7.7.6.6.6.6.5.5.5.5.6.6.7.7.7.7.5.5.5.5.5.5.5.5.5.5.5.5.5.5.5.5.5.",
"5.5.5.5.5.5.5.5.5.5.5.5.5.5.5.@.@.@.@.6.6.6.6.5.5.6.6.6.6.7.7.5.5.5.5.5.5.5.5.5.5.5.5.5.5.5.5.5.5.5.",
"5.5.5.5.5.5.5.5.5.5.5.5.5.5.5.@.@.@.@.6.6.6.6.5.5.6.6.6.6.7.7.5.5.5.5.5.5.5.5.5.5.5.5.5.5.5.5.5.5.5.",
"5.5.5.5.5.5.5.5.5.5.5.5.5.5.5.5.5.@.@.@.@.5.5.5.5.6.6.6.6.@.@.@.@.5.5.5.5.5.5.5.5.5.5.5.5.5.5.5.5.5.",
"5.5.5.5.5.5.5.5.5.5.5.5.5.5.5.5.5.@.@.@.@.5.5.5.5.6.6.6.6.@.@.@.@.5.5.5.5.5.5.5.5.5.5.5.5.5.5.5.5.5.",
"5.5.5.5.5.5.5.5.5.5.5.5.5.5.5.5.5.5.5.5.5.5.5.5.5.5.5.@.@.@.@.5.5.5.5.5.5.5.5.5.5.5.5.5.5.5.5.5.5.5.",
"5.5.5.5.5.5.5.5.5.5.5.5.5.5.5.5.5.5.5.5.5.5.5.5.5.5.5.@.@.@.@.5.5.5.5.5.5.5.5.5.5.5.5.5.5.5.5.5.5.5.",
"5.5.5.5.5.5.5.5.5.5.5.5.5.5.5.5.5.5.5.5.5.5.5.5.5.5.5.5.5.5.5.5.5.5.5.5.5.5.5.5.5.5.5.5.5.5.5.5.5.5.",
"5.5.5.5.5.5.5.5.5.5.5.5.5.5.5.5.5.5.5.5.5.5.5.5.5.5.5.5.5.5.5.5.5.5.5.5.5.5.5.5.5.5.5.5.5.5.5.5.5.5.",
"5.5.5.5.5.5.5.5.5.5.5.5.5.5.5.5.5.5.5.5.5.5.5.5.5.5.5.5.5.5.5.5.5.5.5.5.5.5.5.5.5.5.5.5.5.5.5.5.5.5.",
"5.5.5.5.5.5.5.5.5.5.5.5.5.5.5.5.5.5.5.5.5.5.5.5.5.5.5.5.5.5.5.5.5.5.5.5.5.5.5.5.5.5.5.5.5.5.5.5.5.5."
};
